<?xml version="1.0" encoding="UTF-8" standalone="no"?>
<svg
   xmlns:dc="http://purl.org/dc/elements/1.1/"
   xmlns:cc="http://creativecommons.org/ns#"
   xmlns:rdf="http://www.w3.org/1999/02/22-rdf-syntax-ns#"
   xmlns:svg="http://www.w3.org/2000/svg"
   xmlns="http://www.w3.org/2000/svg"
   id="svg1055"
   version="1.1"
   viewBox="0 0 349.81386 142.19811"
   height="537.44165"
   width="1322.1311">
  <defs
     id="defs1049" />
  <metadata
     id="metadata1052">
    <rdf:RDF>
      <cc:Work
         rdf:about="">
        <dc:format>image/svg+xml</dc:format>
        <dc:type
           rdf:resource="http://purl.org/dc/dcmitype/StillImage" />
        <dc:title></dc:title>
      </cc:Work>
    </rdf:RDF>
  </metadata>
  <g
     transform="translate(163.56764,22.051434)"
     id="layer1">
    <path
       d="M 147.73943,49.047619 A 104.88838,71.099052 0 0 1 43.090221,120.14649 104.88838,71.099052 0 0 1 -62.036247,49.371872 104.88838,71.099052 0 0 1 42.133518,-22.04977 104.88838,71.099052 0 0 1 147.73506,48.399119"
       id="path857"
       style="opacity:1;fill:#e69dac;fill-opacity:1;fill-rule:nonzero;stroke:none;stroke-width:0.26499999;stroke-linecap:butt;stroke-linejoin:miter;stroke-miterlimit:4;stroke-dasharray:none;stroke-dashoffset:0;stroke-opacity:1;paint-order:normal" />
    <circle
       r="32.769291"
       cy="47.613228"
       cx="-12.71716"
       id="path847"
       style="opacity:0.29300005;fill:#ffffff;fill-opacity:1;fill-rule:nonzero;stroke:none;stroke-width:0.26499999;stroke-linecap:butt;stroke-linejoin:round;stroke-miterlimit:4;stroke-dasharray:none;stroke-dashoffset:0;stroke-opacity:1;paint-order:normal" />
    <circle
       style="opacity:0.29300005;fill:#ffffff;fill-opacity:1;fill-rule:nonzero;stroke:none;stroke-width:0.26499999;stroke-linecap:butt;stroke-linejoin:round;stroke-miterlimit:4;stroke-dasharray:none;stroke-dashoffset:0;stroke-opacity:1;paint-order:normal"
       id="circle849"
       cx="97.397881"
       cy="47.613228"
       r="32.769291" />
    <g
       id="text855"
       style="font-style:normal;font-variant:normal;font-weight:normal;font-stretch:normal;font-size:14.11111069px;line-height:1.25;font-family:Quicksand;-inkscape-font-specification:Quicksand;text-align:center;letter-spacing:0px;word-spacing:0px;text-anchor:middle;fill:#000000;fill-opacity:1;stroke:none;stroke-width:0.02645833"
       aria-label="piglot"
       transform="matrix(10,0,0,10,-515.27469,-230.70683)">
      <path
         id="path872"
         style="font-style:normal;font-variant:normal;font-weight:normal;font-stretch:normal;font-size:14.11111069px;font-family:Quicksand;-inkscape-font-specification:Quicksand;stroke-width:0.02645833"
         d="m 38.599705,24.301916 q 0.931334,0 1.693334,0.479777 0.762,0.465667 1.185333,1.312334 0.437444,0.832555 0.437444,1.876777 0,1.058334 -0.437444,1.905 -0.423333,0.832556 -1.185333,1.312334 -0.747889,0.479777 -1.679223,0.479777 -0.818444,0 -1.509888,-0.381 -0.677334,-0.395111 -1.086556,-1.044222 v 3.725333 q 0,0.183445 -0.127,0.296334 -0.112889,0.127 -0.296333,0.127 -0.183445,0 -0.310445,-0.127 -0.112889,-0.112889 -0.112889,-0.296334 v -9.200444 q 0,-0.183444 0.112889,-0.310444 0.127,-0.127 0.310445,-0.127 0.183444,0 0.296333,0.127 0.127,0.127 0.127,0.310444 v 0.959556 q 0.366889,-0.663222 1.058333,-1.044222 0.691445,-0.381 1.524,-0.381 z m -0.07055,6.575777 q 0.733778,0 1.312333,-0.366889 0.592667,-0.381 0.917222,-1.044222 0.338667,-0.663222 0.338667,-1.495778 0,-0.818444 -0.338667,-1.467555 -0.324555,-0.663222 -0.917222,-1.030111 -0.578555,-0.381 -1.312333,-0.381 -0.747889,0 -1.340556,0.366889 -0.592666,0.366889 -0.917222,1.030111 -0.324555,0.649111 -0.324555,1.481666 0,0.832556 0.324555,1.495778 0.324556,0.663222 0.917222,1.044222 0.592667,0.366889 1.340556,0.366889 z" />
      <path
         id="path874"
         style="font-style:normal;font-variant:normal;font-weight:normal;font-stretch:normal;font-size:14.11111069px;font-family:Quicksand;-inkscape-font-specification:Quicksand;stroke-width:0.02645833"
         d="m 44.484029,31.145804 q 0,0.183445 -0.127,0.310445 -0.112889,0.112889 -0.296334,0.112889 -0.183444,0 -0.310444,-0.112889 -0.112889,-0.127 -0.112889,-0.310445 v -6.491111 q 0,-0.183444 0.112889,-0.296333 0.127,-0.127 0.310444,-0.127 0.183445,0 0.296334,0.127 0.127,0.112889 0.127,0.296333 z m -0.423334,-7.859888 q -0.282222,0 -0.437444,-0.127 -0.155222,-0.141112 -0.155222,-0.395111 v -0.141112 q 0,-0.254 0.155222,-0.381 0.169333,-0.141111 0.451555,-0.141111 0.564445,0 0.564445,0.522111 v 0.141112 q 0,0.253999 -0.155222,0.395111 -0.141111,0.127 -0.423334,0.127 z" />
      <path
         id="path876"
         style="font-style:normal;font-variant:normal;font-weight:normal;font-stretch:normal;font-size:14.11111069px;font-family:Quicksand;-inkscape-font-specification:Quicksand;stroke-width:0.02645833"
         d="m 53.397433,24.35836 q 0.183445,0 0.296334,0.127 0.127,0.112889 0.127,0.310444 v 6.110111 q 0,1.100667 -0.465667,1.876778 -0.451556,0.790222 -1.255889,1.199445 -0.790222,0.409222 -1.820333,0.409222 -0.493889,0 -1.044222,-0.127 -0.536223,-0.127 -0.931334,-0.324556 -0.381,-0.197555 -0.437444,-0.409222 -0.09878,-0.09878 -0.09878,-0.225778 0,-0.141111 0.127,-0.225778 0.05644,-0.04233 0.141111,-0.04233 0.08467,0 0.324556,0.09878 l 0.296333,0.127 q 0.874889,0.338667 1.636889,0.338667 1.255889,0 1.961444,-0.719667 0.719667,-0.705556 0.719667,-1.919111 v -0.874889 q -0.352778,0.762 -1.114778,1.199444 -0.762,0.423334 -1.594555,0.423334 -0.973667,0 -1.763889,-0.479778 -0.776111,-0.493889 -1.227667,-1.354667 -0.451555,-0.860777 -0.451555,-1.933222 0,-1.058333 0.451555,-1.919111 0.451556,-0.860778 1.227667,-1.340555 0.790222,-0.493889 1.749777,-0.493889 0.889,0 1.622778,0.451555 0.747889,0.437445 1.100667,1.058334 v -0.903112 q 0,-0.183444 0.112889,-0.310444 0.127,-0.127 0.310444,-0.127 z m -3.062111,6.561666 q 0.776111,0 1.382889,-0.366888 0.620889,-0.381 0.959556,-1.058334 0.352777,-0.691444 0.352777,-1.552222 0,-0.860778 -0.352777,-1.538111 -0.338667,-0.677333 -0.959556,-1.044222 -0.606778,-0.381 -1.382889,-0.381 -0.762,0 -1.382889,0.395111 -0.606777,0.381 -0.959555,1.058333 -0.338667,0.677334 -0.338667,1.509889 0,0.846667 0.338667,1.524 0.352778,0.677333 0.959555,1.072444 0.620889,0.381 1.382889,0.381 z" />
      <path
         id="path878"
         style="font-style:normal;font-variant:normal;font-weight:normal;font-stretch:normal;font-size:14.11111069px;font-family:Quicksand;-inkscape-font-specification:Quicksand;stroke-width:0.02645833"
         d="m 56.16535,31.145804 q 0,0.183445 -0.127,0.310445 -0.112889,0.112889 -0.296333,0.112889 -0.183444,0 -0.310444,-0.112889 -0.112889,-0.127 -0.112889,-0.310445 v -9.595555 q 0,-0.183444 0.112889,-0.296333 0.127,-0.127 0.310444,-0.127 0.183444,0 0.296333,0.127 0.127,0.112889 0.127,0.296333 z" />
      <path
         id="path882"
         style="font-style:normal;font-variant:normal;font-weight:normal;font-stretch:normal;font-size:14.11111069px;font-family:Quicksand;-inkscape-font-specification:Quicksand;stroke-width:0.02645833"
         d="m 68.345866,25.176804 v 4.727223 q 0,0.536222 0.197556,0.733777 0.197555,0.183445 0.522111,0.183445 0.08467,0 0.211666,-0.02822 0.127,-0.04233 0.197556,-0.04233 0.127,0 0.211667,0.112889 0.09878,0.09878 0.09878,0.239889 0,0.197555 -0.225777,0.338667 -0.225778,0.127 -0.536223,0.127 -0.381,0 -0.677333,-0.07056 -0.296333,-0.07056 -0.578555,-0.423333 -0.268112,-0.352778 -0.268112,-1.128889 v -4.769556 h -1.030111 q -0.169333,0 -0.296333,-0.112888 -0.112889,-0.112889 -0.112889,-0.282223 0,-0.169333 0.112889,-0.282222 0.127,-0.112889 0.296333,-0.112889 h 1.030111 v -1.566333 q 0,-0.183444 0.112889,-0.296333 0.127,-0.127 0.310445,-0.127 0.183444,0 0.296333,0.127 0.127,0.112889 0.127,0.296333 v 1.566333 h 1.411111 q 0.155222,0 0.268111,0.127 0.127,0.127 0.127,0.282222 0,0.169334 -0.112889,0.282223 -0.112889,0.09878 -0.282222,0.09878 z" />
      <path
         id="path880"
         style="font-style:normal;font-variant:normal;font-weight:normal;font-stretch:normal;font-size:14.11111069px;font-family:Quicksand;-inkscape-font-specification:Quicksand;stroke-width:0.02645833"
         d="m 64.80349,27.956693 q 0,1.058334 -0.465666,1.919111 -0.465667,0.860778 -1.284111,1.354667 -0.818445,0.479778 -1.820334,0.479778 -1.001889,0 -1.820333,-0.479778 -0.818444,-0.493889 -1.284111,-1.354667 -0.465667,-0.860777 -0.465667,-1.919111 0,-1.058333 0.465667,-1.919111 0.465667,-0.860778 1.284111,-1.354666 0.818444,-0.493889 1.820333,-0.493889 1.001889,0 1.820334,0.493889 0.818444,0.493888 1.284111,1.354666 0.465666,0.860778 0.465666,1.919111 z m -0.846666,0 q 0,-0.846666 -0.352778,-1.524 -0.352778,-0.677333 -0.987778,-1.058333 -0.620889,-0.395111 -1.382889,-0.395111 -0.762,0 -1.382889,0.395111 -0.620888,0.381 -0.987777,1.058333 -0.352778,0.677334 -0.352778,1.524 0,0.832556 0.352778,1.509889 0.366889,0.677333 0.987777,1.072444 0.620889,0.381 1.382889,0.381 0.762,0 1.382889,-0.381 0.635,-0.380999 0.987778,-1.058333 0.352778,-0.677333 0.352778,-1.524 z" />
    </g>
  </g>
</svg>
