<?xml version="1.0" encoding="utf-8" standalone="no"?>
<!DOCTYPE svg PUBLIC "-//W3C//DTD SVG 1.1//EN"
  "http://www.w3.org/Graphics/SVG/1.1/DTD/svg11.dtd">
<svg xmlns:xlink="http://www.w3.org/1999/xlink" width="460.8pt" height="345.6pt" viewBox="0 0 460.8 345.6" xmlns="http://www.w3.org/2000/svg" version="1.1">
 <metadata>
  <rdf:RDF xmlns:dc="http://purl.org/dc/elements/1.1/" xmlns:cc="http://creativecommons.org/ns#" xmlns:rdf="http://www.w3.org/1999/02/22-rdf-syntax-ns#">
   <cc:Work>
    <dc:type rdf:resource="http://purl.org/dc/dcmitype/StillImage"/>
    <dc:date>2024-06-04T16:25:52.669542</dc:date>
    <dc:format>image/svg+xml</dc:format>
    <dc:creator>
     <cc:Agent>
      <dc:title>Matplotlib v3.8.2, https://matplotlib.org/</dc:title>
     </cc:Agent>
    </dc:creator>
   </cc:Work>
  </rdf:RDF>
 </metadata>
 <defs>
  <style type="text/css">*{stroke-linejoin: round; stroke-linecap: butt}</style>
 </defs>
 <g id="figure_1">
  <g id="patch_1">
   <path d="M 0 345.6 
L 460.8 345.6 
L 460.8 0 
L 0 0 
z
" style="fill: #ffffff"/>
  </g>
  <g id="axes_1">
   <g id="patch_2">
    <path d="M 54.02 303.64 
L 442.125 303.64 
L 442.125 10.8 
L 54.02 10.8 
z
" style="fill: #ffffff"/>
   </g>
   <g id="PolyCollection_1">
    <path d="M 54.02 25.108995 
L 54.02 34.24531 
L 54.408493 35.048265 
L 54.796987 35.852504 
L 55.185481 36.65801 
L 55.573974 37.464783 
L 55.962467 38.272807 
L 56.350961 39.082069 
L 56.739454 39.892558 
L 57.127948 40.704264 
L 57.516442 41.517173 
L 57.904935 42.331274 
L 58.293428 43.146555 
L 58.681922 43.963003 
L 59.070415 44.780605 
L 59.458909 45.599352 
L 59.847402 46.41923 
L 60.235896 47.240223 
L 60.624389 48.062323 
L 61.012883 48.885516 
L 61.401376 49.709788 
L 61.78987 50.535125 
L 62.178364 51.361515 
L 62.566857 52.188945 
L 62.95535 53.017399 
L 63.343844 53.846863 
L 63.732337 54.677327 
L 64.120831 55.508775 
L 64.509324 56.34119 
L 64.897818 57.174563 
L 65.286311 58.008875 
L 65.674804 58.844117 
L 66.063298 59.680273 
L 66.451792 60.517321 
L 66.840285 61.355255 
L 67.228778 62.194057 
L 67.617271 63.033709 
L 68.005766 63.874205 
L 68.394259 64.715517 
L 68.782753 65.55764 
L 69.171246 66.400556 
L 69.559739 67.244247 
L 69.948232 68.0887 
L 70.336727 68.933903 
L 70.72522 69.779837 
L 71.113714 70.626486 
L 71.502207 71.473838 
L 71.8907 72.321878 
L 72.279193 73.170592 
L 72.667688 74.019971 
L 73.056181 74.869995 
L 73.444675 75.720655 
L 73.833168 76.571943 
L 74.221661 77.423849 
L 74.610154 78.276367 
L 74.998648 79.129495 
L 75.387142 79.983238 
L 75.775636 80.837599 
L 76.164129 81.692598 
L 76.552622 82.548268 
L 76.941115 83.404659 
L 77.329609 84.261857 
L 77.718103 85.119994 
L 78.106597 85.979281 
L 78.49509 86.840068 
L 78.883583 87.702942 
L 79.272076 88.568889 
L 79.66057 89.439518 
L 80.049063 90.317113 
L 80.437556 91.203829 
L 80.82605 92.099915 
L 81.214543 93.003181 
L 81.603039 93.910697 
L 81.991532 94.820163 
L 82.380025 95.730142 
L 82.768519 96.639767 
L 83.157012 97.548514 
L 83.545505 98.456056 
L 83.933999 99.362176 
L 84.322492 100.266725 
L 84.710985 101.169598 
L 85.099478 102.070715 
L 85.487972 102.970016 
L 85.876465 103.86745 
L 86.264958 104.762976 
L 86.653454 105.656566 
L 87.041948 106.54818 
L 87.430441 107.437793 
L 87.818934 108.325384 
L 88.207427 109.210931 
L 88.595921 110.094414 
L 88.984414 110.975812 
L 89.372907 111.855109 
L 89.7614 112.732288 
L 90.149894 113.607333 
L 90.538387 114.480231 
L 90.92688 115.350965 
L 91.315376 116.219529 
L 91.70387 117.085895 
L 92.092363 117.95006 
L 92.480856 118.812011 
L 92.869349 119.671733 
L 93.257843 120.52922 
L 93.646336 121.384456 
L 94.034829 122.237436 
L 94.423322 123.088148 
L 94.811816 123.936579 
L 95.200309 124.782726 
L 95.588802 125.626579 
L 95.977295 126.468124 
L 96.365792 127.307368 
L 96.754285 128.144287 
L 97.142778 128.978878 
L 97.531271 129.811141 
L 97.919765 130.641063 
L 98.308258 131.468645 
L 98.696751 132.293878 
L 99.085244 133.116756 
L 99.473738 133.93728 
L 99.862231 134.75544 
L 100.250724 135.571238 
L 100.639217 136.38467 
L 101.027711 137.195731 
L 101.416207 138.004429 
L 101.8047 138.810749 
L 102.193193 139.614695 
L 102.581687 140.416271 
L 102.97018 141.215475 
L 103.358673 142.01231 
L 103.747166 142.80677 
L 104.13566 143.598871 
L 104.524153 144.38861 
L 104.912646 145.175991 
L 105.301139 145.961022 
L 105.689633 146.743702 
L 106.078126 147.52405 
L 106.466619 148.302072 
L 106.855113 149.077777 
L 107.243606 149.85118 
L 107.632099 150.62229 
L 108.020592 151.391137 
L 108.409086 152.157737 
L 108.797585 152.922129 
L 109.186078 153.684321 
L 109.574571 154.444366 
L 109.963064 155.20231 
L 110.351558 155.958208 
L 110.740051 156.712146 
L 111.128544 157.464214 
L 111.517037 158.214535 
L 111.905531 158.963263 
L 112.294024 159.710591 
L 112.682517 160.456778 
L 113.071011 161.202118 
L 113.459504 161.946948 
L 113.847997 162.691609 
L 114.23649 163.436374 
L 114.624984 164.181393 
L 115.013477 164.926612 
L 115.40197 165.671801 
L 115.790463 166.416615 
L 116.178957 167.160663 
L 116.56745 167.903589 
L 116.955943 168.645073 
L 117.344436 169.384855 
L 117.73293 170.122731 
L 118.121423 170.85853 
L 118.509916 171.592136 
L 118.898415 172.32345 
L 119.286908 173.052371 
L 119.675402 173.778843 
L 120.063895 174.502811 
L 120.452388 175.224229 
L 120.840882 175.943056 
L 121.229375 176.659268 
L 121.617868 177.372834 
L 122.006361 178.08373 
L 122.394855 178.791935 
L 122.783348 179.497428 
L 123.171841 180.200203 
L 123.560334 180.900241 
L 123.948828 181.597531 
L 124.337321 182.292065 
L 124.725814 182.983827 
L 125.114307 183.672822 
L 125.502801 184.359038 
L 125.891294 185.042472 
L 126.279787 185.723118 
L 126.66828 186.400976 
L 127.056774 187.076042 
L 127.445267 187.748317 
L 127.83376 188.417792 
L 128.222254 189.084485 
L 128.610753 189.748398 
L 128.999246 190.409516 
L 129.387739 191.067851 
L 129.776232 191.723407 
L 130.164726 192.376188 
L 130.553219 193.0262 
L 130.941712 193.673448 
L 131.330205 194.317938 
L 131.718699 194.959679 
L 132.107192 195.598669 
L 132.495685 196.234932 
L 132.884178 196.86847 
L 133.272672 197.499292 
L 133.661165 198.127406 
L 134.049658 198.752824 
L 134.438151 199.375555 
L 134.826645 199.99561 
L 135.215138 200.613002 
L 135.603631 201.227742 
L 135.992125 201.839841 
L 136.380618 202.449304 
L 136.769111 203.056161 
L 137.157604 203.660415 
L 137.546098 204.262081 
L 137.934591 204.861172 
L 138.323084 205.457702 
L 138.711583 206.051694 
L 139.100076 206.643144 
L 139.48857 207.232076 
L 139.877063 207.818504 
L 140.265556 208.402443 
L 140.654049 208.983901 
L 141.042543 209.562907 
L 141.431036 210.139469 
L 141.819529 210.713603 
L 142.208023 211.285323 
L 142.596516 211.854646 
L 142.985009 212.421586 
L 143.373502 212.986159 
L 143.761996 213.548381 
L 144.150489 214.108269 
L 144.538982 214.665838 
L 144.927475 215.221098 
L 145.315969 215.774081 
L 145.704462 216.324798 
L 146.092955 216.873268 
L 146.481448 217.419511 
L 146.869942 217.963549 
L 147.258435 218.505407 
L 147.646928 219.045113 
L 148.035421 219.5827 
L 148.423915 220.118208 
L 148.812414 220.651693 
L 149.200907 221.183193 
L 149.5894 221.712811 
L 149.977894 222.240645 
L 150.366387 222.766834 
L 150.75488 223.291571 
L 151.143373 223.81511 
L 151.531867 224.337787 
L 151.92036 224.86001 
L 152.308853 225.382221 
L 152.697346 225.904798 
L 153.08584 226.427925 
L 153.474333 226.951547 
L 153.862826 227.475373 
L 154.251319 227.99902 
L 154.639813 228.522106 
L 155.028306 229.044311 
L 155.416799 229.565383 
L 155.805292 230.085134 
L 156.193786 230.603423 
L 156.582279 231.120148 
L 156.970772 231.635229 
L 157.359266 232.1486 
L 157.747759 232.66023 
L 158.136252 233.170073 
L 158.524745 233.678101 
L 158.913239 234.184288 
L 159.301732 234.688613 
L 159.690225 235.191058 
L 160.078718 235.691606 
L 160.467212 236.190243 
L 160.855705 236.686955 
L 161.244198 237.181722 
L 161.632691 237.674545 
L 162.021185 238.165406 
L 162.409678 238.654294 
L 162.798171 239.141196 
L 163.186664 239.626103 
L 163.575169 240.109016 
L 163.963663 240.589898 
L 164.352156 241.068752 
L 164.740649 241.545567 
L 165.129142 242.020332 
L 165.517636 242.493036 
L 165.906129 242.963669 
L 166.294622 243.432213 
L 166.683115 243.898672 
L 167.071609 244.363026 
L 167.460102 244.825267 
L 167.848595 245.285382 
L 168.237088 245.743361 
L 168.625582 246.199194 
L 169.014075 246.652864 
L 169.402568 247.104371 
L 169.791061 247.5537 
L 170.179555 248.00084 
L 170.568048 248.445779 
L 170.956541 248.888508 
L 171.345035 249.329016 
L 171.733528 249.767293 
L 172.122021 250.203327 
L 172.510514 250.637109 
L 172.899008 251.068629 
L 173.287501 251.497876 
L 173.675994 251.92484 
L 174.064487 252.349511 
L 174.452981 252.77188 
L 174.841474 253.191936 
L 175.229967 253.60967 
L 175.61846 254.025073 
L 176.006954 254.438134 
L 176.395447 254.848834 
L 176.78394 255.257186 
L 177.172433 255.66317 
L 177.560927 256.066776 
L 177.94942 256.467996 
L 178.337913 256.866822 
L 178.726406 257.263244 
L 179.1149 257.657256 
L 179.503393 258.048848 
L 179.891886 258.438003 
L 180.28038 258.824734 
L 180.668873 259.209022 
L 181.057366 259.590861 
L 181.445859 259.970243 
L 181.834353 260.347161 
L 182.222846 260.721609 
L 182.611339 261.09358 
L 182.999832 261.463067 
L 183.388337 261.830085 
L 183.77683 262.194587 
L 184.165324 262.556588 
L 184.553817 262.916082 
L 184.94231 263.273064 
L 185.330803 263.627528 
L 185.719297 263.979471 
L 186.10779 264.328887 
L 186.496283 264.675771 
L 186.884777 265.02012 
L 187.27327 265.36193 
L 187.661763 265.701196 
L 188.050256 266.037916 
L 188.43875 266.372086 
L 188.827243 266.703702 
L 189.215736 267.032763 
L 189.604229 267.359257 
L 189.992723 267.683198 
L 190.381216 268.004577 
L 190.769709 268.323391 
L 191.158202 268.639638 
L 191.546696 268.953318 
L 191.935189 269.264428 
L 192.323682 269.572969 
L 192.712175 269.878939 
L 193.100669 270.182339 
L 193.489162 270.483167 
L 193.877655 270.781424 
L 194.266149 271.07711 
L 194.654642 271.370227 
L 195.043135 271.660773 
L 195.431628 271.948752 
L 195.820122 272.234164 
L 196.208615 272.51701 
L 196.597108 272.797293 
L 196.985601 273.075015 
L 197.374095 273.350177 
L 197.762588 273.622775 
L 198.151081 273.892827 
L 198.539574 274.160327 
L 198.928068 274.425281 
L 199.316561 274.68769 
L 199.705054 274.947559 
L 200.093547 275.204892 
L 200.482041 275.459693 
L 200.870534 275.711967 
L 201.259027 275.961718 
L 201.64752 276.208951 
L 202.036014 276.453672 
L 202.424507 276.695885 
L 202.813 276.935598 
L 203.201505 277.172815 
L 203.589998 277.407543 
L 203.978492 277.639788 
L 204.366985 277.869557 
L 204.755478 278.096856 
L 205.143971 278.321693 
L 205.532465 278.54407 
L 205.920958 278.764005 
L 206.309451 278.981501 
L 206.697944 279.196565 
L 207.086438 279.409205 
L 207.474931 279.619431 
L 207.863424 279.82725 
L 208.251918 280.032673 
L 208.640411 280.235706 
L 209.028904 280.436361 
L 209.417397 280.634646 
L 209.805891 280.830572 
L 210.194384 281.024147 
L 210.582877 281.215383 
L 210.97137 281.404289 
L 211.359864 281.590877 
L 211.748357 281.775156 
L 212.13685 281.957138 
L 212.525343 282.136835 
L 212.913837 282.314256 
L 213.30233 282.489414 
L 213.690823 282.662317 
L 214.079316 282.832984 
L 214.46781 283.001425 
L 214.856303 283.16765 
L 215.244796 283.331673 
L 215.633289 283.493506 
L 216.021783 283.653163 
L 216.410276 283.810656 
L 216.798769 283.965999 
L 217.187263 284.119206 
L 217.575756 284.270291 
L 217.964249 284.419267 
L 218.352742 284.566149 
L 218.741236 284.710952 
L 219.129729 284.853691 
L 219.518222 284.994381 
L 219.906715 285.133038 
L 220.295209 285.269678 
L 220.683702 285.404317 
L 221.072195 285.536973 
L 221.460688 285.667664 
L 221.849182 285.796403 
L 222.237675 285.923218 
L 222.626168 286.048124 
L 223.014661 286.171142 
L 223.403166 286.292301 
L 223.79166 286.411612 
L 224.180153 286.529105 
L 224.568646 286.644807 
L 224.957139 286.758748 
L 225.345633 286.870958 
L 225.734126 286.981474 
L 226.122619 287.090331 
L 226.511112 287.197573 
L 226.899606 287.303245 
L 227.288099 287.4074 
L 227.676592 287.510093 
L 228.065085 287.611385 
L 228.453579 287.711342 
L 228.842072 287.81003 
L 229.230565 287.907515 
L 229.619058 288.003854 
L 230.007552 288.099091 
L 230.396045 288.193252 
L 230.784538 288.286329 
L 231.173032 288.378285 
L 231.561525 288.469046 
L 231.950018 288.558515 
L 232.338511 288.646569 
L 232.727005 288.733072 
L 233.115498 288.817892 
L 233.503991 288.900897 
L 233.892484 288.981972 
L 234.280978 289.061009 
L 234.669471 289.137918 
L 235.057964 289.212622 
L 235.446457 289.285057 
L 235.834951 289.355168 
L 236.223444 289.422911 
L 236.611937 289.488251 
L 237.00043 289.55116 
L 237.388924 289.611614 
L 237.777417 289.669597 
L 238.16591 289.725094 
L 238.554404 289.778097 
L 238.942897 289.8286 
L 239.33139 289.876599 
L 239.719883 289.922093 
L 240.108377 289.965084 
L 240.49687 290.005576 
L 240.885363 290.043575 
L 241.273856 290.079086 
L 241.66235 290.112119 
L 242.050843 290.142686 
L 242.439336 290.170798 
L 242.827829 290.19647 
L 243.216334 290.21972 
L 243.604827 290.240567 
L 243.993321 290.259035 
L 244.381814 290.275155 
L 244.770307 290.288961 
L 245.158801 290.300503 
L 245.547294 290.309843 
L 245.935787 290.317071 
L 246.32428 290.322316 
L 246.712774 290.325772 
L 247.101267 290.327726 
L 247.48976 290.328587 
L 247.878253 290.32886 
L 248.266747 290.328982 
L 248.65524 290.329091 
L 249.043733 290.328955 
L 249.432226 290.328159 
L 249.82072 290.326312 
L 250.209213 290.323119 
L 250.597706 290.318378 
L 250.986199 290.311953 
L 251.374693 290.303752 
L 251.763186 290.29371 
L 252.151679 290.281778 
L 252.540173 290.26792 
L 252.928666 290.252104 
L 253.317159 290.234307 
L 253.705652 290.214506 
L 254.094146 290.192683 
L 254.482639 290.168819 
L 254.871132 290.142898 
L 255.259625 290.114903 
L 255.648119 290.084821 
L 256.036612 290.052634 
L 256.425105 290.018328 
L 256.813598 289.98189 
L 257.202092 289.943303 
L 257.590585 289.902555 
L 257.979078 289.859633 
L 258.367571 289.814521 
L 258.756065 289.767205 
L 259.144558 289.717673 
L 259.533051 289.665911 
L 259.921544 289.611908 
L 260.310038 289.555645 
L 260.698531 289.497111 
L 261.087024 289.436295 
L 261.475518 289.373182 
L 261.864011 289.307761 
L 262.252504 289.240019 
L 262.640997 289.169944 
L 263.029491 289.097524 
L 263.418007 289.022742 
L 263.8065 288.945596 
L 264.194994 288.866071 
L 264.583487 288.784155 
L 264.97198 288.699837 
L 265.360473 288.613109 
L 265.748967 288.523959 
L 266.13746 288.432377 
L 266.525953 288.338356 
L 266.914446 288.241884 
L 267.30294 288.142955 
L 267.691433 288.041559 
L 268.079926 287.937689 
L 268.468419 287.831338 
L 268.856913 287.722497 
L 269.245406 287.611161 
L 269.633899 287.497323 
L 270.022392 287.380978 
L 270.410886 287.262119 
L 270.799379 287.140743 
L 271.187872 287.016844 
L 271.576365 286.890418 
L 271.964859 286.761463 
L 272.353352 286.629974 
L 272.741845 286.495949 
L 273.130339 286.359385 
L 273.518832 286.220282 
L 273.907325 286.078638 
L 274.295818 285.934452 
L 274.684312 285.787725 
L 275.072805 285.638455 
L 275.461298 285.486644 
L 275.849791 285.332294 
L 276.238285 285.175407 
L 276.626778 285.015983 
L 277.015271 284.854028 
L 277.403764 284.689552 
L 277.792258 284.522542 
L 278.180751 284.353012 
L 278.569244 284.180966 
L 278.957737 284.00641 
L 279.346231 283.82935 
L 279.734724 283.649794 
L 280.123217 283.467747 
L 280.511711 283.283219 
L 280.900204 283.096218 
L 281.288697 282.906752 
L 281.67719 282.714832 
L 282.065684 282.520467 
L 282.454177 282.32367 
L 282.84267 282.12445 
L 283.231163 281.922821 
L 283.619657 281.718796 
L 284.00815 281.512388 
L 284.396643 281.303611 
L 284.785136 281.092482 
L 285.17363 280.879015 
L 285.562123 280.663227 
L 285.950616 280.445137 
L 286.339109 280.224763 
L 286.727603 280.002125 
L 287.116096 279.777243 
L 287.504589 279.550141 
L 287.893082 279.320841 
L 288.281576 279.089369 
L 288.670069 278.855751 
L 289.058562 278.620015 
L 289.447056 278.382194 
L 289.835549 278.142319 
L 290.224042 277.900427 
L 290.612535 277.656555 
L 291.001029 277.410748 
L 291.389522 277.16305 
L 291.778015 276.91351 
L 292.166508 276.662184 
L 292.555002 276.409129 
L 292.943495 276.154407 
L 293.331988 275.898083 
L 293.720481 275.640237 
L 294.108975 275.380906 
L 294.497468 275.120162 
L 294.885961 274.858056 
L 295.274454 274.594622 
L 295.662948 274.329877 
L 296.051441 274.063813 
L 296.439934 273.796398 
L 296.828428 273.527577 
L 297.216921 273.257276 
L 297.605414 272.985407 
L 297.993907 272.711877 
L 298.382401 272.436591 
L 298.770894 272.159456 
L 299.159387 271.880386 
L 299.54788 271.599302 
L 299.936374 271.316137 
L 300.324867 271.030828 
L 300.71336 270.743324 
L 301.101853 270.453581 
L 301.490347 270.161562 
L 301.87884 269.867236 
L 302.267333 269.570579 
L 302.655826 269.271573 
L 303.044343 268.970186 
L 303.432836 268.666441 
L 303.821329 268.360319 
L 304.209823 268.051818 
L 304.598316 267.740942 
L 304.986809 267.4277 
L 305.375302 267.112105 
L 305.763796 266.794177 
L 306.152289 266.473939 
L 306.540782 266.151424 
L 306.929275 265.826669 
L 307.317769 265.499722 
L 307.706262 265.17064 
L 308.094755 264.839493 
L 308.483248 264.50636 
L 308.871742 264.171337 
L 309.260235 263.834532 
L 309.648728 263.496067 
L 310.037222 263.156074 
L 310.425715 262.814691 
L 310.814208 262.472054 
L 311.202701 262.128303 
L 311.591195 261.783502 
L 311.979688 261.43774 
L 312.368181 261.09105 
L 312.756674 260.743433 
L 313.145168 260.394858 
L 313.533661 260.045273 
L 313.922154 259.69461 
L 314.310647 259.342798 
L 314.699141 258.98976 
L 315.087634 258.635425 
L 315.476127 258.279724 
L 315.86462 257.922593 
L 316.253114 257.563976 
L 316.641607 257.20382 
L 317.0301 256.842075 
L 317.418594 256.478699 
L 317.807087 256.113651 
L 318.19558 255.746894 
L 318.584073 255.378392 
L 318.972567 255.008113 
L 319.36106 254.636027 
L 319.749553 254.262103 
L 320.138046 253.886313 
L 320.52654 253.508631 
L 320.915033 253.12903 
L 321.303526 252.747486 
L 321.692019 252.363972 
L 322.080513 251.978466 
L 322.469006 251.590943 
L 322.857499 251.201379 
L 323.245992 250.809753 
L 323.634486 250.416042 
L 324.022979 250.020222 
L 324.411472 249.622273 
L 324.799965 249.222171 
L 325.188459 248.819896 
L 325.576952 248.415426 
L 325.965445 248.00874 
L 326.353939 247.599816 
L 326.742432 247.188634 
L 327.130925 246.775173 
L 327.519418 246.359435 
L 327.907912 245.941354 
L 328.296405 245.520933 
L 328.684898 245.098151 
L 329.073391 244.672988 
L 329.461885 244.245425 
L 329.850378 243.815442 
L 330.238871 243.38302 
L 330.627364 242.948139 
L 331.015858 242.510779 
L 331.404351 242.070923 
L 331.792844 241.628551 
L 332.181337 241.183645 
L 332.569831 240.736187 
L 332.958324 240.286157 
L 333.346817 239.833539 
L 333.735311 239.378315 
L 334.123804 238.920466 
L 334.512297 238.459976 
L 334.90079 237.996828 
L 335.289284 237.531005 
L 335.677777 237.06249 
L 336.06627 236.591266 
L 336.454763 236.117319 
L 336.843257 235.640631 
L 337.23175 235.161187 
L 337.620243 234.678973 
L 338.008736 234.193972 
L 338.39723 233.706171 
L 338.785723 233.215555 
L 339.174216 232.722109 
L 339.562709 232.22582 
L 339.951203 231.726674 
L 340.339696 231.224658 
L 340.728189 230.719759 
L 341.116682 230.211965 
L 341.505176 229.701262 
L 341.893669 229.18764 
L 342.282162 228.671086 
L 342.670679 228.151562 
L 343.059172 227.629112 
L 343.447665 227.103698 
L 343.836158 226.57531 
L 344.224652 226.043937 
L 344.613145 225.509571 
L 345.001638 224.972203 
L 345.390132 224.431852 
L 345.778625 223.888453 
L 346.167118 223.342027 
L 346.555611 222.792565 
L 346.944105 222.240062 
L 347.332598 221.68451 
L 347.721091 221.125904 
L 348.109584 220.564237 
L 348.498078 219.999505 
L 348.886571 219.431702 
L 349.275064 218.860824 
L 349.663557 218.286868 
L 350.052051 217.709829 
L 350.440544 217.129705 
L 350.829037 216.546493 
L 351.21753 215.960192 
L 351.606024 215.370801 
L 351.994517 214.778318 
L 352.38301 214.182744 
L 352.771503 213.584078 
L 353.159997 212.982323 
L 353.54849 212.37748 
L 353.936983 211.769552 
L 354.325477 211.158542 
L 354.71397 210.544454 
L 355.102463 209.927294 
L 355.490956 209.307069 
L 355.87945 208.683786 
L 356.267943 208.057454 
L 356.656436 207.428084 
L 357.044929 206.795689 
L 357.433423 206.160286 
L 357.821916 205.521892 
L 358.210409 204.880531 
L 358.598902 204.23623 
L 358.987396 203.589025 
L 359.375889 202.938962 
L 359.764382 202.286099 
L 360.152875 201.630516 
L 360.541369 200.972321 
L 360.929862 200.31167 
L 361.318355 199.648827 
L 361.706849 198.984069 
L 362.095342 198.317974 
L 362.483835 197.651411 
L 362.872328 196.985735 
L 363.260822 196.322866 
L 363.649315 195.664879 
L 364.037808 195.012869 
L 364.426301 194.366125 
L 364.814795 193.722795 
L 365.203288 193.081047 
L 365.591781 192.439549 
L 365.980274 191.79744 
L 366.368768 191.154173 
L 366.757261 190.509404 
L 367.145754 189.862901 
L 367.534247 189.214511 
L 367.922741 188.564125 
L 368.311234 187.911663 
L 368.699727 187.257066 
L 369.08822 186.600289 
L 369.476714 185.941295 
L 369.865207 185.280057 
L 370.2537 184.616549 
L 370.642194 183.950753 
L 371.030687 183.28265 
L 371.41918 182.612227 
L 371.807673 181.939469 
L 372.196167 181.264366 
L 372.58466 180.586907 
L 372.973153 179.907082 
L 373.361646 179.224884 
L 373.75014 178.540304 
L 374.138633 177.853336 
L 374.527126 177.163972 
L 374.915619 176.472206 
L 375.304113 175.778034 
L 375.692606 175.081449 
L 376.081099 174.382448 
L 376.469592 173.681025 
L 376.858086 172.977176 
L 377.246579 172.270898 
L 377.635072 171.562226 
L 378.023566 170.85108 
L 378.412059 170.137495 
L 378.800552 169.421468 
L 379.189045 168.702998 
L 379.577539 167.982082 
L 379.966032 167.258718 
L 380.354525 166.532905 
L 380.743018 165.804641 
L 381.131512 165.073926 
L 381.520005 164.340758 
L 381.908498 163.605137 
L 382.296991 162.867062 
L 382.685508 162.126493 
L 383.074001 161.383511 
L 383.462494 160.638075 
L 383.850988 159.890187 
L 384.239481 159.139846 
L 384.627974 158.387053 
L 385.016467 157.631811 
L 385.404961 156.87412 
L 385.793454 156.113981 
L 386.181947 155.351397 
L 386.57044 154.58637 
L 386.958934 153.818901 
L 387.347427 153.048993 
L 387.73592 152.276649 
L 388.124413 151.501871 
L 388.512907 150.724663 
L 388.9014 149.945027 
L 389.289893 149.162968 
L 389.678387 148.378488 
L 390.06688 147.591591 
L 390.455373 146.802282 
L 390.843866 146.010565 
L 391.23236 145.216443 
L 391.620853 144.419923 
L 392.009346 143.621007 
L 392.397839 142.819702 
L 392.786333 142.016012 
L 393.174826 141.209943 
L 393.563319 140.4015 
L 393.951812 139.590689 
L 394.340306 138.777516 
L 394.728799 137.961987 
L 395.117292 137.144108 
L 395.505785 136.32393 
L 395.894279 135.501371 
L 396.282772 134.676482 
L 396.671265 133.849269 
L 397.059758 133.019741 
L 397.448252 132.187904 
L 397.836745 131.353766 
L 398.225238 130.517334 
L 398.613732 129.678617 
L 399.002225 128.837622 
L 399.390718 127.994357 
L 399.779211 127.148832 
L 400.167705 126.301053 
L 400.556198 125.451031 
L 400.944691 124.598773 
L 401.333184 123.744289 
L 401.721678 122.887588 
L 402.110171 122.028679 
L 402.498664 121.167572 
L 402.887157 120.304276 
L 403.275651 119.438802 
L 403.664144 118.571158 
L 404.052637 117.701355 
L 404.44113 116.829404 
L 404.829624 115.955315 
L 405.218117 115.079097 
L 405.60661 114.200763 
L 405.995104 113.320323 
L 406.383597 112.437787 
L 406.77209 111.553167 
L 407.160583 110.666475 
L 407.549077 109.777721 
L 407.93757 108.886917 
L 408.326063 107.994074 
L 408.714556 107.099206 
L 409.10305 106.202323 
L 409.491543 105.303437 
L 409.880036 104.402562 
L 410.268529 103.499708 
L 410.657023 102.59489 
L 411.045516 101.688119 
L 411.434009 100.779457 
L 411.822502 99.868819 
L 412.210996 98.956266 
L 412.599489 98.041813 
L 412.987982 97.125472 
L 413.376475 96.207257 
L 413.764969 95.287181 
L 414.153462 94.365258 
L 414.541955 93.441501 
L 414.930449 92.515925 
L 415.318942 91.588543 
L 415.707435 90.659369 
L 416.095928 89.728417 
L 416.484422 88.795703 
L 416.872915 87.86124 
L 417.261408 86.925042 
L 417.649901 85.987125 
L 418.038395 85.047503 
L 418.426888 84.106191 
L 418.815381 83.163204 
L 419.203874 82.218558 
L 419.592368 81.272266 
L 419.980861 80.324345 
L 420.369354 79.37481 
L 420.757847 78.423677 
L 421.146341 77.470961 
L 421.534834 76.516677 
L 421.923327 75.560843 
L 422.311844 74.603422 
L 422.700337 73.644533 
L 423.08883 72.684143 
L 423.477323 71.722266 
L 423.865817 70.75892 
L 424.25431 69.794121 
L 424.642803 68.827887 
L 425.031296 67.860235 
L 425.41979 66.891183 
L 425.808283 65.920748 
L 426.196776 64.948949 
L 426.58527 63.975804 
L 426.973763 63.001334 
L 427.362256 62.025558 
L 427.750749 61.048498 
L 428.139243 60.070175 
L 428.527736 59.090614 
L 428.916229 58.109841 
L 429.304722 57.127939 
L 429.693216 56.144834 
L 430.081709 55.160622 
L 430.470202 54.175353 
L 430.858695 53.189092 
L 431.247189 52.201935 
L 431.635682 51.214021 
L 432.024175 50.225582 
L 432.412668 49.237036 
L 432.801162 48.249236 
L 433.189655 47.264216 
L 433.578148 46.287742 
L 433.966641 45.336665 
L 434.355135 44.433009 
L 434.743628 43.56429 
L 435.132121 42.709708 
L 435.520615 41.861229 
L 435.909108 41.016147 
L 436.297601 40.173402 
L 436.686094 39.332512 
L 437.074588 38.493233 
L 437.463081 37.655525 
L 437.851574 36.819129 
L 438.240067 35.984092 
L 438.628561 35.150389 
L 439.017054 34.318007 
L 439.405547 33.486937 
L 439.79404 32.657179 
L 440.182534 31.828733 
L 440.571027 31.001603 
L 440.95952 30.175795 
L 441.348013 29.351316 
L 441.736507 28.528172 
L 442.125 27.706371 
L 442.125 24.110909 
L 442.125 24.110909 
L 441.736507 25.124746 
L 441.348013 26.137872 
L 440.95952 27.15027 
L 440.571027 28.161917 
L 440.182534 29.172795 
L 439.79404 30.18288 
L 439.405547 31.192148 
L 439.017054 32.200573 
L 438.628561 33.208124 
L 438.240067 34.214767 
L 437.851574 35.220458 
L 437.463081 36.225143 
L 437.074588 37.22864 
L 436.686094 38.231062 
L 436.297601 39.232139 
L 435.909108 40.231596 
L 435.520615 41.228923 
L 435.132121 42.223028 
L 434.743628 43.211177 
L 434.355135 44.185303 
L 433.966641 45.124677 
L 433.578148 46.016583 
L 433.189655 46.883115 
L 432.801162 47.741092 
L 432.412668 48.596248 
L 432.024175 49.450586 
L 431.635682 50.304927 
L 431.247189 51.159656 
L 430.858695 52.014973 
L 430.470202 52.870985 
L 430.081709 53.727754 
L 429.693216 54.585314 
L 429.304722 55.443682 
L 428.916229 56.302818 
L 428.527736 57.162817 
L 428.139243 58.023628 
L 427.750749 58.885243 
L 427.362256 59.747653 
L 426.973763 60.610845 
L 426.58527 61.474807 
L 426.196776 62.339525 
L 425.808283 63.204983 
L 425.41979 64.071167 
L 425.031296 64.938059 
L 424.642803 65.805642 
L 424.25431 66.6739 
L 423.865817 67.542814 
L 423.477323 68.412367 
L 423.08883 69.28254 
L 422.700337 70.153314 
L 422.311844 71.024671 
L 421.923327 71.896638 
L 421.534834 72.769102 
L 421.146341 73.64209 
L 420.757847 74.515581 
L 420.369354 75.389556 
L 419.980861 76.263995 
L 419.592368 77.138877 
L 419.203874 78.014181 
L 418.815381 78.889886 
L 418.426888 79.765971 
L 418.038395 80.642416 
L 417.649901 81.519197 
L 417.261408 82.396295 
L 416.872915 83.273687 
L 416.484422 84.151351 
L 416.095928 85.029265 
L 415.707435 85.907407 
L 415.318942 86.785755 
L 414.930449 87.664286 
L 414.541955 88.542977 
L 414.153462 89.421806 
L 413.764969 90.30075 
L 413.376475 91.179786 
L 412.987982 92.058891 
L 412.599489 92.938041 
L 412.210996 93.817212 
L 411.822502 94.696383 
L 411.434009 95.575528 
L 411.045516 96.454577 
L 410.657023 97.3336 
L 410.268529 98.212528 
L 409.880036 99.091334 
L 409.491543 99.969995 
L 409.10305 100.848487 
L 408.714556 101.726786 
L 408.326063 102.604867 
L 407.93757 103.482705 
L 407.549077 104.360277 
L 407.160583 105.237556 
L 406.77209 106.114519 
L 406.383597 106.99114 
L 405.995104 107.867395 
L 405.60661 108.743258 
L 405.218117 109.618705 
L 404.829624 110.49371 
L 404.44113 111.368247 
L 404.052637 112.242293 
L 403.664144 113.115821 
L 403.275651 113.988805 
L 402.887157 114.861221 
L 402.498664 115.733043 
L 402.110171 116.604245 
L 401.721678 117.474801 
L 401.333184 118.344686 
L 400.944691 119.213875 
L 400.556198 120.08234 
L 400.167705 120.950058 
L 399.779211 121.817 
L 399.390718 122.683143 
L 399.002225 123.548459 
L 398.613732 124.412924 
L 398.225238 125.27651 
L 397.836745 126.139192 
L 397.448252 127.000944 
L 397.059758 127.86174 
L 396.671265 128.721553 
L 396.282772 129.580359 
L 395.894279 130.43813 
L 395.505785 131.29484 
L 395.117292 132.150418 
L 394.728799 133.00493 
L 394.340306 133.858303 
L 393.951812 134.710511 
L 393.563319 135.561528 
L 393.174826 136.411329 
L 392.786333 137.259887 
L 392.397839 138.107175 
L 392.009346 138.953169 
L 391.620853 139.797842 
L 391.23236 140.641169 
L 390.843866 141.483122 
L 390.455373 142.323677 
L 390.06688 143.162807 
L 389.678387 144.000487 
L 389.289893 144.836691 
L 388.9014 145.671393 
L 388.512907 146.504567 
L 388.124413 147.336188 
L 387.73592 148.16623 
L 387.347427 148.994668 
L 386.958934 149.821476 
L 386.57044 150.646629 
L 386.181947 151.470102 
L 385.793454 152.291868 
L 385.404961 153.111903 
L 385.016467 153.930182 
L 384.627974 154.74668 
L 384.239481 155.561371 
L 383.850988 156.374231 
L 383.462494 157.185235 
L 383.074001 157.994358 
L 382.685508 158.801576 
L 382.296991 159.606907 
L 381.908498 160.41024 
L 381.520005 161.211593 
L 381.131512 162.010944 
L 380.743018 162.808267 
L 380.354525 163.603538 
L 379.966032 164.396734 
L 379.577539 165.18783 
L 379.189045 165.976803 
L 378.800552 166.763629 
L 378.412059 167.548284 
L 378.023566 168.330745 
L 377.635072 169.110989 
L 377.246579 169.888949 
L 376.858086 170.664688 
L 376.469592 171.438139 
L 376.081099 172.20928 
L 375.692606 172.978087 
L 375.304113 173.744538 
L 374.915619 174.508609 
L 374.527126 175.270278 
L 374.138633 176.029522 
L 373.75014 176.786317 
L 373.361646 177.540641 
L 372.973153 178.29247 
L 372.58466 179.04178 
L 372.196167 179.788548 
L 371.807673 180.53275 
L 371.41918 181.274361 
L 371.030687 182.013354 
L 370.642194 182.749704 
L 370.2537 183.483383 
L 369.865207 184.21436 
L 369.476714 184.942603 
L 369.08822 185.668078 
L 368.699727 186.390742 
L 368.311234 187.110551 
L 367.922741 187.827447 
L 367.534247 188.541362 
L 367.145754 189.252207 
L 366.757261 189.959865 
L 366.368768 190.664171 
L 365.980274 191.364889 
L 365.591781 192.061665 
L 365.203288 192.753946 
L 364.814795 193.440865 
L 364.426301 194.121083 
L 364.037808 194.792762 
L 363.649315 195.454046 
L 363.260822 196.104221 
L 362.872328 196.744376 
L 362.483835 197.376584 
L 362.095342 198.002761 
L 361.706849 198.624261 
L 361.318355 199.241949 
L 360.929862 199.856336 
L 360.541369 200.467833 
L 360.152875 201.076637 
L 359.764382 201.682902 
L 359.375889 202.286738 
L 358.987396 202.888225 
L 358.598902 203.487424 
L 358.210409 204.084382 
L 357.821916 204.679136 
L 357.433423 205.271717 
L 357.044929 205.862151 
L 356.656436 206.450462 
L 356.267943 207.036667 
L 355.87945 207.620785 
L 355.490956 208.202831 
L 355.102463 208.78282 
L 354.71397 209.360764 
L 354.325477 209.936677 
L 353.936983 210.510568 
L 353.54849 211.08245 
L 353.159997 211.652333 
L 352.771503 212.220226 
L 352.38301 212.786139 
L 351.994517 213.35008 
L 351.606024 213.912059 
L 351.21753 214.472084 
L 350.829037 215.030162 
L 350.440544 215.586301 
L 350.052051 216.140509 
L 349.663557 216.692793 
L 349.275064 217.24316 
L 348.886571 217.791616 
L 348.498078 218.338168 
L 348.109584 218.882821 
L 347.721091 219.425582 
L 347.332598 219.966457 
L 346.944105 220.50545 
L 346.555611 221.042567 
L 346.167118 221.577813 
L 345.778625 222.111193 
L 345.390132 222.642712 
L 345.001638 223.172343 
L 344.613145 223.700151 
L 344.224652 224.226108 
L 343.836158 224.750219 
L 343.447665 225.272488 
L 343.059172 225.792917 
L 342.670679 226.311509 
L 342.282162 226.828294 
L 341.893669 227.34322 
L 341.505176 227.856316 
L 341.116682 228.367584 
L 340.728189 228.877026 
L 340.339696 229.384643 
L 339.951203 229.890437 
L 339.562709 230.394407 
L 339.174216 230.896556 
L 338.785723 231.396882 
L 338.39723 231.895387 
L 338.008736 232.392071 
L 337.620243 232.886932 
L 337.23175 233.37997 
L 336.843257 233.871185 
L 336.454763 234.360574 
L 336.06627 234.848138 
L 335.677777 235.333873 
L 335.289284 235.817778 
L 334.90079 236.299851 
L 334.512297 236.780089 
L 334.123804 237.25849 
L 333.735311 237.73505 
L 333.346817 238.209766 
L 332.958324 238.682634 
L 332.569831 239.15365 
L 332.181337 239.622811 
L 331.792844 240.090112 
L 331.404351 240.555548 
L 331.015858 241.019114 
L 330.627364 241.480804 
L 330.238871 241.940614 
L 329.850378 242.398536 
L 329.461885 242.854566 
L 329.073391 243.308696 
L 328.684898 243.760919 
L 328.296405 244.211229 
L 327.907912 244.659618 
L 327.519418 245.106077 
L 327.130925 245.550576 
L 326.742432 245.993154 
L 326.353939 246.433777 
L 325.965445 246.872438 
L 325.576952 247.309125 
L 325.188459 247.74383 
L 324.799965 248.176542 
L 324.411472 248.607251 
L 324.022979 249.035945 
L 323.634486 249.462613 
L 323.245992 249.887243 
L 322.857499 250.309822 
L 322.469006 250.730338 
L 322.080513 251.148777 
L 321.692019 251.565124 
L 321.303526 251.979366 
L 320.915033 252.391485 
L 320.52654 252.801466 
L 320.138046 253.209291 
L 319.749553 253.614942 
L 319.36106 254.018399 
L 318.972567 254.41964 
L 318.584073 254.818644 
L 318.19558 255.215384 
L 317.807087 255.609836 
L 317.418594 256.001968 
L 317.0301 256.39175 
L 316.641607 256.779146 
L 316.253114 257.164116 
L 315.86462 257.546616 
L 315.476127 257.926597 
L 315.087634 258.304005 
L 314.699141 258.67878 
L 314.310647 259.050855 
L 313.922154 259.420161 
L 313.533661 259.786624 
L 313.145168 260.150172 
L 312.756674 260.510739 
L 312.368181 260.868273 
L 311.979688 261.222744 
L 311.591195 261.574151 
L 311.202701 261.922526 
L 310.814208 262.26792 
L 310.425715 262.610468 
L 310.037222 262.950273 
L 309.648728 263.287466 
L 309.260235 263.622182 
L 308.871742 263.954549 
L 308.483248 264.284686 
L 308.094755 264.612695 
L 307.706262 264.938668 
L 307.317769 265.262681 
L 306.929275 265.584795 
L 306.540782 265.905063 
L 306.152289 266.223527 
L 305.763796 266.540218 
L 305.375302 266.855162 
L 304.986809 267.168376 
L 304.598316 267.479873 
L 304.209823 267.789658 
L 303.821329 268.097734 
L 303.432836 268.404097 
L 303.044343 268.708738 
L 302.655826 269.011662 
L 302.267333 269.31282 
L 301.87884 269.612204 
L 301.490347 269.90979 
L 301.101853 270.205543 
L 300.71336 270.499427 
L 300.324867 270.791396 
L 299.936374 271.081397 
L 299.54788 271.369372 
L 299.159387 271.655252 
L 298.770894 271.93896 
L 298.382401 272.220409 
L 297.993907 272.499506 
L 297.605414 272.776152 
L 297.216921 273.050243 
L 296.828428 273.321678 
L 296.439934 273.590363 
L 296.051441 273.856218 
L 295.662948 274.11918 
L 295.274454 274.379211 
L 294.885961 274.636298 
L 294.497468 274.890449 
L 294.108975 275.141695 
L 293.720481 275.39008 
L 293.331988 275.635644 
L 292.943495 275.878473 
L 292.555002 276.118615 
L 292.166508 276.356131 
L 291.778015 276.591077 
L 291.389522 276.823508 
L 291.001029 277.053473 
L 290.612535 277.281017 
L 290.224042 277.506184 
L 289.835549 277.729012 
L 289.447056 277.949536 
L 289.058562 278.167788 
L 288.670069 278.3838 
L 288.281576 278.597598 
L 287.893082 278.809209 
L 287.504589 279.018657 
L 287.116096 279.225964 
L 286.727603 279.431153 
L 286.339109 279.634243 
L 285.950616 279.835253 
L 285.562123 280.034201 
L 285.17363 280.231105 
L 284.785136 280.42598 
L 284.396643 280.618844 
L 284.00815 280.809709 
L 283.619657 280.998591 
L 283.231163 281.185503 
L 282.84267 281.370458 
L 282.454177 281.553469 
L 282.065684 281.734547 
L 281.67719 281.913703 
L 281.288697 282.090949 
L 280.900204 282.266293 
L 280.511711 282.439748 
L 280.123217 282.61132 
L 279.734724 282.781019 
L 279.346231 282.948854 
L 278.957737 283.114832 
L 278.569244 283.278961 
L 278.180751 283.441246 
L 277.792258 283.601695 
L 277.403764 283.760313 
L 277.015271 283.917098 
L 276.626778 284.072071 
L 276.238285 284.225229 
L 275.849791 284.376575 
L 275.461298 284.526113 
L 275.072805 284.673845 
L 274.684312 284.819776 
L 274.295818 284.963907 
L 273.907325 285.106239 
L 273.518832 285.246775 
L 273.130339 285.385515 
L 272.741845 285.522459 
L 272.353352 285.657608 
L 271.964859 285.790961 
L 271.576365 285.922517 
L 271.187872 286.052275 
L 270.799379 286.180234 
L 270.410886 286.306391 
L 270.022392 286.430744 
L 269.633899 286.553289 
L 269.245406 286.674024 
L 268.856913 286.792944 
L 268.468419 286.910045 
L 268.079926 287.025324 
L 267.691433 287.138774 
L 267.30294 287.250391 
L 266.914446 287.360169 
L 266.525953 287.468101 
L 266.13746 287.574181 
L 265.748967 287.678403 
L 265.360473 287.780759 
L 264.97198 287.881242 
L 264.583487 287.979843 
L 264.194994 288.076555 
L 263.8065 288.171369 
L 263.418007 288.264276 
L 263.029491 288.355273 
L 262.640997 288.444339 
L 262.252504 288.53147 
L 261.864011 288.616657 
L 261.475518 288.699888 
L 261.087024 288.781154 
L 260.698531 288.860444 
L 260.310038 288.937746 
L 259.921544 289.01305 
L 259.533051 289.086341 
L 259.144558 289.157614 
L 258.756065 289.226855 
L 258.367571 289.29405 
L 257.979078 289.359189 
L 257.590585 289.422259 
L 257.202092 289.483247 
L 256.813598 289.542142 
L 256.425105 289.598928 
L 256.036612 289.653595 
L 255.648119 289.706128 
L 255.259625 289.756513 
L 254.871132 289.804738 
L 254.482639 289.850788 
L 254.094146 289.894647 
L 253.705652 289.9363 
L 253.317159 289.975729 
L 252.928666 290.012916 
L 252.540173 290.047838 
L 252.151679 290.080473 
L 251.763186 290.11079 
L 251.374693 290.138752 
L 250.986199 290.164311 
L 250.597706 290.187401 
L 250.209213 290.20793 
L 249.82072 290.225763 
L 249.432226 290.240696 
L 249.043733 290.252435 
L 248.65524 290.260587 
L 248.266747 290.264738 
L 247.878253 290.264654 
L 247.48976 290.260472 
L 247.101267 290.252631 
L 246.712774 290.241632 
L 246.32428 290.227884 
L 245.935787 290.211674 
L 245.547294 290.193194 
L 245.158801 290.172574 
L 244.770307 290.1499 
L 244.381814 290.125236 
L 243.993321 290.098629 
L 243.604827 290.070114 
L 243.216334 290.03972 
L 242.827829 290.007468 
L 242.439336 289.973379 
L 242.050843 289.937469 
L 241.66235 289.89975 
L 241.273856 289.860235 
L 240.885363 289.818933 
L 240.49687 289.775851 
L 240.108377 289.730997 
L 239.719883 289.684375 
L 239.33139 289.635987 
L 238.942897 289.585832 
L 238.554404 289.53391 
L 238.16591 289.480215 
L 237.777417 289.424741 
L 237.388924 289.367477 
L 237.00043 289.308408 
L 236.611937 289.247517 
L 236.223444 289.184779 
L 235.834951 289.120165 
L 235.446457 289.053637 
L 235.057964 288.985151 
L 234.669471 288.914653 
L 234.280978 288.842075 
L 233.892484 288.767341 
L 233.503991 288.690357 
L 233.115498 288.611018 
L 232.727005 288.529205 
L 232.338511 288.444787 
L 231.950018 288.357629 
L 231.561525 288.267596 
L 231.173032 288.174568 
L 230.784538 288.078438 
L 230.396045 287.979135 
L 230.007552 287.876621 
L 229.619058 287.770889 
L 229.230565 287.661963 
L 228.842072 287.549885 
L 228.453579 287.434714 
L 228.065085 287.316514 
L 227.676592 287.19535 
L 227.288099 287.071288 
L 226.899606 286.944388 
L 226.511112 286.814706 
L 226.122619 286.682291 
L 225.734126 286.547191 
L 225.345633 286.409447 
L 224.957139 286.269096 
L 224.568646 286.126172 
L 224.180153 285.980707 
L 223.79166 285.832729 
L 223.403166 285.682264 
L 223.014661 285.529329 
L 222.626168 285.373964 
L 222.237675 285.216181 
L 221.849182 285.056002 
L 221.460688 284.893451 
L 221.072195 284.728538 
L 220.683702 284.561284 
L 220.295209 284.391708 
L 219.906715 284.219827 
L 219.518222 284.045657 
L 219.129729 283.869214 
L 218.741236 283.690513 
L 218.352742 283.509571 
L 217.964249 283.326402 
L 217.575756 283.14102 
L 217.187263 282.953441 
L 216.798769 282.763678 
L 216.410276 282.571746 
L 216.021783 282.377658 
L 215.633289 282.181428 
L 215.244796 281.983068 
L 214.856303 281.782593 
L 214.46781 281.580015 
L 214.079316 281.375347 
L 213.690823 281.168601 
L 213.30233 280.959796 
L 212.913837 280.748932 
L 212.525343 280.536028 
L 212.13685 280.321094 
L 211.748357 280.104143 
L 211.359864 279.885186 
L 210.97137 279.664234 
L 210.582877 279.441298 
L 210.194384 279.21639 
L 209.805891 278.98952 
L 209.417397 278.760699 
L 209.028904 278.529937 
L 208.640411 278.297243 
L 208.251918 278.062629 
L 207.863424 277.826104 
L 207.474931 277.587677 
L 207.086438 277.347358 
L 206.697944 277.105157 
L 206.309451 276.861081 
L 205.920958 276.61514 
L 205.532465 276.367342 
L 205.143971 276.117703 
L 204.755478 275.866217 
L 204.366985 275.612898 
L 203.978492 275.357755 
L 203.589998 275.100795 
L 203.201505 274.842026 
L 202.813 274.581454 
L 202.424507 274.319086 
L 202.036014 274.054929 
L 201.64752 273.788989 
L 201.259027 273.521272 
L 200.870534 273.251785 
L 200.482041 272.980533 
L 200.093547 272.707522 
L 199.705054 272.432756 
L 199.316561 272.156242 
L 198.928068 271.877983 
L 198.539574 271.597984 
L 198.151081 271.31625 
L 197.762588 271.032785 
L 197.374095 270.7476 
L 196.985601 270.460684 
L 196.597108 270.172047 
L 196.208615 269.881693 
L 195.820122 269.589625 
L 195.431628 269.295845 
L 195.043135 269.000356 
L 194.654642 268.703161 
L 194.266149 268.40426 
L 193.877655 268.103656 
L 193.489162 267.80135 
L 193.100669 267.497344 
L 192.712175 267.191639 
L 192.323682 266.884234 
L 191.935189 266.575132 
L 191.546696 266.264332 
L 191.158202 265.951834 
L 190.769709 265.637638 
L 190.381216 265.321744 
L 189.992723 265.004151 
L 189.604229 264.684859 
L 189.215736 264.363873 
L 188.827243 264.041178 
L 188.43875 263.716778 
L 188.050256 263.390672 
L 187.661763 263.062859 
L 187.27327 262.733336 
L 186.884777 262.402101 
L 186.496283 262.06915 
L 186.10779 261.734482 
L 185.719297 261.398092 
L 185.330803 261.059977 
L 184.94231 260.720135 
L 184.553817 260.37856 
L 184.165324 260.03525 
L 183.77683 259.690199 
L 183.388337 259.343403 
L 182.999832 258.99484 
L 182.611339 258.64454 
L 182.222846 258.292482 
L 181.834353 257.938659 
L 181.445859 257.583066 
L 181.057366 257.225697 
L 180.668873 256.866547 
L 180.28038 256.50561 
L 179.891886 256.142878 
L 179.503393 255.778357 
L 179.1149 255.412018 
L 178.726406 255.043867 
L 178.337913 254.673894 
L 177.94942 254.302095 
L 177.560927 253.92846 
L 177.172433 253.552984 
L 176.78394 253.175658 
L 176.395447 252.796474 
L 176.006954 252.415435 
L 175.61846 252.032513 
L 175.229967 251.647709 
L 174.841474 251.261016 
L 174.452981 250.872424 
L 174.064487 250.481926 
L 173.675994 250.089513 
L 173.287501 249.695176 
L 172.899008 249.298906 
L 172.510514 248.900694 
L 172.122021 248.500532 
L 171.733528 248.09841 
L 171.345035 247.694319 
L 170.956541 247.288249 
L 170.568048 246.880192 
L 170.179555 246.470138 
L 169.791061 246.058078 
L 169.402568 245.644001 
L 169.014075 245.227899 
L 168.625582 244.809768 
L 168.237088 244.389587 
L 167.848595 243.967352 
L 167.460102 243.543053 
L 167.071609 243.116681 
L 166.683115 242.688226 
L 166.294622 242.257678 
L 165.906129 241.825034 
L 165.517636 241.390272 
L 165.129142 240.953389 
L 164.740649 240.514375 
L 164.352156 240.07322 
L 163.963663 239.629915 
L 163.575169 239.184451 
L 163.186664 238.736804 
L 162.798171 238.286991 
L 162.409678 237.834989 
L 162.021185 237.380788 
L 161.632691 236.924378 
L 161.244198 236.465748 
L 160.855705 236.004895 
L 160.467212 235.541795 
L 160.078718 235.076441 
L 159.690225 234.608822 
L 159.301732 234.138924 
L 158.913239 233.666731 
L 158.524745 233.192225 
L 158.136252 232.715388 
L 157.747759 232.236195 
L 157.359266 231.754617 
L 156.970772 231.270625 
L 156.582279 230.784161 
L 156.193786 230.295173 
L 155.805292 229.803584 
L 155.416799 229.309291 
L 155.028306 228.812155 
L 154.639813 228.311988 
L 154.251319 227.808541 
L 153.862826 227.301493 
L 153.474333 226.790464 
L 153.08584 226.275072 
L 152.697346 225.755041 
L 152.308853 225.230288 
L 151.92036 224.701011 
L 151.531867 224.167589 
L 151.143373 223.630463 
L 150.75488 223.090041 
L 150.366387 222.546655 
L 149.977894 222.00056 
L 149.5894 221.451943 
L 149.200907 220.900943 
L 148.812414 220.347668 
L 148.423915 219.792171 
L 148.035421 219.234532 
L 147.646928 218.674787 
L 147.258435 218.112968 
L 146.869942 217.549105 
L 146.481448 216.983217 
L 146.092955 216.415323 
L 145.704462 215.845438 
L 145.315969 215.273575 
L 144.927475 214.699745 
L 144.538982 214.123965 
L 144.150489 213.546228 
L 143.761996 212.966551 
L 143.373502 212.384939 
L 142.985009 211.8014 
L 142.596516 211.21594 
L 142.208023 210.628564 
L 141.819529 210.039277 
L 141.431036 209.448085 
L 141.042543 208.854992 
L 140.654049 208.260002 
L 140.265556 207.663127 
L 139.877063 207.064356 
L 139.48857 206.463699 
L 139.100076 205.86116 
L 138.711583 205.256742 
L 138.323084 204.650438 
L 137.934591 204.042269 
L 137.546098 203.432229 
L 137.157604 202.820318 
L 136.769111 202.206538 
L 136.380618 201.590892 
L 135.992125 200.973388 
L 135.603631 200.35401 
L 135.215138 199.732768 
L 134.826645 199.109661 
L 134.438151 198.48469 
L 134.049658 197.857853 
L 133.661165 197.22915 
L 133.272672 196.59858 
L 132.884178 195.966142 
L 132.495685 195.331834 
L 132.107192 194.695653 
L 131.718699 194.057607 
L 131.330205 193.417674 
L 130.941712 192.775861 
L 130.553219 192.132163 
L 130.164726 191.486578 
L 129.776232 190.839101 
L 129.387739 190.189728 
L 128.999246 189.538453 
L 128.610753 188.885271 
L 128.222254 188.230168 
L 127.83376 187.573156 
L 127.445267 186.914227 
L 127.056774 186.253357 
L 126.66828 185.590548 
L 126.279787 184.925791 
L 125.891294 184.259079 
L 125.502801 183.590402 
L 125.114307 182.919751 
L 124.725814 182.247116 
L 124.337321 181.572491 
L 123.948828 180.895854 
L 123.560334 180.217199 
L 123.171841 179.536512 
L 122.783348 178.853778 
L 122.394855 178.168986 
L 122.006361 177.482111 
L 121.617868 176.793137 
L 121.229375 176.102044 
L 120.840882 175.408807 
L 120.452388 174.713406 
L 120.063895 174.015799 
L 119.675402 173.315954 
L 119.286908 172.61383 
L 118.898415 171.909374 
L 118.509916 171.202514 
L 118.121423 170.493192 
L 117.73293 169.781306 
L 117.344436 169.066724 
L 116.955943 168.349295 
L 116.56745 167.628819 
L 116.178957 166.905046 
L 115.790463 166.177674 
L 115.40197 165.446337 
L 115.013477 164.710667 
L 114.624984 163.970327 
L 114.23649 163.225101 
L 113.847997 162.474959 
L 113.459504 161.720045 
L 113.071011 160.960656 
L 112.682517 160.197148 
L 112.294024 159.429878 
L 111.905531 158.659166 
L 111.517037 157.885268 
L 111.128544 157.108408 
L 110.740051 156.328759 
L 110.351558 155.546466 
L 109.963064 154.76165 
L 109.574571 153.974398 
L 109.186078 153.184799 
L 108.797585 152.392925 
L 108.409086 151.598828 
L 108.020592 150.802588 
L 107.632099 150.004245 
L 107.243606 149.203855 
L 106.855113 148.401452 
L 106.466619 147.597084 
L 106.078126 146.790795 
L 105.689633 145.982624 
L 105.301139 145.172616 
L 104.912646 144.360798 
L 104.524153 143.547213 
L 104.13566 142.7319 
L 103.747166 141.914893 
L 103.358673 141.096235 
L 102.97018 140.275951 
L 102.581687 139.454083 
L 102.193193 138.630664 
L 101.8047 137.805735 
L 101.416207 136.979323 
L 101.027711 136.151462 
L 100.639217 135.3222 
L 100.250724 134.49156 
L 99.862231 133.659581 
L 99.473738 132.826299 
L 99.085244 131.991744 
L 98.696751 131.155955 
L 98.308258 130.31896 
L 97.919765 129.480798 
L 97.531271 128.641504 
L 97.142778 127.801107 
L 96.754285 126.959646 
L 96.365792 126.11715 
L 95.977295 125.273648 
L 95.588802 124.429189 
L 95.200309 123.583795 
L 94.811816 122.7375 
L 94.423322 121.890342 
L 94.034829 121.042346 
L 93.646336 120.193549 
L 93.257843 119.343985 
L 92.869349 118.49368 
L 92.480856 117.642672 
L 92.092363 116.790987 
L 91.70387 115.938658 
L 91.315376 115.085719 
L 90.92688 114.232188 
L 90.538387 113.378112 
L 90.149894 112.523512 
L 89.7614 111.668419 
L 89.372907 110.812859 
L 88.984414 109.956861 
L 88.595921 109.100451 
L 88.207427 108.243654 
L 87.818934 107.386497 
L 87.430441 106.529001 
L 87.041948 105.671189 
L 86.653454 104.813079 
L 86.264958 103.954683 
L 85.876465 103.096027 
L 85.487972 102.237111 
L 85.099478 101.37794 
L 84.710985 100.518507 
L 84.322492 99.658793 
L 83.933999 98.798762 
L 83.545505 97.93835 
L 83.157012 97.077453 
L 82.768519 96.215896 
L 82.380025 95.353394 
L 81.991532 94.489464 
L 81.603039 93.623283 
L 81.214543 92.753441 
L 80.82605 91.877707 
L 80.437556 90.993178 
L 80.049063 90.097707 
L 79.66057 89.191583 
L 79.272076 88.277 
L 78.883583 87.356283 
L 78.49509 86.431083 
L 78.106597 85.502424 
L 77.718103 84.570932 
L 77.329609 83.636993 
L 76.941115 82.700865 
L 76.552622 81.762718 
L 76.164129 80.822671 
L 75.775636 79.880818 
L 75.387142 78.937225 
L 74.998648 77.991946 
L 74.610154 77.045034 
L 74.221661 76.096525 
L 73.833168 75.146454 
L 73.444675 74.194849 
L 73.056181 73.241743 
L 72.667688 72.28716 
L 72.279193 71.331119 
L 71.8907 70.373655 
L 71.502207 69.414783 
L 71.113714 68.454526 
L 70.72522 67.492905 
L 70.336727 66.529939 
L 69.948232 65.565646 
L 69.559739 64.600053 
L 69.171246 63.633173 
L 68.782753 62.665026 
L 68.394259 61.695631 
L 68.005766 60.72501 
L 67.617271 59.753171 
L 67.228778 58.780146 
L 66.840285 57.805942 
L 66.451792 56.83058 
L 66.063298 55.854082 
L 65.674804 54.876455 
L 65.286311 53.897727 
L 64.897818 52.917914 
L 64.509324 51.937027 
L 64.120831 50.955091 
L 63.732337 49.972114 
L 63.343844 48.988119 
L 62.95535 48.003124 
L 62.566857 47.017139 
L 62.178364 46.030186 
L 61.78987 45.04228 
L 61.401376 44.053437 
L 61.012883 43.063675 
L 60.624389 42.07301 
L 60.235896 41.081457 
L 59.847402 40.089037 
L 59.458909 39.095759 
L 59.070415 38.101642 
L 58.681922 37.106705 
L 58.293428 36.110959 
L 57.904935 35.114422 
L 57.516442 34.117109 
L 57.127948 33.119037 
L 56.739454 32.120222 
L 56.350961 31.120678 
L 55.962467 30.120421 
L 55.573974 29.119468 
L 55.185481 28.117832 
L 54.796987 27.115537 
L 54.408493 26.112584 
L 54.02 25.108995 
z
" clip-path="url(#p9ba0fbbbde)" style="fill: #1f77b4; fill-opacity: 0.5"/>
   </g>
   <g id="PathCollection_1">
    <defs>
     <path id="m37b2ad4802" d="M 0 3 
C 0.795609 3 1.55874 2.683901 2.12132 2.12132 
C 2.683901 1.55874 3 0.795609 3 0 
C 3 -0.795609 2.683901 -1.55874 2.12132 -2.12132 
C 1.55874 -2.683901 0.795609 -3 0 -3 
C -0.795609 -3 -1.55874 -2.683901 -2.12132 -2.12132 
C -2.683901 -1.55874 -3 -0.795609 -3 0 
C -3 0.795609 -2.683901 1.55874 -2.12132 2.12132 
C -1.55874 2.683901 -0.795609 3 0 3 
z
" style="stroke: #000000"/>
    </defs>
    <g clip-path="url(#p9ba0fbbbde)">
     <use xlink:href="#m37b2ad4802" x="151.04625" y="223.577783" style="stroke: #000000"/>
     <use xlink:href="#m37b2ad4802" x="114.356841" y="163.566106" style="stroke: #000000"/>
     <use xlink:href="#m37b2ad4802" x="295.797481" y="274.136137" style="stroke: #000000"/>
     <use xlink:href="#m37b2ad4802" x="434.028159" y="45.083979" style="stroke: #000000"/>
     <use xlink:href="#m37b2ad4802" x="154.260245" y="227.925536" style="stroke: #000000"/>
     <use xlink:href="#m37b2ad4802" x="230.695002" y="288.160662" style="stroke: #000000"/>
     <use xlink:href="#m37b2ad4802" x="363.669574" y="195.527063" style="stroke: #000000"/>
     <use xlink:href="#m37b2ad4802" x="311.638277" y="261.633021" style="stroke: #000000"/>
     <use xlink:href="#m37b2ad4802" x="80.335751" y="90.863009" style="stroke: #000000"/>
     <use xlink:href="#m37b2ad4802" x="250.809611" y="290.243246" style="stroke: #000000"/>
     <use xlink:href="#m37b2ad4802" x="247.092341" y="290.290525" style="stroke: #000000"/>
     <use xlink:href="#m37b2ad4802" x="247.666639" y="290.296017" style="stroke: #000000"/>
     <use xlink:href="#m37b2ad4802" x="247.803155" y="290.296635" style="stroke: #000000"/>
     <use xlink:href="#m37b2ad4802" x="247.87641" y="290.296857" style="stroke: #000000"/>
     <use xlink:href="#m37b2ad4802" x="247.924438" y="290.296962" style="stroke: #000000"/>
     <use xlink:href="#m37b2ad4802" x="247.958785" y="290.297017" style="stroke: #000000"/>
     <use xlink:href="#m37b2ad4802" x="247.985273" y="290.297047" style="stroke: #000000"/>
     <use xlink:href="#m37b2ad4802" x="248.005358" y="290.297064" style="stroke: #000000"/>
     <use xlink:href="#m37b2ad4802" x="248.025054" y="290.297075" style="stroke: #000000"/>
     <use xlink:href="#m37b2ad4802" x="248.025054" y="290.297075" style="stroke: #000000"/>
    </g>
   </g>
   <g id="matplotlib.axis_1">
    <g id="xtick_1">
     <g id="line2d_1">
      <path d="M 54.02 303.64 
L 54.02 10.8 
" clip-path="url(#p9ba0fbbbde)" style="fill: none; stroke: #b0b0b0; stroke-width: 0.8; stroke-linecap: square"/>
     </g>
     <g id="line2d_2">
      <defs>
       <path id="m1c1a691da9" d="M 0 0 
L 0 3.5 
" style="stroke: #000000; stroke-width: 0.8"/>
      </defs>
      <g>
       <use xlink:href="#m1c1a691da9" x="54.02" y="303.64" style="stroke: #000000; stroke-width: 0.8"/>
      </g>
     </g>
     <g id="text_1">
      <!-- 0.0 -->
      <g transform="translate(46.068438 318.238437) scale(0.1 -0.1)">
       <defs>
        <path id="DejaVuSans-30" d="M 2034 4250 
Q 1547 4250 1301 3770 
Q 1056 3291 1056 2328 
Q 1056 1369 1301 889 
Q 1547 409 2034 409 
Q 2525 409 2770 889 
Q 3016 1369 3016 2328 
Q 3016 3291 2770 3770 
Q 2525 4250 2034 4250 
z
M 2034 4750 
Q 2819 4750 3233 4129 
Q 3647 3509 3647 2328 
Q 3647 1150 3233 529 
Q 2819 -91 2034 -91 
Q 1250 -91 836 529 
Q 422 1150 422 2328 
Q 422 3509 836 4129 
Q 1250 4750 2034 4750 
z
" transform="scale(0.015625)"/>
        <path id="DejaVuSans-2e" d="M 684 794 
L 1344 794 
L 1344 0 
L 684 0 
L 684 794 
z
" transform="scale(0.015625)"/>
       </defs>
       <use xlink:href="#DejaVuSans-30"/>
       <use xlink:href="#DejaVuSans-2e" x="63.623047"/>
       <use xlink:href="#DejaVuSans-30" x="95.410156"/>
      </g>
     </g>
    </g>
    <g id="xtick_2">
     <g id="line2d_3">
      <path d="M 102.533125 303.64 
L 102.533125 10.8 
" clip-path="url(#p9ba0fbbbde)" style="fill: none; stroke: #b0b0b0; stroke-width: 0.8; stroke-linecap: square"/>
     </g>
     <g id="line2d_4">
      <g>
       <use xlink:href="#m1c1a691da9" x="102.533125" y="303.64" style="stroke: #000000; stroke-width: 0.8"/>
      </g>
     </g>
     <g id="text_2">
      <!-- 0.5 -->
      <g transform="translate(94.581563 318.238437) scale(0.1 -0.1)">
       <defs>
        <path id="DejaVuSans-35" d="M 691 4666 
L 3169 4666 
L 3169 4134 
L 1269 4134 
L 1269 2991 
Q 1406 3038 1543 3061 
Q 1681 3084 1819 3084 
Q 2600 3084 3056 2656 
Q 3513 2228 3513 1497 
Q 3513 744 3044 326 
Q 2575 -91 1722 -91 
Q 1428 -91 1123 -41 
Q 819 9 494 109 
L 494 744 
Q 775 591 1075 516 
Q 1375 441 1709 441 
Q 2250 441 2565 725 
Q 2881 1009 2881 1497 
Q 2881 1984 2565 2268 
Q 2250 2553 1709 2553 
Q 1456 2553 1204 2497 
Q 953 2441 691 2322 
L 691 4666 
z
" transform="scale(0.015625)"/>
       </defs>
       <use xlink:href="#DejaVuSans-30"/>
       <use xlink:href="#DejaVuSans-2e" x="63.623047"/>
       <use xlink:href="#DejaVuSans-35" x="95.410156"/>
      </g>
     </g>
    </g>
    <g id="xtick_3">
     <g id="line2d_5">
      <path d="M 151.04625 303.64 
L 151.04625 10.8 
" clip-path="url(#p9ba0fbbbde)" style="fill: none; stroke: #b0b0b0; stroke-width: 0.8; stroke-linecap: square"/>
     </g>
     <g id="line2d_6">
      <g>
       <use xlink:href="#m1c1a691da9" x="151.04625" y="303.64" style="stroke: #000000; stroke-width: 0.8"/>
      </g>
     </g>
     <g id="text_3">
      <!-- 1.0 -->
      <g transform="translate(143.094688 318.238437) scale(0.1 -0.1)">
       <defs>
        <path id="DejaVuSans-31" d="M 794 531 
L 1825 531 
L 1825 4091 
L 703 3866 
L 703 4441 
L 1819 4666 
L 2450 4666 
L 2450 531 
L 3481 531 
L 3481 0 
L 794 0 
L 794 531 
z
" transform="scale(0.015625)"/>
       </defs>
       <use xlink:href="#DejaVuSans-31"/>
       <use xlink:href="#DejaVuSans-2e" x="63.623047"/>
       <use xlink:href="#DejaVuSans-30" x="95.410156"/>
      </g>
     </g>
    </g>
    <g id="xtick_4">
     <g id="line2d_7">
      <path d="M 199.559375 303.64 
L 199.559375 10.8 
" clip-path="url(#p9ba0fbbbde)" style="fill: none; stroke: #b0b0b0; stroke-width: 0.8; stroke-linecap: square"/>
     </g>
     <g id="line2d_8">
      <g>
       <use xlink:href="#m1c1a691da9" x="199.559375" y="303.64" style="stroke: #000000; stroke-width: 0.8"/>
      </g>
     </g>
     <g id="text_4">
      <!-- 1.5 -->
      <g transform="translate(191.607813 318.238437) scale(0.1 -0.1)">
       <use xlink:href="#DejaVuSans-31"/>
       <use xlink:href="#DejaVuSans-2e" x="63.623047"/>
       <use xlink:href="#DejaVuSans-35" x="95.410156"/>
      </g>
     </g>
    </g>
    <g id="xtick_5">
     <g id="line2d_9">
      <path d="M 248.0725 303.64 
L 248.0725 10.8 
" clip-path="url(#p9ba0fbbbde)" style="fill: none; stroke: #b0b0b0; stroke-width: 0.8; stroke-linecap: square"/>
     </g>
     <g id="line2d_10">
      <g>
       <use xlink:href="#m1c1a691da9" x="248.0725" y="303.64" style="stroke: #000000; stroke-width: 0.8"/>
      </g>
     </g>
     <g id="text_5">
      <!-- 2.0 -->
      <g transform="translate(240.120938 318.238437) scale(0.1 -0.1)">
       <defs>
        <path id="DejaVuSans-32" d="M 1228 531 
L 3431 531 
L 3431 0 
L 469 0 
L 469 531 
Q 828 903 1448 1529 
Q 2069 2156 2228 2338 
Q 2531 2678 2651 2914 
Q 2772 3150 2772 3378 
Q 2772 3750 2511 3984 
Q 2250 4219 1831 4219 
Q 1534 4219 1204 4116 
Q 875 4013 500 3803 
L 500 4441 
Q 881 4594 1212 4672 
Q 1544 4750 1819 4750 
Q 2544 4750 2975 4387 
Q 3406 4025 3406 3419 
Q 3406 3131 3298 2873 
Q 3191 2616 2906 2266 
Q 2828 2175 2409 1742 
Q 1991 1309 1228 531 
z
" transform="scale(0.015625)"/>
       </defs>
       <use xlink:href="#DejaVuSans-32"/>
       <use xlink:href="#DejaVuSans-2e" x="63.623047"/>
       <use xlink:href="#DejaVuSans-30" x="95.410156"/>
      </g>
     </g>
    </g>
    <g id="xtick_6">
     <g id="line2d_11">
      <path d="M 296.585625 303.64 
L 296.585625 10.8 
" clip-path="url(#p9ba0fbbbde)" style="fill: none; stroke: #b0b0b0; stroke-width: 0.8; stroke-linecap: square"/>
     </g>
     <g id="line2d_12">
      <g>
       <use xlink:href="#m1c1a691da9" x="296.585625" y="303.64" style="stroke: #000000; stroke-width: 0.8"/>
      </g>
     </g>
     <g id="text_6">
      <!-- 2.5 -->
      <g transform="translate(288.634062 318.238437) scale(0.1 -0.1)">
       <use xlink:href="#DejaVuSans-32"/>
       <use xlink:href="#DejaVuSans-2e" x="63.623047"/>
       <use xlink:href="#DejaVuSans-35" x="95.410156"/>
      </g>
     </g>
    </g>
    <g id="xtick_7">
     <g id="line2d_13">
      <path d="M 345.09875 303.64 
L 345.09875 10.8 
" clip-path="url(#p9ba0fbbbde)" style="fill: none; stroke: #b0b0b0; stroke-width: 0.8; stroke-linecap: square"/>
     </g>
     <g id="line2d_14">
      <g>
       <use xlink:href="#m1c1a691da9" x="345.09875" y="303.64" style="stroke: #000000; stroke-width: 0.8"/>
      </g>
     </g>
     <g id="text_7">
      <!-- 3.0 -->
      <g transform="translate(337.147187 318.238437) scale(0.1 -0.1)">
       <defs>
        <path id="DejaVuSans-33" d="M 2597 2516 
Q 3050 2419 3304 2112 
Q 3559 1806 3559 1356 
Q 3559 666 3084 287 
Q 2609 -91 1734 -91 
Q 1441 -91 1130 -33 
Q 819 25 488 141 
L 488 750 
Q 750 597 1062 519 
Q 1375 441 1716 441 
Q 2309 441 2620 675 
Q 2931 909 2931 1356 
Q 2931 1769 2642 2001 
Q 2353 2234 1838 2234 
L 1294 2234 
L 1294 2753 
L 1863 2753 
Q 2328 2753 2575 2939 
Q 2822 3125 2822 3475 
Q 2822 3834 2567 4026 
Q 2313 4219 1838 4219 
Q 1578 4219 1281 4162 
Q 984 4106 628 3988 
L 628 4550 
Q 988 4650 1302 4700 
Q 1616 4750 1894 4750 
Q 2613 4750 3031 4423 
Q 3450 4097 3450 3541 
Q 3450 3153 3228 2886 
Q 3006 2619 2597 2516 
z
" transform="scale(0.015625)"/>
       </defs>
       <use xlink:href="#DejaVuSans-33"/>
       <use xlink:href="#DejaVuSans-2e" x="63.623047"/>
       <use xlink:href="#DejaVuSans-30" x="95.410156"/>
      </g>
     </g>
    </g>
    <g id="xtick_8">
     <g id="line2d_15">
      <path d="M 393.611875 303.64 
L 393.611875 10.8 
" clip-path="url(#p9ba0fbbbde)" style="fill: none; stroke: #b0b0b0; stroke-width: 0.8; stroke-linecap: square"/>
     </g>
     <g id="line2d_16">
      <g>
       <use xlink:href="#m1c1a691da9" x="393.611875" y="303.64" style="stroke: #000000; stroke-width: 0.8"/>
      </g>
     </g>
     <g id="text_8">
      <!-- 3.5 -->
      <g transform="translate(385.660312 318.238437) scale(0.1 -0.1)">
       <use xlink:href="#DejaVuSans-33"/>
       <use xlink:href="#DejaVuSans-2e" x="63.623047"/>
       <use xlink:href="#DejaVuSans-35" x="95.410156"/>
      </g>
     </g>
    </g>
    <g id="xtick_9">
     <g id="line2d_17">
      <path d="M 442.125 303.64 
L 442.125 10.8 
" clip-path="url(#p9ba0fbbbde)" style="fill: none; stroke: #b0b0b0; stroke-width: 0.8; stroke-linecap: square"/>
     </g>
     <g id="line2d_18">
      <g>
       <use xlink:href="#m1c1a691da9" x="442.125" y="303.64" style="stroke: #000000; stroke-width: 0.8"/>
      </g>
     </g>
     <g id="text_9">
      <!-- 4.0 -->
      <g transform="translate(434.173437 318.238437) scale(0.1 -0.1)">
       <defs>
        <path id="DejaVuSans-34" d="M 2419 4116 
L 825 1625 
L 2419 1625 
L 2419 4116 
z
M 2253 4666 
L 3047 4666 
L 3047 1625 
L 3713 1625 
L 3713 1100 
L 3047 1100 
L 3047 0 
L 2419 0 
L 2419 1100 
L 313 1100 
L 313 1709 
L 2253 4666 
z
" transform="scale(0.015625)"/>
       </defs>
       <use xlink:href="#DejaVuSans-34"/>
       <use xlink:href="#DejaVuSans-2e" x="63.623047"/>
       <use xlink:href="#DejaVuSans-30" x="95.410156"/>
      </g>
     </g>
    </g>
    <g id="text_10">
     <!-- a -->
     <g transform="translate(245.008438 331.916562) scale(0.1 -0.1)">
      <defs>
       <path id="DejaVuSans-61" d="M 2194 1759 
Q 1497 1759 1228 1600 
Q 959 1441 959 1056 
Q 959 750 1161 570 
Q 1363 391 1709 391 
Q 2188 391 2477 730 
Q 2766 1069 2766 1631 
L 2766 1759 
L 2194 1759 
z
M 3341 1997 
L 3341 0 
L 2766 0 
L 2766 531 
Q 2569 213 2275 61 
Q 1981 -91 1556 -91 
Q 1019 -91 701 211 
Q 384 513 384 1019 
Q 384 1609 779 1909 
Q 1175 2209 1959 2209 
L 2766 2209 
L 2766 2266 
Q 2766 2663 2505 2880 
Q 2244 3097 1772 3097 
Q 1472 3097 1187 3025 
Q 903 2953 641 2809 
L 641 3341 
Q 956 3463 1253 3523 
Q 1550 3584 1831 3584 
Q 2591 3584 2966 3190 
Q 3341 2797 3341 1997 
z
" transform="scale(0.015625)"/>
      </defs>
      <use xlink:href="#DejaVuSans-61"/>
     </g>
    </g>
   </g>
   <g id="matplotlib.axis_2">
    <g id="ytick_1">
     <g id="line2d_19">
      <path d="M 54.02 290.297088 
L 442.125 290.297088 
" clip-path="url(#p9ba0fbbbde)" style="fill: none; stroke: #b0b0b0; stroke-width: 0.8; stroke-linecap: square"/>
     </g>
     <g id="line2d_20">
      <defs>
       <path id="mfccd00d6c2" d="M 0 0 
L -3.5 0 
" style="stroke: #000000; stroke-width: 0.8"/>
      </defs>
      <g>
       <use xlink:href="#mfccd00d6c2" x="54.02" y="290.297088" style="stroke: #000000; stroke-width: 0.8"/>
      </g>
     </g>
     <g id="text_11">
      <!-- 0.00 -->
      <g transform="translate(24.754375 294.096307) scale(0.1 -0.1)">
       <use xlink:href="#DejaVuSans-30"/>
       <use xlink:href="#DejaVuSans-2e" x="63.623047"/>
       <use xlink:href="#DejaVuSans-30" x="95.410156"/>
       <use xlink:href="#DejaVuSans-30" x="159.033203"/>
      </g>
     </g>
    </g>
    <g id="ytick_2">
     <g id="line2d_21">
      <path d="M 54.02 251.755493 
L 442.125 251.755493 
" clip-path="url(#p9ba0fbbbde)" style="fill: none; stroke: #b0b0b0; stroke-width: 0.8; stroke-linecap: square"/>
     </g>
     <g id="line2d_22">
      <g>
       <use xlink:href="#mfccd00d6c2" x="54.02" y="251.755493" style="stroke: #000000; stroke-width: 0.8"/>
      </g>
     </g>
     <g id="text_12">
      <!-- 0.25 -->
      <g transform="translate(24.754375 255.554712) scale(0.1 -0.1)">
       <use xlink:href="#DejaVuSans-30"/>
       <use xlink:href="#DejaVuSans-2e" x="63.623047"/>
       <use xlink:href="#DejaVuSans-32" x="95.410156"/>
       <use xlink:href="#DejaVuSans-35" x="159.033203"/>
      </g>
     </g>
    </g>
    <g id="ytick_3">
     <g id="line2d_23">
      <path d="M 54.02 213.213898 
L 442.125 213.213898 
" clip-path="url(#p9ba0fbbbde)" style="fill: none; stroke: #b0b0b0; stroke-width: 0.8; stroke-linecap: square"/>
     </g>
     <g id="line2d_24">
      <g>
       <use xlink:href="#mfccd00d6c2" x="54.02" y="213.213898" style="stroke: #000000; stroke-width: 0.8"/>
      </g>
     </g>
     <g id="text_13">
      <!-- 0.50 -->
      <g transform="translate(24.754375 217.013117) scale(0.1 -0.1)">
       <use xlink:href="#DejaVuSans-30"/>
       <use xlink:href="#DejaVuSans-2e" x="63.623047"/>
       <use xlink:href="#DejaVuSans-35" x="95.410156"/>
       <use xlink:href="#DejaVuSans-30" x="159.033203"/>
      </g>
     </g>
    </g>
    <g id="ytick_4">
     <g id="line2d_25">
      <path d="M 54.02 174.672303 
L 442.125 174.672303 
" clip-path="url(#p9ba0fbbbde)" style="fill: none; stroke: #b0b0b0; stroke-width: 0.8; stroke-linecap: square"/>
     </g>
     <g id="line2d_26">
      <g>
       <use xlink:href="#mfccd00d6c2" x="54.02" y="174.672303" style="stroke: #000000; stroke-width: 0.8"/>
      </g>
     </g>
     <g id="text_14">
      <!-- 0.75 -->
      <g transform="translate(24.754375 178.471522) scale(0.1 -0.1)">
       <defs>
        <path id="DejaVuSans-37" d="M 525 4666 
L 3525 4666 
L 3525 4397 
L 1831 0 
L 1172 0 
L 2766 4134 
L 525 4134 
L 525 4666 
z
" transform="scale(0.015625)"/>
       </defs>
       <use xlink:href="#DejaVuSans-30"/>
       <use xlink:href="#DejaVuSans-2e" x="63.623047"/>
       <use xlink:href="#DejaVuSans-37" x="95.410156"/>
       <use xlink:href="#DejaVuSans-35" x="159.033203"/>
      </g>
     </g>
    </g>
    <g id="ytick_5">
     <g id="line2d_27">
      <path d="M 54.02 136.130708 
L 442.125 136.130708 
" clip-path="url(#p9ba0fbbbde)" style="fill: none; stroke: #b0b0b0; stroke-width: 0.8; stroke-linecap: square"/>
     </g>
     <g id="line2d_28">
      <g>
       <use xlink:href="#mfccd00d6c2" x="54.02" y="136.130708" style="stroke: #000000; stroke-width: 0.8"/>
      </g>
     </g>
     <g id="text_15">
      <!-- 1.00 -->
      <g transform="translate(24.754375 139.929926) scale(0.1 -0.1)">
       <use xlink:href="#DejaVuSans-31"/>
       <use xlink:href="#DejaVuSans-2e" x="63.623047"/>
       <use xlink:href="#DejaVuSans-30" x="95.410156"/>
       <use xlink:href="#DejaVuSans-30" x="159.033203"/>
      </g>
     </g>
    </g>
    <g id="ytick_6">
     <g id="line2d_29">
      <path d="M 54.02 97.589113 
L 442.125 97.589113 
" clip-path="url(#p9ba0fbbbde)" style="fill: none; stroke: #b0b0b0; stroke-width: 0.8; stroke-linecap: square"/>
     </g>
     <g id="line2d_30">
      <g>
       <use xlink:href="#mfccd00d6c2" x="54.02" y="97.589113" style="stroke: #000000; stroke-width: 0.8"/>
      </g>
     </g>
     <g id="text_16">
      <!-- 1.25 -->
      <g transform="translate(24.754375 101.388331) scale(0.1 -0.1)">
       <use xlink:href="#DejaVuSans-31"/>
       <use xlink:href="#DejaVuSans-2e" x="63.623047"/>
       <use xlink:href="#DejaVuSans-32" x="95.410156"/>
       <use xlink:href="#DejaVuSans-35" x="159.033203"/>
      </g>
     </g>
    </g>
    <g id="ytick_7">
     <g id="line2d_31">
      <path d="M 54.02 59.047517 
L 442.125 59.047517 
" clip-path="url(#p9ba0fbbbde)" style="fill: none; stroke: #b0b0b0; stroke-width: 0.8; stroke-linecap: square"/>
     </g>
     <g id="line2d_32">
      <g>
       <use xlink:href="#mfccd00d6c2" x="54.02" y="59.047517" style="stroke: #000000; stroke-width: 0.8"/>
      </g>
     </g>
     <g id="text_17">
      <!-- 1.50 -->
      <g transform="translate(24.754375 62.846736) scale(0.1 -0.1)">
       <use xlink:href="#DejaVuSans-31"/>
       <use xlink:href="#DejaVuSans-2e" x="63.623047"/>
       <use xlink:href="#DejaVuSans-35" x="95.410156"/>
       <use xlink:href="#DejaVuSans-30" x="159.033203"/>
      </g>
     </g>
    </g>
    <g id="ytick_8">
     <g id="line2d_33">
      <path d="M 54.02 20.505922 
L 442.125 20.505922 
" clip-path="url(#p9ba0fbbbde)" style="fill: none; stroke: #b0b0b0; stroke-width: 0.8; stroke-linecap: square"/>
     </g>
     <g id="line2d_34">
      <g>
       <use xlink:href="#mfccd00d6c2" x="54.02" y="20.505922" style="stroke: #000000; stroke-width: 0.8"/>
      </g>
     </g>
     <g id="text_18">
      <!-- 1.75 -->
      <g transform="translate(24.754375 24.305141) scale(0.1 -0.1)">
       <use xlink:href="#DejaVuSans-31"/>
       <use xlink:href="#DejaVuSans-2e" x="63.623047"/>
       <use xlink:href="#DejaVuSans-37" x="95.410156"/>
       <use xlink:href="#DejaVuSans-35" x="159.033203"/>
      </g>
     </g>
    </g>
    <g id="text_19">
     <!-- Objective -->
     <g transform="translate(18.674688 180.930156) rotate(-90) scale(0.1 -0.1)">
      <defs>
       <path id="DejaVuSans-4f" d="M 2522 4238 
Q 1834 4238 1429 3725 
Q 1025 3213 1025 2328 
Q 1025 1447 1429 934 
Q 1834 422 2522 422 
Q 3209 422 3611 934 
Q 4013 1447 4013 2328 
Q 4013 3213 3611 3725 
Q 3209 4238 2522 4238 
z
M 2522 4750 
Q 3503 4750 4090 4092 
Q 4678 3434 4678 2328 
Q 4678 1225 4090 567 
Q 3503 -91 2522 -91 
Q 1538 -91 948 565 
Q 359 1222 359 2328 
Q 359 3434 948 4092 
Q 1538 4750 2522 4750 
z
" transform="scale(0.015625)"/>
       <path id="DejaVuSans-62" d="M 3116 1747 
Q 3116 2381 2855 2742 
Q 2594 3103 2138 3103 
Q 1681 3103 1420 2742 
Q 1159 2381 1159 1747 
Q 1159 1113 1420 752 
Q 1681 391 2138 391 
Q 2594 391 2855 752 
Q 3116 1113 3116 1747 
z
M 1159 2969 
Q 1341 3281 1617 3432 
Q 1894 3584 2278 3584 
Q 2916 3584 3314 3078 
Q 3713 2572 3713 1747 
Q 3713 922 3314 415 
Q 2916 -91 2278 -91 
Q 1894 -91 1617 61 
Q 1341 213 1159 525 
L 1159 0 
L 581 0 
L 581 4863 
L 1159 4863 
L 1159 2969 
z
" transform="scale(0.015625)"/>
       <path id="DejaVuSans-6a" d="M 603 3500 
L 1178 3500 
L 1178 -63 
Q 1178 -731 923 -1031 
Q 669 -1331 103 -1331 
L -116 -1331 
L -116 -844 
L 38 -844 
Q 366 -844 484 -692 
Q 603 -541 603 -63 
L 603 3500 
z
M 603 4863 
L 1178 4863 
L 1178 4134 
L 603 4134 
L 603 4863 
z
" transform="scale(0.015625)"/>
       <path id="DejaVuSans-65" d="M 3597 1894 
L 3597 1613 
L 953 1613 
Q 991 1019 1311 708 
Q 1631 397 2203 397 
Q 2534 397 2845 478 
Q 3156 559 3463 722 
L 3463 178 
Q 3153 47 2828 -22 
Q 2503 -91 2169 -91 
Q 1331 -91 842 396 
Q 353 884 353 1716 
Q 353 2575 817 3079 
Q 1281 3584 2069 3584 
Q 2775 3584 3186 3129 
Q 3597 2675 3597 1894 
z
M 3022 2063 
Q 3016 2534 2758 2815 
Q 2500 3097 2075 3097 
Q 1594 3097 1305 2825 
Q 1016 2553 972 2059 
L 3022 2063 
z
" transform="scale(0.015625)"/>
       <path id="DejaVuSans-63" d="M 3122 3366 
L 3122 2828 
Q 2878 2963 2633 3030 
Q 2388 3097 2138 3097 
Q 1578 3097 1268 2742 
Q 959 2388 959 1747 
Q 959 1106 1268 751 
Q 1578 397 2138 397 
Q 2388 397 2633 464 
Q 2878 531 3122 666 
L 3122 134 
Q 2881 22 2623 -34 
Q 2366 -91 2075 -91 
Q 1284 -91 818 406 
Q 353 903 353 1747 
Q 353 2603 823 3093 
Q 1294 3584 2113 3584 
Q 2378 3584 2631 3529 
Q 2884 3475 3122 3366 
z
" transform="scale(0.015625)"/>
       <path id="DejaVuSans-74" d="M 1172 4494 
L 1172 3500 
L 2356 3500 
L 2356 3053 
L 1172 3053 
L 1172 1153 
Q 1172 725 1289 603 
Q 1406 481 1766 481 
L 2356 481 
L 2356 0 
L 1766 0 
Q 1100 0 847 248 
Q 594 497 594 1153 
L 594 3053 
L 172 3053 
L 172 3500 
L 594 3500 
L 594 4494 
L 1172 4494 
z
" transform="scale(0.015625)"/>
       <path id="DejaVuSans-69" d="M 603 3500 
L 1178 3500 
L 1178 0 
L 603 0 
L 603 3500 
z
M 603 4863 
L 1178 4863 
L 1178 4134 
L 603 4134 
L 603 4863 
z
" transform="scale(0.015625)"/>
       <path id="DejaVuSans-76" d="M 191 3500 
L 800 3500 
L 1894 563 
L 2988 3500 
L 3597 3500 
L 2284 0 
L 1503 0 
L 191 3500 
z
" transform="scale(0.015625)"/>
      </defs>
      <use xlink:href="#DejaVuSans-4f"/>
      <use xlink:href="#DejaVuSans-62" x="78.710938"/>
      <use xlink:href="#DejaVuSans-6a" x="142.1875"/>
      <use xlink:href="#DejaVuSans-65" x="169.970703"/>
      <use xlink:href="#DejaVuSans-63" x="231.494141"/>
      <use xlink:href="#DejaVuSans-74" x="286.474609"/>
      <use xlink:href="#DejaVuSans-69" x="325.683594"/>
      <use xlink:href="#DejaVuSans-76" x="353.466797"/>
      <use xlink:href="#DejaVuSans-65" x="412.646484"/>
     </g>
    </g>
   </g>
   <g id="line2d_35">
    <path d="M 54.02 29.677152 
L 85.876465 103.481739 
L 94.034829 121.639891 
L 101.027711 136.673596 
L 107.243606 149.527517 
L 113.071011 161.081387 
L 118.509916 171.397325 
L 123.948828 181.246693 
L 129.387739 190.62879 
L 134.826645 199.552636 
L 140.265556 208.032785 
L 145.704462 216.085118 
L 151.143373 223.722787 
L 156.193786 230.449298 
L 161.244198 236.823735 
L 166.294622 242.844946 
L 171.345035 248.511667 
L 176.006954 253.426785 
L 180.668873 258.037785 
L 185.330803 262.343753 
L 189.992723 266.343675 
L 194.654642 270.036694 
L 198.928068 273.151632 
L 203.201505 276.00742 
L 207.474931 278.603554 
L 211.748357 280.939649 
L 216.021783 283.01541 
L 220.295209 284.830693 
L 224.568646 286.38549 
L 228.453579 287.573028 
L 232.338511 288.545678 
L 236.223444 289.303845 
L 240.108377 289.848041 
L 243.993321 290.178832 
L 247.878253 290.296757 
L 251.763186 290.20225 
L 255.648119 289.895474 
L 259.533051 289.376126 
L 263.418007 288.643509 
L 267.30294 287.696673 
L 271.187872 286.53456 
L 275.072805 285.15615 
L 278.957737 283.560621 
L 283.231163 281.554162 
L 287.504589 279.284399 
L 291.778015 276.752294 
L 296.051441 273.960016 
L 300.324867 270.911112 
L 304.986809 267.298038 
L 309.648728 263.391766 
L 314.310647 259.196826 
L 318.972567 254.713877 
L 323.634486 249.939327 
L 328.296405 244.866081 
L 332.958324 239.484396 
L 337.620243 233.782952 
L 342.282162 227.74969 
L 346.944105 221.372756 
L 351.606024 214.64143 
L 356.656436 206.939273 
L 361.706849 198.804165 
L 366.757261 190.234634 
L 371.807673 181.23611 
L 377.246579 171.079924 
L 382.685508 160.464035 
L 388.512907 148.614615 
L 394.728799 135.483458 
L 401.721678 120.181195 
L 409.491543 102.636716 
L 419.203874 80.116369 
L 433.966641 45.230671 
L 442.125 25.90864 
L 442.125 25.90864 
" clip-path="url(#p9ba0fbbbde)" style="fill: none; stroke: #1f77b4; stroke-width: 1.5; stroke-linecap: square"/>
   </g>
   <g id="patch_3">
    <path d="M 54.02 303.64 
L 54.02 10.8 
" style="fill: none; stroke: #000000; stroke-width: 0.8; stroke-linejoin: miter; stroke-linecap: square"/>
   </g>
   <g id="patch_4">
    <path d="M 442.125 303.64 
L 442.125 10.8 
" style="fill: none; stroke: #000000; stroke-width: 0.8; stroke-linejoin: miter; stroke-linecap: square"/>
   </g>
   <g id="patch_5">
    <path d="M 54.02 303.64 
L 442.125 303.64 
" style="fill: none; stroke: #000000; stroke-width: 0.8; stroke-linejoin: miter; stroke-linecap: square"/>
   </g>
   <g id="patch_6">
    <path d="M 54.02 10.8 
L 442.125 10.8 
" style="fill: none; stroke: #000000; stroke-width: 0.8; stroke-linejoin: miter; stroke-linecap: square"/>
   </g>
   <g id="legend_1">
    <g id="patch_7">
     <path d="M 183.190469 48.15625 
L 312.954531 48.15625 
Q 314.954531 48.15625 314.954531 46.15625 
L 314.954531 17.8 
Q 314.954531 15.8 312.954531 15.8 
L 183.190469 15.8 
Q 181.190469 15.8 181.190469 17.8 
L 181.190469 46.15625 
Q 181.190469 48.15625 183.190469 48.15625 
z
" style="fill: #ffffff; opacity: 0.8; stroke: #cccccc; stroke-linejoin: miter"/>
    </g>
    <g id="line2d_36">
     <path d="M 185.190469 23.898438 
L 195.190469 23.898438 
L 205.190469 23.898438 
" style="fill: none; stroke: #1f77b4; stroke-width: 1.5; stroke-linecap: square"/>
    </g>
    <g id="text_20">
     <!-- Objective: Mean -->
     <g transform="translate(213.190469 27.398438) scale(0.1 -0.1)">
      <defs>
       <path id="DejaVuSans-3a" d="M 750 794 
L 1409 794 
L 1409 0 
L 750 0 
L 750 794 
z
M 750 3309 
L 1409 3309 
L 1409 2516 
L 750 2516 
L 750 3309 
z
" transform="scale(0.015625)"/>
       <path id="DejaVuSans-20" transform="scale(0.015625)"/>
       <path id="DejaVuSans-4d" d="M 628 4666 
L 1569 4666 
L 2759 1491 
L 3956 4666 
L 4897 4666 
L 4897 0 
L 4281 0 
L 4281 4097 
L 3078 897 
L 2444 897 
L 1241 4097 
L 1241 0 
L 628 0 
L 628 4666 
z
" transform="scale(0.015625)"/>
       <path id="DejaVuSans-6e" d="M 3513 2113 
L 3513 0 
L 2938 0 
L 2938 2094 
Q 2938 2591 2744 2837 
Q 2550 3084 2163 3084 
Q 1697 3084 1428 2787 
Q 1159 2491 1159 1978 
L 1159 0 
L 581 0 
L 581 3500 
L 1159 3500 
L 1159 2956 
Q 1366 3272 1645 3428 
Q 1925 3584 2291 3584 
Q 2894 3584 3203 3211 
Q 3513 2838 3513 2113 
z
" transform="scale(0.015625)"/>
      </defs>
      <use xlink:href="#DejaVuSans-4f"/>
      <use xlink:href="#DejaVuSans-62" x="78.710938"/>
      <use xlink:href="#DejaVuSans-6a" x="142.1875"/>
      <use xlink:href="#DejaVuSans-65" x="169.970703"/>
      <use xlink:href="#DejaVuSans-63" x="231.494141"/>
      <use xlink:href="#DejaVuSans-74" x="286.474609"/>
      <use xlink:href="#DejaVuSans-69" x="325.683594"/>
      <use xlink:href="#DejaVuSans-76" x="353.466797"/>
      <use xlink:href="#DejaVuSans-65" x="412.646484"/>
      <use xlink:href="#DejaVuSans-3a" x="474.169922"/>
      <use xlink:href="#DejaVuSans-20" x="507.861328"/>
      <use xlink:href="#DejaVuSans-4d" x="539.648438"/>
      <use xlink:href="#DejaVuSans-65" x="625.927734"/>
      <use xlink:href="#DejaVuSans-61" x="687.451172"/>
      <use xlink:href="#DejaVuSans-6e" x="748.730469"/>
     </g>
    </g>
    <g id="patch_8">
     <path d="M 185.190469 42.076563 
L 205.190469 42.076563 
L 205.190469 35.076563 
L 185.190469 35.076563 
z
" style="fill: #1f77b4; fill-opacity: 0.5"/>
    </g>
    <g id="text_21">
     <!-- Objective: Std. dev. -->
     <g transform="translate(213.190469 42.076563) scale(0.1 -0.1)">
      <defs>
       <path id="DejaVuSans-53" d="M 3425 4513 
L 3425 3897 
Q 3066 4069 2747 4153 
Q 2428 4238 2131 4238 
Q 1616 4238 1336 4038 
Q 1056 3838 1056 3469 
Q 1056 3159 1242 3001 
Q 1428 2844 1947 2747 
L 2328 2669 
Q 3034 2534 3370 2195 
Q 3706 1856 3706 1288 
Q 3706 609 3251 259 
Q 2797 -91 1919 -91 
Q 1588 -91 1214 -16 
Q 841 59 441 206 
L 441 856 
Q 825 641 1194 531 
Q 1563 422 1919 422 
Q 2459 422 2753 634 
Q 3047 847 3047 1241 
Q 3047 1584 2836 1778 
Q 2625 1972 2144 2069 
L 1759 2144 
Q 1053 2284 737 2584 
Q 422 2884 422 3419 
Q 422 4038 858 4394 
Q 1294 4750 2059 4750 
Q 2388 4750 2728 4690 
Q 3069 4631 3425 4513 
z
" transform="scale(0.015625)"/>
       <path id="DejaVuSans-64" d="M 2906 2969 
L 2906 4863 
L 3481 4863 
L 3481 0 
L 2906 0 
L 2906 525 
Q 2725 213 2448 61 
Q 2172 -91 1784 -91 
Q 1150 -91 751 415 
Q 353 922 353 1747 
Q 353 2572 751 3078 
Q 1150 3584 1784 3584 
Q 2172 3584 2448 3432 
Q 2725 3281 2906 2969 
z
M 947 1747 
Q 947 1113 1208 752 
Q 1469 391 1925 391 
Q 2381 391 2643 752 
Q 2906 1113 2906 1747 
Q 2906 2381 2643 2742 
Q 2381 3103 1925 3103 
Q 1469 3103 1208 2742 
Q 947 2381 947 1747 
z
" transform="scale(0.015625)"/>
      </defs>
      <use xlink:href="#DejaVuSans-4f"/>
      <use xlink:href="#DejaVuSans-62" x="78.710938"/>
      <use xlink:href="#DejaVuSans-6a" x="142.1875"/>
      <use xlink:href="#DejaVuSans-65" x="169.970703"/>
      <use xlink:href="#DejaVuSans-63" x="231.494141"/>
      <use xlink:href="#DejaVuSans-74" x="286.474609"/>
      <use xlink:href="#DejaVuSans-69" x="325.683594"/>
      <use xlink:href="#DejaVuSans-76" x="353.466797"/>
      <use xlink:href="#DejaVuSans-65" x="412.646484"/>
      <use xlink:href="#DejaVuSans-3a" x="474.169922"/>
      <use xlink:href="#DejaVuSans-20" x="507.861328"/>
      <use xlink:href="#DejaVuSans-53" x="539.648438"/>
      <use xlink:href="#DejaVuSans-74" x="603.125"/>
      <use xlink:href="#DejaVuSans-64" x="642.333984"/>
      <use xlink:href="#DejaVuSans-2e" x="705.810547"/>
      <use xlink:href="#DejaVuSans-20" x="737.597656"/>
      <use xlink:href="#DejaVuSans-64" x="769.384766"/>
      <use xlink:href="#DejaVuSans-65" x="832.861328"/>
      <use xlink:href="#DejaVuSans-76" x="894.384766"/>
      <use xlink:href="#DejaVuSans-2e" x="945.814453"/>
     </g>
    </g>
   </g>
  </g>
 </g>
 <defs>
  <clipPath id="p9ba0fbbbde">
   <rect x="54.02" y="10.8" width="388.105" height="292.84"/>
  </clipPath>
 </defs>
</svg>
