<?xml version="1.0" encoding="utf-8" standalone="no"?>
<!DOCTYPE svg PUBLIC "-//W3C//DTD SVG 1.1//EN"
  "http://www.w3.org/Graphics/SVG/1.1/DTD/svg11.dtd">
<svg xmlns:xlink="http://www.w3.org/1999/xlink" width="460.8pt" height="345.6pt" viewBox="0 0 460.8 345.6" xmlns="http://www.w3.org/2000/svg" version="1.1">
 <metadata>
  <rdf:RDF xmlns:dc="http://purl.org/dc/elements/1.1/" xmlns:cc="http://creativecommons.org/ns#" xmlns:rdf="http://www.w3.org/1999/02/22-rdf-syntax-ns#">
   <cc:Work>
    <dc:type rdf:resource="http://purl.org/dc/dcmitype/StillImage"/>
    <dc:date>2024-06-04T16:25:57.677912</dc:date>
    <dc:format>image/svg+xml</dc:format>
    <dc:creator>
     <cc:Agent>
      <dc:title>Matplotlib v3.8.2, https://matplotlib.org/</dc:title>
     </cc:Agent>
    </dc:creator>
   </cc:Work>
  </rdf:RDF>
 </metadata>
 <defs>
  <style type="text/css">*{stroke-linejoin: round; stroke-linecap: butt}</style>
 </defs>
 <g id="figure_1">
  <g id="patch_1">
   <path d="M 0 345.6 
L 460.8 345.6 
L 460.8 0 
L 0 0 
z
" style="fill: #ffffff"/>
  </g>
  <g id="axes_1">
   <g id="patch_2">
    <path d="M 54.02 303.64 
L 442.125 303.64 
L 442.125 10.8 
L 54.02 10.8 
z
" style="fill: #ffffff"/>
   </g>
   <g id="PolyCollection_1">
    <path d="M 54.02 35.313284 
L 54.02 92.988462 
L 54.408493 93.206926 
L 54.796987 93.427925 
L 55.185481 93.651464 
L 55.573974 93.877554 
L 55.962467 94.1062 
L 56.350961 94.337409 
L 56.739454 94.571184 
L 57.127948 94.807539 
L 57.516442 95.046478 
L 57.904935 95.288003 
L 58.293428 95.532128 
L 58.681922 95.778856 
L 59.070415 96.028194 
L 59.458909 96.28015 
L 59.847402 96.534723 
L 60.235896 96.791928 
L 60.624389 97.051768 
L 61.012883 97.314245 
L 61.401376 97.579373 
L 61.78987 97.847154 
L 62.178364 98.11759 
L 62.566857 98.390695 
L 62.95535 98.66647 
L 63.343844 98.944921 
L 63.732337 99.226051 
L 64.120831 99.509871 
L 64.509324 99.796384 
L 64.897818 100.085592 
L 65.286311 100.377506 
L 65.674804 100.672128 
L 66.063298 100.969464 
L 66.451792 101.269515 
L 66.840285 101.572293 
L 67.228778 101.877798 
L 67.617271 102.186033 
L 68.005766 102.497012 
L 68.394259 102.810729 
L 68.782753 103.127188 
L 69.171246 103.446401 
L 69.559739 103.768369 
L 69.948232 104.093091 
L 70.336727 104.420584 
L 70.72522 104.750835 
L 71.113714 105.083859 
L 71.502207 105.419657 
L 71.8907 105.758232 
L 72.279193 106.099583 
L 72.667688 106.443721 
L 73.056181 106.790646 
L 73.444675 107.140356 
L 73.833168 107.492863 
L 74.221661 107.848165 
L 74.610154 108.206262 
L 74.998648 108.567159 
L 75.387142 108.930861 
L 75.775636 109.297365 
L 76.164129 109.666678 
L 76.552622 110.038797 
L 76.941115 110.413728 
L 77.329609 110.791469 
L 77.718103 111.172027 
L 78.106597 111.555395 
L 78.49509 111.941581 
L 78.883583 112.330581 
L 79.272076 112.722399 
L 79.66057 113.117037 
L 80.049063 113.514491 
L 80.437556 113.914766 
L 80.82605 114.317857 
L 81.214543 114.723768 
L 81.603039 115.132502 
L 81.991532 115.544052 
L 82.380025 115.958417 
L 82.768519 116.3756 
L 83.157012 116.795601 
L 83.545505 117.218414 
L 83.933999 117.644044 
L 84.322492 118.072484 
L 84.710985 118.503737 
L 85.099478 118.937795 
L 85.487972 119.374661 
L 85.876465 119.814333 
L 86.264958 120.256805 
L 86.653454 120.702081 
L 87.041948 121.150147 
L 87.430441 121.60101 
L 87.818934 122.05466 
L 88.207427 122.511098 
L 88.595921 122.970316 
L 88.984414 123.432312 
L 89.372907 123.897085 
L 89.7614 124.364625 
L 90.149894 124.834932 
L 90.538387 125.307997 
L 90.92688 125.783818 
L 91.315376 126.262389 
L 91.70387 126.743703 
L 92.092363 127.227752 
L 92.480856 127.714532 
L 92.869349 128.204039 
L 93.257843 128.696261 
L 93.646336 129.191197 
L 94.034829 129.688833 
L 94.423322 130.189167 
L 94.811816 130.692188 
L 95.200309 131.19789 
L 95.588802 131.706262 
L 95.977295 132.217298 
L 96.365792 132.73099 
L 96.754285 133.247323 
L 97.142778 133.766291 
L 97.531271 134.287881 
L 97.919765 134.812088 
L 98.308258 135.338899 
L 98.696751 135.868302 
L 99.085244 136.400287 
L 99.473738 136.934843 
L 99.862231 137.471956 
L 100.250724 138.011615 
L 100.639217 138.553808 
L 101.027711 139.098523 
L 101.416207 139.645749 
L 101.8047 140.195466 
L 102.193193 140.747663 
L 102.581687 141.302327 
L 102.97018 141.859444 
L 103.358673 142.418997 
L 103.747166 142.980974 
L 104.13566 143.545355 
L 104.524153 144.112131 
L 104.912646 144.681282 
L 105.301139 145.252793 
L 105.689633 145.826649 
L 106.078126 146.402832 
L 106.466619 146.981327 
L 106.855113 147.562118 
L 107.243606 148.145189 
L 107.632099 148.730526 
L 108.020592 149.318113 
L 108.409086 149.907936 
L 108.797585 150.499994 
L 109.186078 151.094258 
L 109.574571 151.690732 
L 109.963064 152.289416 
L 110.351558 152.890316 
L 110.740051 153.493454 
L 111.128544 154.098866 
L 111.517037 154.706627 
L 111.905531 155.316862 
L 112.294024 155.929803 
L 112.682517 156.545882 
L 113.071011 157.165971 
L 113.459504 157.791973 
L 113.847997 158.428395 
L 114.23649 159.085155 
L 114.624984 159.773531 
L 115.013477 160.488672 
L 115.40197 161.216586 
L 115.790463 161.949056 
L 116.178957 162.682608 
L 116.56745 163.41572 
L 116.955943 164.147649 
L 117.344436 164.877991 
L 117.73293 165.606503 
L 118.121423 166.333029 
L 118.509916 167.057458 
L 118.898415 167.77972 
L 119.286908 168.49973 
L 119.675402 169.217447 
L 120.063895 169.932829 
L 120.452388 170.645838 
L 120.840882 171.356441 
L 121.229375 172.064609 
L 121.617868 172.770315 
L 122.006361 173.473534 
L 122.394855 174.174242 
L 122.783348 174.872421 
L 123.171841 175.56805 
L 123.560334 176.26111 
L 123.948828 176.951585 
L 124.337321 177.639459 
L 124.725814 178.324716 
L 125.114307 179.007345 
L 125.502801 179.68733 
L 125.891294 180.364662 
L 126.279787 181.039329 
L 126.66828 181.71132 
L 127.056774 182.38063 
L 127.445267 183.047248 
L 127.83376 183.711169 
L 128.222254 184.372385 
L 128.610753 185.030903 
L 128.999246 185.686696 
L 129.387739 186.339775 
L 129.776232 186.990136 
L 130.164726 187.637777 
L 130.553219 188.282698 
L 130.941712 188.9249 
L 131.330205 189.564383 
L 131.718699 190.201149 
L 132.107192 190.835204 
L 132.495685 191.466551 
L 132.884178 192.095194 
L 133.272672 192.721141 
L 133.661165 193.344396 
L 134.049658 193.964969 
L 134.438151 194.582865 
L 134.826645 195.1981 
L 135.215138 195.810676 
L 135.603631 196.420609 
L 135.992125 197.027914 
L 136.380618 197.632596 
L 136.769111 198.234676 
L 137.157604 198.834162 
L 137.546098 199.431074 
L 137.934591 200.025422 
L 138.323084 200.617227 
L 138.711583 201.206515 
L 139.100076 201.793286 
L 139.48857 202.377562 
L 139.877063 202.95937 
L 140.265556 203.538721 
L 140.654049 204.115639 
L 141.042543 204.690148 
L 141.431036 205.26226 
L 141.819529 205.832004 
L 142.208023 206.399394 
L 142.596516 206.964457 
L 142.985009 207.527208 
L 143.373502 208.087671 
L 143.761996 208.645871 
L 144.150489 209.201821 
L 144.538982 209.755549 
L 144.927475 210.307067 
L 145.315969 210.856402 
L 145.704462 211.403566 
L 146.092955 211.948581 
L 146.481448 212.491469 
L 146.869942 213.032242 
L 147.258435 213.570924 
L 147.646928 214.107529 
L 148.035421 214.642086 
L 148.423915 215.174614 
L 148.812414 215.705159 
L 149.200907 216.233745 
L 149.5894 216.760446 
L 149.977894 217.285347 
L 150.366387 217.808587 
L 150.75488 218.330359 
L 151.143373 218.850966 
L 151.531867 219.37085 
L 151.92036 219.890606 
L 152.308853 220.410969 
L 152.697346 220.932609 
L 153.08584 221.45587 
L 153.474333 221.980593 
L 153.862826 222.506224 
L 154.251319 223.032113 
L 154.639813 223.557684 
L 155.028306 224.082525 
L 155.416799 224.606346 
L 155.805292 225.128952 
L 156.193786 225.650236 
L 156.582279 226.170116 
L 156.970772 226.688539 
L 157.359266 227.205487 
L 157.747759 227.720938 
L 158.136252 228.234881 
L 158.524745 228.747303 
L 158.913239 229.258212 
L 159.301732 229.767598 
L 159.690225 230.275451 
L 160.078718 230.781781 
L 160.467212 231.286575 
L 160.855705 231.789828 
L 161.244198 232.291527 
L 161.632691 232.791675 
L 162.021185 233.290259 
L 162.409678 233.78726 
L 162.798171 234.282681 
L 163.186664 234.776501 
L 163.575169 235.26872 
L 163.963663 235.759299 
L 164.352156 236.248229 
L 164.740649 236.735507 
L 165.129142 237.221108 
L 165.517636 237.705011 
L 165.906129 238.187209 
L 166.294622 238.667677 
L 166.683115 239.146397 
L 167.071609 239.623343 
L 167.460102 240.098507 
L 167.848595 240.571864 
L 168.237088 241.043386 
L 168.625582 241.513065 
L 169.014075 241.980874 
L 169.402568 242.446791 
L 169.791061 242.91079 
L 170.179555 243.372859 
L 170.568048 243.832973 
L 170.956541 244.291102 
L 171.345035 244.747237 
L 171.733528 245.20135 
L 172.122021 245.653419 
L 172.510514 246.103416 
L 172.899008 246.55133 
L 173.287501 246.997133 
L 173.675994 247.440798 
L 174.064487 247.882314 
L 174.452981 248.321653 
L 174.841474 248.758794 
L 175.229967 249.193709 
L 175.61846 249.626388 
L 176.006954 250.056802 
L 176.395447 250.484927 
L 176.78394 250.91075 
L 177.172433 251.334245 
L 177.560927 251.755391 
L 177.94942 252.174163 
L 178.337913 252.590549 
L 178.726406 253.004524 
L 179.1149 253.416063 
L 179.503393 253.825155 
L 179.891886 254.231776 
L 180.28038 254.635906 
L 180.668873 255.037519 
L 181.057366 255.436608 
L 181.445859 255.833148 
L 181.834353 256.227115 
L 182.222846 256.6185 
L 182.611339 257.007281 
L 182.999832 257.393439 
L 183.388337 257.776965 
L 183.77683 258.15782 
L 184.165324 258.536004 
L 184.553817 258.911496 
L 184.94231 259.284278 
L 185.330803 259.654332 
L 185.719297 260.021648 
L 186.10779 260.386208 
L 186.496283 260.747991 
L 186.884777 261.106991 
L 187.27327 261.463188 
L 187.661763 261.816569 
L 188.050256 262.167114 
L 188.43875 262.514819 
L 188.827243 262.859666 
L 189.215736 263.201637 
L 189.604229 263.540728 
L 189.992723 263.876923 
L 190.381216 264.210208 
L 190.769709 264.540569 
L 191.158202 264.868002 
L 191.546696 265.192492 
L 191.935189 265.514024 
L 192.323682 265.832596 
L 192.712175 266.148194 
L 193.100669 266.460807 
L 193.489162 266.770424 
L 193.877655 267.077043 
L 194.266149 267.380652 
L 194.654642 267.681238 
L 195.043135 267.978805 
L 195.431628 268.27333 
L 195.820122 268.564816 
L 196.208615 268.85326 
L 196.597108 269.138644 
L 196.985601 269.420969 
L 197.374095 269.700235 
L 197.762588 269.976424 
L 198.151081 270.249538 
L 198.539574 270.51958 
L 198.928068 270.786532 
L 199.316561 271.050397 
L 199.705054 271.311179 
L 200.093547 271.568861 
L 200.482041 271.823455 
L 200.870534 272.074946 
L 201.259027 272.323338 
L 201.64752 272.568636 
L 202.036014 272.810828 
L 202.424507 273.049918 
L 202.813 273.285914 
L 203.201505 273.518808 
L 203.589998 273.748603 
L 203.978492 273.975293 
L 204.366985 274.198886 
L 204.755478 274.41939 
L 205.143971 274.636795 
L 205.532465 274.85111 
L 205.920958 275.062344 
L 206.309451 275.270489 
L 206.697944 275.475554 
L 207.086438 275.677549 
L 207.474931 275.87647 
L 207.863424 276.072329 
L 208.251918 276.265124 
L 208.640411 276.454866 
L 209.028904 276.641564 
L 209.417397 276.825217 
L 209.805891 277.005836 
L 210.194384 277.183434 
L 210.582877 277.358008 
L 210.97137 277.529573 
L 211.359864 277.69814 
L 211.748357 277.86371 
L 212.13685 278.026297 
L 212.525343 278.185915 
L 212.913837 278.342566 
L 213.30233 278.496268 
L 213.690823 278.647025 
L 214.079316 278.794851 
L 214.46781 278.939763 
L 214.856303 279.081764 
L 215.244796 279.220872 
L 215.633289 279.357101 
L 216.021783 279.49046 
L 216.410276 279.620964 
L 216.798769 279.748631 
L 217.187263 279.873469 
L 217.575756 279.995496 
L 217.964249 280.11473 
L 218.352742 280.23118 
L 218.741236 280.34487 
L 219.129729 280.455808 
L 219.518222 280.564015 
L 219.906715 280.669511 
L 220.295209 280.772308 
L 220.683702 280.872427 
L 221.072195 280.969889 
L 221.460688 281.064708 
L 221.849182 281.156906 
L 222.237675 281.246506 
L 222.626168 281.333523 
L 223.014661 281.417983 
L 223.403166 281.499911 
L 223.79166 281.579323 
L 224.180153 281.656249 
L 224.568646 281.730711 
L 224.957139 281.802739 
L 225.345633 281.872365 
L 225.734126 281.939619 
L 226.122619 282.00454 
L 226.511112 282.067173 
L 226.899606 282.127568 
L 227.288099 282.185793 
L 227.676592 282.241935 
L 228.065085 282.296121 
L 228.453579 282.348545 
L 228.842072 282.399531 
L 229.230565 282.449689 
L 229.619058 282.500327 
L 230.007552 282.554725 
L 230.396045 282.622476 
L 230.784538 282.72669 
L 231.173032 282.87856 
L 231.561525 283.054935 
L 231.950018 283.239299 
L 232.338511 283.425872 
L 232.727005 283.61256 
L 233.115498 283.798442 
L 233.503991 283.983061 
L 233.892484 284.166157 
L 234.280978 284.34755 
L 234.669471 284.527124 
L 235.057964 284.704795 
L 235.446457 284.88048 
L 235.834951 285.054121 
L 236.223444 285.225668 
L 236.611937 285.395061 
L 237.00043 285.562259 
L 237.388924 285.727222 
L 237.777417 285.889899 
L 238.16591 286.050256 
L 238.554404 286.208248 
L 238.942897 286.363837 
L 239.33139 286.516991 
L 239.719883 286.667663 
L 240.108377 286.81582 
L 240.49687 286.96143 
L 240.885363 287.104447 
L 241.273856 287.244841 
L 241.66235 287.382577 
L 242.050843 287.517615 
L 242.439336 287.649921 
L 242.827829 287.779465 
L 243.216334 287.906208 
L 243.604827 288.030115 
L 243.993321 288.151149 
L 244.381814 288.269279 
L 244.770307 288.384474 
L 245.158801 288.496695 
L 245.547294 288.605913 
L 245.935787 288.71209 
L 246.32428 288.815195 
L 246.712774 288.915198 
L 247.101267 289.012062 
L 247.48976 289.105757 
L 247.878253 289.196252 
L 248.266747 289.283512 
L 248.65524 289.367506 
L 249.043733 289.448206 
L 249.432226 289.525576 
L 249.82072 289.599587 
L 250.209213 289.67021 
L 250.597706 289.737412 
L 250.986199 289.801164 
L 251.374693 289.861435 
L 251.763186 289.918197 
L 252.151679 289.97142 
L 252.540173 290.021073 
L 252.928666 290.06713 
L 253.317159 290.109561 
L 253.705652 290.148337 
L 254.094146 290.18343 
L 254.482639 290.214815 
L 254.871132 290.242461 
L 255.259625 290.266342 
L 255.648119 290.286433 
L 256.036612 290.302705 
L 256.425105 290.315132 
L 256.813598 290.323689 
L 257.202092 290.328351 
L 257.590585 290.329091 
L 257.979078 290.325885 
L 258.367571 290.318708 
L 258.756065 290.307535 
L 259.144558 290.292344 
L 259.533051 290.27311 
L 259.921544 290.249809 
L 260.310038 290.222419 
L 260.698531 290.190917 
L 261.087024 290.155281 
L 261.475518 290.115489 
L 261.864011 290.07152 
L 262.252504 290.02335 
L 262.640997 289.970962 
L 263.029491 289.914332 
L 263.418007 289.85344 
L 263.8065 289.788269 
L 264.194994 289.7188 
L 264.583487 289.645012 
L 264.97198 289.566885 
L 265.360473 289.484405 
L 265.748967 289.397551 
L 266.13746 289.306304 
L 266.525953 289.210651 
L 266.914446 289.110571 
L 267.30294 289.006053 
L 267.691433 288.897078 
L 268.079926 288.783628 
L 268.468419 288.665693 
L 268.856913 288.543256 
L 269.245406 288.4163 
L 269.633899 288.284817 
L 270.022392 288.14879 
L 270.410886 288.008203 
L 270.799379 287.86305 
L 271.187872 287.713316 
L 271.576365 287.558986 
L 271.964859 287.400055 
L 272.353352 287.236505 
L 272.741845 287.068333 
L 273.130339 286.895526 
L 273.518832 286.718069 
L 273.907325 286.535963 
L 274.295818 286.34919 
L 274.684312 286.157751 
L 275.072805 285.961633 
L 275.461298 285.760829 
L 275.849791 285.555333 
L 276.238285 285.345128 
L 276.626778 285.130229 
L 277.015271 284.910619 
L 277.403764 284.686295 
L 277.792258 284.457252 
L 278.180751 284.223485 
L 278.569244 283.98498 
L 278.957737 283.741757 
L 279.346231 283.493802 
L 279.734724 283.241113 
L 280.123217 282.983688 
L 280.511711 282.721514 
L 280.900204 282.454616 
L 281.288697 282.182981 
L 281.67719 281.90661 
L 282.065684 281.625504 
L 282.454177 281.339664 
L 282.84267 281.049079 
L 283.231163 280.753779 
L 283.619657 280.453753 
L 284.00815 280.149006 
L 284.396643 279.839541 
L 284.785136 279.525364 
L 285.17363 279.206465 
L 285.562123 278.88288 
L 285.950616 278.554601 
L 286.339109 278.221636 
L 286.727603 277.883992 
L 287.116096 277.541661 
L 287.504589 277.194686 
L 287.893082 276.843062 
L 288.281576 276.486798 
L 288.670069 276.125907 
L 289.058562 275.760401 
L 289.447056 275.390278 
L 289.835549 275.015589 
L 290.224042 274.636334 
L 290.612535 274.252531 
L 291.001029 273.864203 
L 291.389522 273.471358 
L 291.778015 273.074065 
L 292.166508 272.672343 
L 292.555002 272.266246 
L 292.943495 271.855842 
L 293.331988 271.441239 
L 293.720481 271.022586 
L 294.108975 270.600231 
L 294.497468 270.174783 
L 294.885961 269.747796 
L 295.274454 269.324275 
L 295.662948 268.926549 
L 296.051441 268.618248 
L 296.439934 268.380787 
L 296.828428 268.160373 
L 297.216921 267.943347 
L 297.605414 267.726352 
L 297.993907 267.508232 
L 298.382401 267.288514 
L 298.770894 267.066933 
L 299.159387 266.843342 
L 299.54788 266.617647 
L 299.936374 266.389783 
L 300.324867 266.159688 
L 300.71336 265.927347 
L 301.101853 265.692715 
L 301.490347 265.455765 
L 301.87884 265.216471 
L 302.267333 264.97481 
L 302.655826 264.73075 
L 303.044343 264.484282 
L 303.432836 264.235399 
L 303.821329 263.984072 
L 304.209823 263.730271 
L 304.598316 263.474004 
L 304.986809 263.215243 
L 305.375302 262.953971 
L 305.763796 262.690173 
L 306.152289 262.423834 
L 306.540782 262.154927 
L 306.929275 261.883464 
L 307.317769 261.609417 
L 307.706262 261.332772 
L 308.094755 261.053517 
L 308.483248 260.771625 
L 308.871742 260.487109 
L 309.260235 260.199944 
L 309.648728 259.910118 
L 310.037222 259.617618 
L 310.425715 259.322433 
L 310.814208 259.024535 
L 311.202701 258.723944 
L 311.591195 258.420633 
L 311.979688 258.114592 
L 312.368181 257.805809 
L 312.756674 257.494259 
L 313.145168 257.179963 
L 313.533661 256.862895 
L 313.922154 256.543046 
L 314.310647 256.220405 
L 314.699141 255.894964 
L 315.087634 255.566697 
L 315.476127 255.235628 
L 315.86462 254.901731 
L 316.253114 254.565 
L 316.641607 254.225424 
L 317.0301 253.882997 
L 317.418594 253.537693 
L 317.807087 253.189538 
L 318.19558 252.838509 
L 318.584073 252.484599 
L 318.972567 252.127799 
L 319.36106 251.768087 
L 319.749553 251.40549 
L 320.138046 251.039984 
L 320.52654 250.671564 
L 320.915033 250.300224 
L 321.303526 249.925958 
L 321.692019 249.548741 
L 322.080513 249.168606 
L 322.469006 248.785528 
L 322.857499 248.399504 
L 323.245992 248.010528 
L 323.634486 247.618576 
L 324.022979 247.223683 
L 324.411472 246.825825 
L 324.799965 246.424998 
L 325.188459 246.021199 
L 325.576952 245.614424 
L 325.965445 245.204649 
L 326.353939 244.791913 
L 326.742432 244.37619 
L 327.130925 243.95748 
L 327.519418 243.535779 
L 327.907912 243.111085 
L 328.296405 242.683374 
L 328.684898 242.252687 
L 329.073391 241.819001 
L 329.461885 241.382314 
L 329.850378 240.942625 
L 330.238871 240.499911 
L 330.627364 240.054213 
L 331.015858 239.605511 
L 331.404351 239.153802 
L 331.792844 238.699087 
L 332.181337 238.241364 
L 332.569831 237.780612 
L 332.958324 237.316875 
L 333.346817 236.850131 
L 333.735311 236.380381 
L 334.123804 235.907625 
L 334.512297 235.43184 
L 334.90079 234.953074 
L 335.289284 234.471304 
L 335.677777 233.986533 
L 336.06627 233.498761 
L 336.454763 233.00799 
L 336.843257 232.514197 
L 337.23175 232.017434 
L 337.620243 231.517677 
L 338.008736 231.01493 
L 338.39723 230.509194 
L 338.785723 230.000472 
L 339.174216 229.488742 
L 339.562709 228.974058 
L 339.951203 228.456396 
L 340.339696 227.935761 
L 340.728189 227.412156 
L 341.116682 226.885558 
L 341.505176 226.356023 
L 341.893669 225.82353 
L 342.282162 225.288082 
L 342.670679 224.749657 
L 343.059172 224.208286 
L 343.447665 223.664 
L 343.836158 223.116777 
L 344.224652 222.566623 
L 344.613145 222.013542 
L 345.001638 221.457512 
L 345.390132 220.898593 
L 345.778625 220.336764 
L 346.167118 219.77203 
L 346.555611 219.204397 
L 346.944105 218.633871 
L 347.332598 218.06043 
L 347.721091 217.484136 
L 348.109584 216.904968 
L 348.498078 216.322932 
L 348.886571 215.738036 
L 349.275064 215.150285 
L 349.663557 214.559659 
L 350.052051 213.966222 
L 350.440544 213.369952 
L 350.829037 212.770857 
L 351.21753 212.168945 
L 351.606024 211.564194 
L 351.994517 210.95667 
L 352.38301 210.346353 
L 352.771503 209.73325 
L 353.159997 209.11737 
L 353.54849 208.498721 
L 353.936983 207.877281 
L 354.325477 207.253121 
L 354.71397 206.626217 
L 355.102463 205.996581 
L 355.490956 205.364219 
L 355.87945 204.729112 
L 356.267943 204.091329 
L 356.656436 203.450851 
L 357.044929 202.807686 
L 357.433423 202.161844 
L 357.821916 201.513335 
L 358.210409 200.862138 
L 358.598902 200.208325 
L 358.987396 199.551877 
L 359.375889 198.892803 
L 359.764382 198.231113 
L 360.152875 197.56682 
L 360.541369 196.899899 
L 360.929862 196.230429 
L 361.318355 195.558387 
L 361.706849 194.883784 
L 362.095342 194.206632 
L 362.483835 193.52691 
L 362.872328 192.844694 
L 363.260822 192.159964 
L 363.649315 191.472731 
L 364.037808 190.783008 
L 364.426301 190.090806 
L 364.814795 189.396103 
L 365.203288 188.69898 
L 365.591781 187.999416 
L 365.980274 187.297422 
L 366.368768 186.593011 
L 366.757261 185.886161 
L 367.145754 185.176956 
L 367.534247 184.465371 
L 367.922741 183.751422 
L 368.311234 183.035121 
L 368.699727 182.316482 
L 369.08822 181.595481 
L 369.476714 180.872205 
L 369.865207 180.14663 
L 370.2537 179.418771 
L 370.642194 178.688642 
L 371.030687 177.956256 
L 371.41918 177.221591 
L 371.807673 176.484734 
L 372.196167 175.745663 
L 372.58466 175.004392 
L 372.973153 174.260935 
L 373.361646 173.515272 
L 373.75014 172.767488 
L 374.138633 172.017564 
L 374.527126 171.265513 
L 374.915619 170.51135 
L 375.304113 169.755091 
L 375.692606 168.996713 
L 376.081099 168.236307 
L 376.469592 167.473849 
L 376.858086 166.709357 
L 377.246579 165.942844 
L 377.635072 165.17429 
L 378.023566 164.403785 
L 378.412059 163.631307 
L 378.800552 162.856872 
L 379.189045 162.080497 
L 379.577539 161.302197 
L 379.966032 160.52195 
L 380.354525 159.739849 
L 380.743018 158.955872 
L 381.131512 158.170036 
L 381.520005 157.382356 
L 381.908498 156.59285 
L 382.296991 155.801496 
L 382.685508 155.008348 
L 383.074001 154.213464 
L 383.462494 153.416819 
L 383.850988 152.618394 
L 384.239481 151.818283 
L 384.627974 151.016463 
L 385.016467 150.212953 
L 385.404961 149.40777 
L 385.793454 148.60093 
L 386.181947 147.792413 
L 386.57044 146.982314 
L 386.958934 146.170612 
L 387.347427 145.357324 
L 387.73592 144.542468 
L 388.124413 143.726022 
L 388.512907 142.908084 
L 388.9014 142.088633 
L 389.289893 141.267685 
L 389.678387 140.445259 
L 390.06688 139.621374 
L 390.455373 138.796006 
L 390.843866 137.969256 
L 391.23236 137.141101 
L 391.620853 136.311561 
L 392.009346 135.480652 
L 392.397839 134.648394 
L 392.786333 133.814765 
L 393.174826 132.979866 
L 393.563319 132.143673 
L 393.951812 131.306206 
L 394.340306 130.467484 
L 394.728799 129.627484 
L 395.117292 128.786309 
L 395.505785 127.943935 
L 395.894279 127.100383 
L 396.282772 126.255671 
L 396.671265 125.409818 
L 397.059758 124.562802 
L 397.448252 123.714726 
L 397.836745 122.865567 
L 398.225238 122.015346 
L 398.613732 121.164081 
L 399.002225 120.31175 
L 399.390718 119.458456 
L 399.779211 118.604178 
L 400.167705 117.748935 
L 400.556198 116.892747 
L 400.944691 116.035633 
L 401.333184 115.177572 
L 401.721678 114.318667 
L 402.110171 113.458896 
L 402.498664 112.598279 
L 402.887157 111.736837 
L 403.275651 110.874588 
L 403.664144 110.011512 
L 404.052637 109.147713 
L 404.44113 108.283168 
L 404.829624 107.417898 
L 405.218117 106.551924 
L 405.60661 105.685222 
L 405.995104 104.817898 
L 406.383597 103.949931 
L 406.77209 103.08134 
L 407.160583 102.212145 
L 407.549077 101.342368 
L 407.93757 100.471987 
L 408.326063 99.601106 
L 408.714556 98.729704 
L 409.10305 97.857801 
L 409.491543 96.985418 
L 409.880036 96.112533 
L 410.268529 95.239252 
L 410.657023 94.365553 
L 411.045516 93.491456 
L 411.434009 92.616983 
L 411.822502 91.742154 
L 412.210996 90.866946 
L 412.599489 89.991467 
L 412.987982 89.115694 
L 413.376475 88.239649 
L 413.764969 87.363351 
L 414.153462 86.486822 
L 414.541955 85.610039 
L 414.930449 84.73311 
L 415.318942 83.856013 
L 415.707435 82.978767 
L 416.095928 82.101395 
L 416.484422 81.223873 
L 416.872915 80.34631 
L 417.261408 79.468682 
L 417.649901 78.591011 
L 418.038395 77.713318 
L 418.426888 76.835624 
L 418.815381 75.957907 
L 419.203874 75.080273 
L 419.592368 74.2027 
L 419.980861 73.325211 
L 420.369354 72.447825 
L 420.757847 71.57052 
L 421.146341 70.693404 
L 421.534834 69.816455 
L 421.923327 68.939693 
L 422.311844 68.063097 
L 422.700337 67.186731 
L 423.08883 66.310659 
L 423.477323 65.434858 
L 423.865817 64.55935 
L 424.25431 63.684157 
L 424.642803 62.809298 
L 425.031296 61.934753 
L 425.41979 61.060629 
L 425.808283 60.186904 
L 426.196776 59.313599 
L 426.58527 58.440736 
L 426.973763 57.568295 
L 427.362256 56.696381 
L 427.750749 55.824976 
L 428.139243 54.954101 
L 428.527736 54.08378 
L 428.916229 53.214037 
L 429.304722 52.344854 
L 429.693216 51.476343 
L 430.081709 50.608489 
L 430.470202 49.741327 
L 430.858695 48.874894 
L 431.247189 48.009196 
L 431.635682 47.144384 
L 432.024175 46.280519 
L 432.412668 45.41778 
L 432.801162 44.556547 
L 433.189655 43.697842 
L 433.578148 42.845839 
L 433.966641 42.045488 
L 434.355135 41.57755 
L 434.743628 41.234471 
L 435.132121 40.904702 
L 435.520615 40.580596 
L 435.909108 40.260594 
L 436.297601 39.944272 
L 436.686094 39.63136 
L 437.074588 39.321783 
L 437.463081 39.015512 
L 437.851574 38.712449 
L 438.240067 38.412625 
L 438.628561 38.115964 
L 439.017054 37.82248 
L 439.405547 37.532187 
L 439.79404 37.245019 
L 440.182534 36.961021 
L 440.571027 36.68013 
L 440.95952 36.402391 
L 441.348013 36.127742 
L 441.736507 35.856203 
L 442.125 35.587792 
L 442.125 24.110909 
L 442.125 24.110909 
L 441.736507 24.949905 
L 441.348013 25.790182 
L 440.95952 26.631641 
L 440.571027 27.474181 
L 440.182534 28.31795 
L 439.79404 29.162761 
L 439.405547 30.008763 
L 439.017054 30.855767 
L 438.628561 31.703918 
L 438.240067 32.553108 
L 437.851574 33.403227 
L 437.463081 34.254409 
L 437.074588 35.10645 
L 436.686094 35.959465 
L 436.297601 36.813297 
L 435.909108 37.667745 
L 435.520615 38.522753 
L 435.132121 39.377652 
L 434.743628 40.231103 
L 434.355135 41.075327 
L 433.966641 41.798642 
L 433.578148 42.193655 
L 433.189655 42.541112 
L 432.801162 42.885829 
L 432.412668 43.232021 
L 432.024175 43.580696 
L 431.635682 43.932216 
L 431.247189 44.286744 
L 430.858695 44.644381 
L 430.470202 45.005142 
L 430.081709 45.369073 
L 429.693216 45.736196 
L 429.304722 46.106524 
L 428.916229 46.480086 
L 428.527736 46.856851 
L 428.139243 47.236844 
L 427.750749 47.620069 
L 427.362256 48.006529 
L 426.973763 48.396225 
L 426.58527 48.78918 
L 426.196776 49.185355 
L 425.808283 49.58477 
L 425.41979 49.987425 
L 425.031296 50.393319 
L 424.642803 50.802473 
L 424.25431 51.214845 
L 423.865817 51.630453 
L 423.477323 52.049297 
L 423.08883 52.471373 
L 422.700337 52.896681 
L 422.311844 53.325238 
L 421.923327 53.75702 
L 421.534834 54.192005 
L 421.146341 54.630209 
L 420.757847 55.071628 
L 420.369354 55.516282 
L 419.980861 55.964122 
L 419.592368 56.415165 
L 419.203874 56.869409 
L 418.815381 57.326847 
L 418.426888 57.787497 
L 418.038395 58.25131 
L 417.649901 58.718302 
L 417.261408 59.188467 
L 416.872915 59.661801 
L 416.484422 60.138296 
L 416.095928 60.61797 
L 415.707435 61.10077 
L 415.318942 61.586713 
L 414.930449 62.075791 
L 414.541955 62.567997 
L 414.153462 63.063349 
L 413.764969 63.561789 
L 413.376475 64.063336 
L 412.987982 64.56798 
L 412.599489 65.075714 
L 412.210996 65.586529 
L 411.822502 66.100443 
L 411.434009 66.617394 
L 411.045516 67.137401 
L 410.657023 67.660454 
L 410.268529 68.186542 
L 409.880036 68.715658 
L 409.491543 69.247817 
L 409.10305 69.782956 
L 408.714556 70.321093 
L 408.326063 70.862216 
L 407.93757 71.406315 
L 407.549077 71.953407 
L 407.160583 72.503425 
L 406.77209 73.056387 
L 406.383597 73.612281 
L 405.995104 74.171095 
L 405.60661 74.732818 
L 405.218117 75.297466 
L 404.829624 75.86497 
L 404.44113 76.435348 
L 404.052637 77.008585 
L 403.664144 77.58467 
L 403.275651 78.163618 
L 402.887157 78.74536 
L 402.498664 79.32991 
L 402.110171 79.917256 
L 401.721678 80.507383 
L 401.333184 81.100279 
L 400.944691 81.695959 
L 400.556198 82.294349 
L 400.167705 82.895466 
L 399.779211 83.499295 
L 399.390718 84.105821 
L 399.002225 84.715029 
L 398.613732 85.326936 
L 398.225238 85.941465 
L 397.836745 86.558631 
L 397.448252 87.17842 
L 397.059758 87.800816 
L 396.671265 88.425833 
L 396.282772 89.053394 
L 395.894279 89.683515 
L 395.505785 90.316178 
L 395.117292 90.951368 
L 394.728799 91.589067 
L 394.340306 92.229292 
L 393.951812 92.871961 
L 393.563319 93.51709 
L 393.174826 94.164662 
L 392.786333 94.814658 
L 392.397839 95.467094 
L 392.009346 96.121888 
L 391.620853 96.779055 
L 391.23236 97.438575 
L 390.843866 98.100432 
L 390.455373 98.764607 
L 390.06688 99.431114 
L 389.678387 100.09987 
L 389.289893 100.770888 
L 388.9014 101.44415 
L 388.512907 102.119636 
L 388.124413 102.797329 
L 387.73592 103.47724 
L 387.347427 104.159286 
L 386.958934 104.843478 
L 386.57044 105.529799 
L 386.181947 106.218227 
L 385.793454 106.908777 
L 385.404961 107.601361 
L 385.016467 108.295992 
L 384.627974 108.992651 
L 384.239481 109.691316 
L 383.850988 110.391967 
L 383.462494 111.094618 
L 383.074001 111.799178 
L 382.685508 112.505661 
L 382.296991 113.214082 
L 381.908498 113.924382 
L 381.520005 114.636508 
L 381.131512 115.35047 
L 380.743018 116.066248 
L 380.354525 116.78382 
L 379.966032 117.503164 
L 379.577539 118.224293 
L 379.189045 118.947114 
L 378.800552 119.67164 
L 378.412059 120.397849 
L 378.023566 121.125717 
L 377.635072 121.855223 
L 377.246579 122.586378 
L 376.858086 123.319089 
L 376.469592 124.053368 
L 376.081099 124.789192 
L 375.692606 125.526538 
L 375.304113 126.265417 
L 374.915619 127.005735 
L 374.527126 127.747503 
L 374.138633 128.490697 
L 373.75014 129.235295 
L 373.361646 129.981271 
L 372.973153 130.728638 
L 372.58466 131.477299 
L 372.196167 132.227265 
L 371.807673 132.978512 
L 371.41918 133.731016 
L 371.030687 134.484788 
L 370.642194 135.23973 
L 370.2537 135.995853 
L 369.865207 136.753134 
L 369.476714 137.511546 
L 369.08822 138.271063 
L 368.699727 139.031699 
L 368.311234 139.793352 
L 367.922741 140.556035 
L 367.534247 141.319722 
L 367.145754 142.084386 
L 366.757261 142.850003 
L 366.368768 143.616582 
L 365.980274 144.384024 
L 365.591781 145.152339 
L 365.203288 145.921501 
L 364.814795 146.691483 
L 364.426301 147.462297 
L 364.037808 148.233841 
L 363.649315 149.006125 
L 363.260822 149.779123 
L 362.872328 150.552807 
L 362.483835 151.327152 
L 362.095342 152.102166 
L 361.706849 152.877748 
L 361.318355 153.653908 
L 360.929862 154.430619 
L 360.541369 155.207852 
L 360.152875 155.98562 
L 359.764382 156.763816 
L 359.375889 157.542453 
L 358.987396 158.321502 
L 358.598902 159.100935 
L 358.210409 159.880724 
L 357.821916 160.66088 
L 357.433423 161.441297 
L 357.044929 162.221986 
L 356.656436 163.002918 
L 356.267943 163.784065 
L 355.87945 164.565398 
L 355.490956 165.346927 
L 355.102463 166.128546 
L 354.71397 166.910266 
L 354.325477 167.692058 
L 353.936983 168.473892 
L 353.54849 169.255778 
L 353.159997 170.03761 
L 352.771503 170.819397 
L 352.38301 171.601111 
L 351.994517 172.382722 
L 351.606024 173.1642 
L 351.21753 173.945555 
L 350.829037 174.72668 
L 350.440544 175.507585 
L 350.052051 176.288239 
L 349.663557 177.068614 
L 349.275064 177.848717 
L 348.886571 178.628442 
L 348.498078 179.407798 
L 348.109584 180.186755 
L 347.721091 180.965282 
L 347.332598 181.743351 
L 346.944105 182.520968 
L 346.555611 183.298028 
L 346.167118 184.074538 
L 345.778625 184.850469 
L 345.390132 185.62579 
L 345.001638 186.40047 
L 344.613145 187.174517 
L 344.224652 187.947826 
L 343.836158 188.720403 
L 343.447665 189.492217 
L 343.059172 190.263239 
L 342.670679 191.033476 
L 342.282162 191.802858 
L 341.893669 192.571318 
L 341.505176 193.338863 
L 341.116682 194.105462 
L 340.728189 194.871121 
L 340.339696 195.635735 
L 339.951203 196.39931 
L 339.562709 197.161816 
L 339.174216 197.923221 
L 338.785723 198.683532 
L 338.39723 199.442644 
L 338.008736 200.200562 
L 337.620243 200.957255 
L 337.23175 201.712693 
L 336.843257 202.466844 
L 336.454763 203.219715 
L 336.06627 203.971199 
L 335.677777 204.721303 
L 335.289284 205.469997 
L 334.90079 206.217247 
L 334.512297 206.963024 
L 334.123804 207.707333 
L 333.735311 208.450069 
L 333.346817 209.191238 
L 332.958324 209.930808 
L 332.569831 210.668748 
L 332.181337 211.405063 
L 331.792844 212.13965 
L 331.404351 212.872513 
L 331.015858 213.603621 
L 330.627364 214.332943 
L 330.238871 215.060447 
L 329.850378 215.786138 
L 329.461885 216.509914 
L 329.073391 217.231778 
L 328.684898 217.9517 
L 328.296405 218.669649 
L 327.907912 219.385627 
L 327.519418 220.099534 
L 327.130925 220.811374 
L 326.742432 221.521115 
L 326.353939 222.228727 
L 325.965445 222.934178 
L 325.576952 223.637471 
L 325.188459 224.338507 
L 324.799965 225.037289 
L 324.411472 225.733786 
L 324.022979 226.427967 
L 323.634486 227.119802 
L 323.245992 227.809292 
L 322.857499 228.496339 
L 322.469006 229.180947 
L 322.080513 229.863084 
L 321.692019 230.542721 
L 321.303526 231.219858 
L 320.915033 231.8944 
L 320.52654 232.566349 
L 320.138046 233.235674 
L 319.749553 233.902345 
L 319.36106 234.566331 
L 318.972567 235.227634 
L 318.584073 235.88616 
L 318.19558 236.54191 
L 317.807087 237.194854 
L 317.418594 237.844962 
L 317.0301 238.492235 
L 316.641607 239.136581 
L 316.253114 239.778001 
L 315.86462 240.416464 
L 315.476127 241.051942 
L 315.087634 241.684405 
L 314.699141 242.313854 
L 314.310647 242.940197 
L 313.922154 243.563436 
L 313.533661 244.183542 
L 313.145168 244.800485 
L 312.756674 245.414237 
L 312.368181 246.024797 
L 311.979688 246.632078 
L 311.591195 247.23608 
L 311.202701 247.836775 
L 310.814208 248.434133 
L 310.425715 249.028156 
L 310.037222 249.618757 
L 309.648728 250.205936 
L 309.260235 250.789665 
L 308.871742 251.369916 
L 308.483248 251.946661 
L 308.094755 252.5199 
L 307.706262 253.089548 
L 307.317769 253.655608 
L 306.929275 254.21805 
L 306.540782 254.776847 
L 306.152289 255.331999 
L 305.763796 255.883424 
L 305.375302 256.431121 
L 304.986809 256.975064 
L 304.598316 257.515225 
L 304.209823 258.051578 
L 303.821329 258.584119 
L 303.432836 259.11277 
L 303.044343 259.63753 
L 302.655826 260.158395 
L 302.267333 260.675312 
L 301.87884 261.188226 
L 301.490347 261.697134 
L 301.101853 262.202003 
L 300.71336 262.702802 
L 300.324867 263.199494 
L 299.936374 263.692064 
L 299.54788 264.180419 
L 299.159387 264.664526 
L 298.770894 265.144315 
L 298.382401 265.619687 
L 297.993907 266.09049 
L 297.605414 266.556488 
L 297.216921 267.017138 
L 296.828428 267.471313 
L 296.439934 267.915655 
L 296.051441 268.336501 
L 295.662948 268.680089 
L 295.274454 268.927769 
L 294.885961 269.143201 
L 294.497468 269.348715 
L 294.108975 269.549316 
L 293.720481 269.746557 
L 293.331988 269.94108 
L 292.943495 270.133174 
L 292.555002 270.32302 
L 292.166508 270.510727 
L 291.778015 270.69637 
L 291.389522 270.880001 
L 291.001029 271.061675 
L 290.612535 271.241408 
L 290.224042 271.419239 
L 289.835549 271.595198 
L 289.447056 271.769308 
L 289.058562 271.941601 
L 288.670069 272.112083 
L 288.281576 272.280783 
L 287.893082 272.44772 
L 287.504589 272.612915 
L 287.116096 272.776387 
L 286.727603 272.938161 
L 286.339109 273.09824 
L 285.950616 273.25665 
L 285.562123 273.413407 
L 285.17363 273.568529 
L 284.785136 273.72204 
L 284.396643 273.873942 
L 284.00815 274.024258 
L 283.619657 274.173003 
L 283.231163 274.320194 
L 282.84267 274.465846 
L 282.454177 274.609982 
L 282.065684 274.752601 
L 281.67719 274.893726 
L 281.288697 275.033371 
L 280.900204 275.17155 
L 280.511711 275.308278 
L 280.123217 275.443574 
L 279.734724 275.577439 
L 279.346231 275.709893 
L 278.957737 275.840948 
L 278.569244 275.970618 
L 278.180751 276.098922 
L 277.792258 276.225858 
L 277.403764 276.351445 
L 277.015271 276.475695 
L 276.626778 276.59862 
L 276.238285 276.720231 
L 275.849791 276.840545 
L 275.461298 276.95956 
L 275.072805 277.077293 
L 274.684312 277.193755 
L 274.295818 277.308955 
L 273.907325 277.422906 
L 273.518832 277.535612 
L 273.130339 277.647087 
L 272.741845 277.757335 
L 272.353352 277.866368 
L 271.964859 277.974196 
L 271.576365 278.080822 
L 271.187872 278.186259 
L 270.799379 278.29051 
L 270.410886 278.393585 
L 270.022392 278.495492 
L 269.633899 278.596234 
L 269.245406 278.69582 
L 268.856913 278.794258 
L 268.468419 278.891549 
L 268.079926 278.987702 
L 267.691433 279.082723 
L 267.30294 279.176614 
L 266.914446 279.26938 
L 266.525953 279.36103 
L 266.13746 279.451561 
L 265.748967 279.540984 
L 265.360473 279.629296 
L 264.97198 279.716503 
L 264.583487 279.80261 
L 264.194994 279.887616 
L 263.8065 279.971525 
L 263.418007 280.05434 
L 263.029491 280.136064 
L 262.640997 280.216693 
L 262.252504 280.29623 
L 261.864011 280.374678 
L 261.475518 280.452034 
L 261.087024 280.5283 
L 260.698531 280.603478 
L 260.310038 280.677563 
L 259.921544 280.750556 
L 259.533051 280.822459 
L 259.144558 280.893265 
L 258.756065 280.962976 
L 258.367571 281.03159 
L 257.979078 281.099101 
L 257.590585 281.16551 
L 257.202092 281.230813 
L 256.813598 281.295004 
L 256.425105 281.358082 
L 256.036612 281.420043 
L 255.648119 281.48088 
L 255.259625 281.540592 
L 254.871132 281.59917 
L 254.482639 281.65661 
L 254.094146 281.712908 
L 253.705652 281.768056 
L 253.317159 281.822048 
L 252.928666 281.874878 
L 252.540173 281.926537 
L 252.151679 281.977019 
L 251.763186 282.026318 
L 251.374693 282.074422 
L 250.986199 282.121325 
L 250.597706 282.16702 
L 250.209213 282.211493 
L 249.82072 282.254739 
L 249.432226 282.296746 
L 249.043733 282.337504 
L 248.65524 282.377004 
L 248.266747 282.415234 
L 247.878253 282.452182 
L 247.48976 282.487839 
L 247.101267 282.522191 
L 246.712774 282.555227 
L 246.32428 282.586935 
L 245.935787 282.6173 
L 245.547294 282.646311 
L 245.158801 282.673953 
L 244.770307 282.700213 
L 244.381814 282.725077 
L 243.993321 282.748529 
L 243.604827 282.770555 
L 243.216334 282.79114 
L 242.827829 282.810268 
L 242.439336 282.827922 
L 242.050843 282.844087 
L 241.66235 282.858744 
L 241.273856 282.871878 
L 240.885363 282.88347 
L 240.49687 282.893503 
L 240.108377 282.901957 
L 239.719883 282.908813 
L 239.33139 282.914051 
L 238.942897 282.917652 
L 238.554404 282.919594 
L 238.16591 282.919855 
L 237.777417 282.918414 
L 237.388924 282.915245 
L 237.00043 282.910324 
L 236.611937 282.903624 
L 236.223444 282.895117 
L 235.834951 282.884771 
L 235.446457 282.872551 
L 235.057964 282.858417 
L 234.669471 282.84232 
L 234.280978 282.824203 
L 233.892484 282.803989 
L 233.503991 282.781571 
L 233.115498 282.756793 
L 232.727005 282.729403 
L 232.338511 282.698952 
L 231.950018 282.664543 
L 231.561525 282.624081 
L 231.173032 282.57181 
L 230.784538 282.491223 
L 230.396045 282.359171 
L 230.007552 282.186873 
L 229.619058 281.997442 
L 229.230565 281.800476 
L 228.842072 281.599278 
L 228.453579 281.39516 
L 228.065085 281.188736 
L 227.676592 280.98035 
L 227.288099 280.770201 
L 226.899606 280.558419 
L 226.511112 280.34511 
L 226.122619 280.130339 
L 225.734126 279.914177 
L 225.345633 279.696671 
L 224.957139 279.47786 
L 224.568646 279.257795 
L 224.180153 279.036509 
L 223.79166 278.81403 
L 223.403166 278.590402 
L 223.014661 278.365639 
L 222.626168 278.139793 
L 222.237675 277.912881 
L 221.849182 277.684924 
L 221.460688 277.45596 
L 221.072195 277.226008 
L 220.683702 276.995087 
L 220.295209 276.763233 
L 219.906715 276.530461 
L 219.518222 276.29679 
L 219.129729 276.06225 
L 218.741236 275.826859 
L 218.352742 275.590629 
L 217.964249 275.353593 
L 217.575756 275.115756 
L 217.187263 274.87715 
L 216.798769 274.637785 
L 216.410276 274.397673 
L 216.021783 274.156842 
L 215.633289 273.915302 
L 215.244796 273.673062 
L 214.856303 273.430148 
L 214.46781 273.186569 
L 214.079316 272.942331 
L 213.690823 272.697459 
L 213.30233 272.451959 
L 212.913837 272.205838 
L 212.525343 271.959117 
L 212.13685 271.711796 
L 211.748357 271.463896 
L 211.359864 271.215419 
L 210.97137 270.966369 
L 210.582877 270.716766 
L 210.194384 270.466611 
L 209.805891 270.215904 
L 209.417397 269.964665 
L 209.028904 269.712892 
L 208.640411 269.460585 
L 208.251918 269.20776 
L 207.863424 268.954416 
L 207.474931 268.700548 
L 207.086438 268.446173 
L 206.697944 268.191279 
L 206.309451 267.935882 
L 205.920958 267.679975 
L 205.532465 267.423554 
L 205.143971 267.16663 
L 204.755478 266.909196 
L 204.366985 266.651245 
L 203.978492 266.392788 
L 203.589998 266.133815 
L 203.201505 265.874318 
L 202.813 265.614299 
L 202.424507 265.353755 
L 202.036014 265.092686 
L 201.64752 264.831081 
L 201.259027 264.568929 
L 200.870534 264.306235 
L 200.482041 264.042986 
L 200.093547 263.779168 
L 199.705054 263.514787 
L 199.316561 263.249821 
L 198.928068 262.984273 
L 198.539574 262.718127 
L 198.151081 262.451368 
L 197.762588 262.183996 
L 197.374095 261.915995 
L 196.985601 261.647346 
L 196.597108 261.37805 
L 196.208615 261.108087 
L 195.820122 260.837438 
L 195.431628 260.566101 
L 195.043135 260.294057 
L 194.654642 260.021283 
L 194.266149 259.747777 
L 193.877655 259.473513 
L 193.489162 259.198478 
L 193.100669 258.922659 
L 192.712175 258.646032 
L 192.323682 258.368581 
L 191.935189 258.090289 
L 191.546696 257.811139 
L 191.158202 257.531107 
L 190.769709 257.250175 
L 190.381216 256.968326 
L 189.992723 256.685533 
L 189.604229 256.401778 
L 189.215736 256.117039 
L 188.827243 255.831297 
L 188.43875 255.544524 
L 188.050256 255.256698 
L 187.661763 254.967801 
L 187.27327 254.677801 
L 186.884777 254.386678 
L 186.496283 254.094406 
L 186.10779 253.800963 
L 185.719297 253.506318 
L 185.330803 253.210448 
L 184.94231 252.913329 
L 184.553817 252.614927 
L 184.165324 252.31522 
L 183.77683 252.014179 
L 183.388337 251.711779 
L 182.999832 251.407979 
L 182.611339 251.102767 
L 182.222846 250.796106 
L 181.834353 250.487969 
L 181.445859 250.178327 
L 181.057366 249.867145 
L 180.668873 249.554394 
L 180.28038 249.240048 
L 179.891886 248.924069 
L 179.503393 248.606428 
L 179.1149 248.287094 
L 178.726406 247.96604 
L 178.337913 247.643223 
L 177.94942 247.318617 
L 177.560927 246.992193 
L 177.172433 246.663908 
L 176.78394 246.333735 
L 176.395447 246.001639 
L 176.006954 245.667591 
L 175.61846 245.331549 
L 175.229967 244.993483 
L 174.841474 244.653362 
L 174.452981 244.311145 
L 174.064487 243.9668 
L 173.675994 243.620293 
L 173.287501 243.271593 
L 172.899008 242.920657 
L 172.510514 242.567455 
L 172.122021 242.211954 
L 171.733528 241.854112 
L 171.345035 241.493898 
L 170.956541 241.131277 
L 170.568048 240.766217 
L 170.179555 240.398676 
L 169.791061 240.028621 
L 169.402568 239.656024 
L 169.014075 239.280839 
L 168.625582 238.903037 
L 168.237088 238.522583 
L 167.848595 238.139448 
L 167.460102 237.753587 
L 167.071609 237.364972 
L 166.683115 236.973574 
L 166.294622 236.57935 
L 165.906129 236.182272 
L 165.517636 235.782308 
L 165.129142 235.37943 
L 164.740649 234.973598 
L 164.352156 234.564785 
L 163.963663 234.152967 
L 163.575169 233.738104 
L 163.186664 233.320161 
L 162.798171 232.899132 
L 162.409678 232.474979 
L 162.021185 232.047682 
L 161.632691 231.617206 
L 161.244198 231.183531 
L 160.855705 230.74664 
L 160.467212 230.306501 
L 160.078718 229.863099 
L 159.690225 229.416414 
L 159.301732 228.966435 
L 158.913239 228.513132 
L 158.524745 228.056494 
L 158.136252 227.59651 
L 157.747759 227.133151 
L 157.359266 226.666402 
L 156.970772 226.196241 
L 156.582279 225.722641 
L 156.193786 225.245549 
L 155.805292 224.764911 
L 155.416799 224.280644 
L 155.028306 223.792602 
L 154.639813 223.300591 
L 154.251319 222.804315 
L 153.862826 222.303333 
L 153.474333 221.797072 
L 153.08584 221.284855 
L 152.697346 220.76613 
L 152.308853 220.240719 
L 151.92036 219.708951 
L 151.531867 219.171499 
L 151.143373 218.629078 
L 150.75488 218.082291 
L 150.366387 217.531569 
L 149.977894 216.977209 
L 149.5894 216.419416 
L 149.200907 215.858321 
L 148.812414 215.294024 
L 148.423915 214.726581 
L 148.035421 214.156065 
L 147.646928 213.582505 
L 147.258435 213.005947 
L 146.869942 212.426421 
L 146.481448 211.843969 
L 146.092955 211.258622 
L 145.704462 210.670424 
L 145.315969 210.079411 
L 144.927475 209.485623 
L 144.538982 208.889109 
L 144.150489 208.289909 
L 143.761996 207.688078 
L 143.373502 207.083659 
L 142.985009 206.476711 
L 142.596516 205.867284 
L 142.208023 205.255429 
L 141.819529 204.641211 
L 141.431036 204.024679 
L 141.042543 203.405901 
L 140.654049 202.78493 
L 140.265556 202.161835 
L 139.877063 201.536675 
L 139.48857 200.909509 
L 139.100076 200.280409 
L 138.711583 199.649432 
L 138.323084 199.016641 
L 137.934591 198.38212 
L 137.546098 197.745924 
L 137.157604 197.108117 
L 136.769111 196.468773 
L 136.380618 195.827953 
L 135.992125 195.185731 
L 135.603631 194.54217 
L 135.215138 193.897344 
L 134.826645 193.251317 
L 134.438151 192.604155 
L 134.049658 191.955934 
L 133.661165 191.306716 
L 133.272672 190.656571 
L 132.884178 190.005568 
L 132.495685 189.353774 
L 132.107192 188.701258 
L 131.718699 188.048087 
L 131.330205 187.39433 
L 130.941712 186.740051 
L 130.553219 186.085319 
L 130.164726 185.430199 
L 129.776232 184.774757 
L 129.387739 184.119061 
L 128.999246 183.463173 
L 128.610753 182.807162 
L 128.222254 182.151077 
L 127.83376 181.495005 
L 127.445267 180.838997 
L 127.056774 180.183117 
L 126.66828 179.527426 
L 126.279787 178.871987 
L 125.891294 178.216857 
L 125.502801 177.562098 
L 125.114307 176.907768 
L 124.725814 176.253925 
L 124.337321 175.600628 
L 123.948828 174.947931 
L 123.560334 174.29589 
L 123.171841 173.644559 
L 122.783348 172.993991 
L 122.394855 172.344238 
L 122.006361 171.69535 
L 121.617868 171.047376 
L 121.229375 170.400363 
L 120.840882 169.754356 
L 120.452388 169.109399 
L 120.063895 168.46553 
L 119.675402 167.822785 
L 119.286908 167.181197 
L 118.898415 166.54079 
L 118.509916 165.901572 
L 118.121423 165.263567 
L 117.73293 164.626751 
L 117.344436 163.991082 
L 116.955943 163.356469 
L 116.56745 162.722736 
L 116.178957 162.089544 
L 115.790463 161.456215 
L 115.40197 160.821294 
L 115.013477 160.181369 
L 114.624984 159.528288 
L 114.23649 158.848121 
L 113.847997 158.13608 
L 113.459504 157.403502 
L 113.071011 156.66037 
L 112.682517 155.911249 
L 112.294024 155.158102 
L 111.905531 154.40186 
L 111.517037 153.643014 
L 111.128544 152.881851 
L 110.740051 152.118557 
L 110.351558 151.35326 
L 109.963064 150.586056 
L 109.574571 149.817018 
L 109.186078 149.046208 
L 108.797585 148.273681 
L 108.409086 147.499473 
L 108.020592 146.723648 
L 107.632099 145.946237 
L 107.243606 145.167277 
L 106.855113 144.386807 
L 106.466619 143.604859 
L 106.078126 142.821468 
L 105.689633 142.036669 
L 105.301139 141.250492 
L 104.912646 140.46297 
L 104.524153 139.674135 
L 104.13566 138.884018 
L 103.747166 138.092651 
L 103.358673 137.300061 
L 102.97018 136.506281 
L 102.581687 135.711339 
L 102.193193 134.915266 
L 101.8047 134.11809 
L 101.416207 133.319842 
L 101.027711 132.520545 
L 100.639217 131.720238 
L 100.250724 130.918944 
L 99.862231 130.116694 
L 99.473738 129.313512 
L 99.085244 128.509428 
L 98.696751 127.70447 
L 98.308258 126.898665 
L 97.919765 126.092042 
L 97.531271 125.284627 
L 97.142778 124.476449 
L 96.754285 123.667532 
L 96.365792 122.857905 
L 95.977295 122.047588 
L 95.588802 121.236619 
L 95.200309 120.425019 
L 94.811816 119.612814 
L 94.423322 118.800031 
L 94.034829 117.986694 
L 93.646336 117.172833 
L 93.257843 116.358465 
L 92.869349 115.543626 
L 92.480856 114.728331 
L 92.092363 113.912615 
L 91.70387 113.096498 
L 91.315376 112.279999 
L 90.92688 111.463149 
L 90.538387 110.645971 
L 90.149894 109.828496 
L 89.7614 109.010736 
L 89.372907 108.192727 
L 88.984414 107.374481 
L 88.595921 106.556032 
L 88.207427 105.7374 
L 87.818934 104.918602 
L 87.430441 104.09967 
L 87.041948 103.28062 
L 86.653454 102.461482 
L 86.264958 101.642265 
L 85.876465 100.823011 
L 85.487972 100.003728 
L 85.099478 99.184447 
L 84.710985 98.365186 
L 84.322492 97.545962 
L 83.933999 96.726806 
L 83.545505 95.90773 
L 83.157012 95.088766 
L 82.768519 94.269923 
L 82.380025 93.451234 
L 81.991532 92.632715 
L 81.603039 91.814381 
L 81.214543 90.996252 
L 80.82605 90.178365 
L 80.437556 89.360729 
L 80.049063 88.543359 
L 79.66057 87.726286 
L 79.272076 86.909519 
L 78.883583 86.093088 
L 78.49509 85.277008 
L 78.106597 84.461292 
L 77.718103 83.64597 
L 77.329609 82.831047 
L 76.941115 82.01656 
L 76.552622 81.202513 
L 76.164129 80.388936 
L 75.775636 79.575836 
L 75.387142 78.763241 
L 74.998648 77.951161 
L 74.610154 77.139622 
L 74.221661 76.328638 
L 73.833168 75.518221 
L 73.444675 74.708394 
L 73.056181 73.899184 
L 72.667688 73.090589 
L 72.279193 72.282634 
L 71.8907 71.475348 
L 71.502207 70.668726 
L 71.113714 69.862797 
L 70.72522 69.057575 
L 70.336727 68.253088 
L 69.948232 67.449321 
L 69.559739 66.64633 
L 69.171246 65.844102 
L 68.782753 65.042663 
L 68.394259 64.242036 
L 68.005766 63.442219 
L 67.617271 62.643227 
L 67.228778 61.845104 
L 66.840285 61.047835 
L 66.451792 60.251447 
L 66.063298 59.455962 
L 65.674804 58.661376 
L 65.286311 57.867713 
L 64.897818 57.074988 
L 64.509324 56.283225 
L 64.120831 55.492417 
L 63.732337 54.70259 
L 63.343844 53.913765 
L 62.95535 53.125938 
L 62.566857 52.339131 
L 62.178364 51.553358 
L 61.78987 50.768643 
L 61.401376 49.984977 
L 61.012883 49.202385 
L 60.624389 48.420889 
L 60.235896 47.640482 
L 59.847402 46.861186 
L 59.458909 46.083023 
L 59.070415 45.305978 
L 58.681922 44.53009 
L 58.293428 43.755362 
L 57.904935 42.981807 
L 57.516442 42.209445 
L 57.127948 41.438269 
L 56.739454 40.668301 
L 56.350961 39.89956 
L 55.962467 39.13204 
L 55.573974 38.365761 
L 55.185481 37.600734 
L 54.796987 36.83698 
L 54.408493 36.07449 
L 54.02 35.313284 
z
" clip-path="url(#p56136a4cbc)" style="fill: #1f77b4; fill-opacity: 0.5"/>
   </g>
   <g id="PathCollection_1">
    <defs>
     <path id="m850f147496" d="M 0 3 
C 0.795609 3 1.55874 2.683901 2.12132 2.12132 
C 2.683901 1.55874 3 0.795609 3 0 
C 3 -0.795609 2.683901 -1.55874 2.12132 -2.12132 
C 1.55874 -2.683901 0.795609 -3 0 -3 
C -0.795609 -3 -1.55874 -2.683901 -2.12132 -2.12132 
C -2.683901 -1.55874 -3 -0.795609 -3 0 
C -3 0.795609 -2.683901 1.55874 -2.12132 2.12132 
C -1.55874 2.683901 -0.795609 3 0 3 
z
" style="stroke: #000000"/>
    </defs>
    <g clip-path="url(#p56136a4cbc)">
     <use xlink:href="#m850f147496" x="151.04625" y="218.615858" style="stroke: #000000"/>
     <use xlink:href="#m850f147496" x="114.356841" y="159.177551" style="stroke: #000000"/>
     <use xlink:href="#m850f147496" x="295.797481" y="268.691163" style="stroke: #000000"/>
     <use xlink:href="#m850f147496" x="434.028159" y="41.827435" style="stroke: #000000"/>
     <use xlink:href="#m850f147496" x="154.260245" y="222.922072" style="stroke: #000000"/>
     <use xlink:href="#m850f147496" x="230.695002" y="282.581694" style="stroke: #000000"/>
    </g>
   </g>
   <g id="matplotlib.axis_1">
    <g id="xtick_1">
     <g id="line2d_1">
      <path d="M 54.02 303.64 
L 54.02 10.8 
" clip-path="url(#p56136a4cbc)" style="fill: none; stroke: #b0b0b0; stroke-width: 0.8; stroke-linecap: square"/>
     </g>
     <g id="line2d_2">
      <defs>
       <path id="mea3912e548" d="M 0 0 
L 0 3.5 
" style="stroke: #000000; stroke-width: 0.8"/>
      </defs>
      <g>
       <use xlink:href="#mea3912e548" x="54.02" y="303.64" style="stroke: #000000; stroke-width: 0.8"/>
      </g>
     </g>
     <g id="text_1">
      <!-- 0.0 -->
      <g transform="translate(46.068438 318.238437) scale(0.1 -0.1)">
       <defs>
        <path id="DejaVuSans-30" d="M 2034 4250 
Q 1547 4250 1301 3770 
Q 1056 3291 1056 2328 
Q 1056 1369 1301 889 
Q 1547 409 2034 409 
Q 2525 409 2770 889 
Q 3016 1369 3016 2328 
Q 3016 3291 2770 3770 
Q 2525 4250 2034 4250 
z
M 2034 4750 
Q 2819 4750 3233 4129 
Q 3647 3509 3647 2328 
Q 3647 1150 3233 529 
Q 2819 -91 2034 -91 
Q 1250 -91 836 529 
Q 422 1150 422 2328 
Q 422 3509 836 4129 
Q 1250 4750 2034 4750 
z
" transform="scale(0.015625)"/>
        <path id="DejaVuSans-2e" d="M 684 794 
L 1344 794 
L 1344 0 
L 684 0 
L 684 794 
z
" transform="scale(0.015625)"/>
       </defs>
       <use xlink:href="#DejaVuSans-30"/>
       <use xlink:href="#DejaVuSans-2e" x="63.623047"/>
       <use xlink:href="#DejaVuSans-30" x="95.410156"/>
      </g>
     </g>
    </g>
    <g id="xtick_2">
     <g id="line2d_3">
      <path d="M 102.533125 303.64 
L 102.533125 10.8 
" clip-path="url(#p56136a4cbc)" style="fill: none; stroke: #b0b0b0; stroke-width: 0.8; stroke-linecap: square"/>
     </g>
     <g id="line2d_4">
      <g>
       <use xlink:href="#mea3912e548" x="102.533125" y="303.64" style="stroke: #000000; stroke-width: 0.8"/>
      </g>
     </g>
     <g id="text_2">
      <!-- 0.5 -->
      <g transform="translate(94.581563 318.238437) scale(0.1 -0.1)">
       <defs>
        <path id="DejaVuSans-35" d="M 691 4666 
L 3169 4666 
L 3169 4134 
L 1269 4134 
L 1269 2991 
Q 1406 3038 1543 3061 
Q 1681 3084 1819 3084 
Q 2600 3084 3056 2656 
Q 3513 2228 3513 1497 
Q 3513 744 3044 326 
Q 2575 -91 1722 -91 
Q 1428 -91 1123 -41 
Q 819 9 494 109 
L 494 744 
Q 775 591 1075 516 
Q 1375 441 1709 441 
Q 2250 441 2565 725 
Q 2881 1009 2881 1497 
Q 2881 1984 2565 2268 
Q 2250 2553 1709 2553 
Q 1456 2553 1204 2497 
Q 953 2441 691 2322 
L 691 4666 
z
" transform="scale(0.015625)"/>
       </defs>
       <use xlink:href="#DejaVuSans-30"/>
       <use xlink:href="#DejaVuSans-2e" x="63.623047"/>
       <use xlink:href="#DejaVuSans-35" x="95.410156"/>
      </g>
     </g>
    </g>
    <g id="xtick_3">
     <g id="line2d_5">
      <path d="M 151.04625 303.64 
L 151.04625 10.8 
" clip-path="url(#p56136a4cbc)" style="fill: none; stroke: #b0b0b0; stroke-width: 0.8; stroke-linecap: square"/>
     </g>
     <g id="line2d_6">
      <g>
       <use xlink:href="#mea3912e548" x="151.04625" y="303.64" style="stroke: #000000; stroke-width: 0.8"/>
      </g>
     </g>
     <g id="text_3">
      <!-- 1.0 -->
      <g transform="translate(143.094688 318.238437) scale(0.1 -0.1)">
       <defs>
        <path id="DejaVuSans-31" d="M 794 531 
L 1825 531 
L 1825 4091 
L 703 3866 
L 703 4441 
L 1819 4666 
L 2450 4666 
L 2450 531 
L 3481 531 
L 3481 0 
L 794 0 
L 794 531 
z
" transform="scale(0.015625)"/>
       </defs>
       <use xlink:href="#DejaVuSans-31"/>
       <use xlink:href="#DejaVuSans-2e" x="63.623047"/>
       <use xlink:href="#DejaVuSans-30" x="95.410156"/>
      </g>
     </g>
    </g>
    <g id="xtick_4">
     <g id="line2d_7">
      <path d="M 199.559375 303.64 
L 199.559375 10.8 
" clip-path="url(#p56136a4cbc)" style="fill: none; stroke: #b0b0b0; stroke-width: 0.8; stroke-linecap: square"/>
     </g>
     <g id="line2d_8">
      <g>
       <use xlink:href="#mea3912e548" x="199.559375" y="303.64" style="stroke: #000000; stroke-width: 0.8"/>
      </g>
     </g>
     <g id="text_4">
      <!-- 1.5 -->
      <g transform="translate(191.607813 318.238437) scale(0.1 -0.1)">
       <use xlink:href="#DejaVuSans-31"/>
       <use xlink:href="#DejaVuSans-2e" x="63.623047"/>
       <use xlink:href="#DejaVuSans-35" x="95.410156"/>
      </g>
     </g>
    </g>
    <g id="xtick_5">
     <g id="line2d_9">
      <path d="M 248.0725 303.64 
L 248.0725 10.8 
" clip-path="url(#p56136a4cbc)" style="fill: none; stroke: #b0b0b0; stroke-width: 0.8; stroke-linecap: square"/>
     </g>
     <g id="line2d_10">
      <g>
       <use xlink:href="#mea3912e548" x="248.0725" y="303.64" style="stroke: #000000; stroke-width: 0.8"/>
      </g>
     </g>
     <g id="text_5">
      <!-- 2.0 -->
      <g transform="translate(240.120938 318.238437) scale(0.1 -0.1)">
       <defs>
        <path id="DejaVuSans-32" d="M 1228 531 
L 3431 531 
L 3431 0 
L 469 0 
L 469 531 
Q 828 903 1448 1529 
Q 2069 2156 2228 2338 
Q 2531 2678 2651 2914 
Q 2772 3150 2772 3378 
Q 2772 3750 2511 3984 
Q 2250 4219 1831 4219 
Q 1534 4219 1204 4116 
Q 875 4013 500 3803 
L 500 4441 
Q 881 4594 1212 4672 
Q 1544 4750 1819 4750 
Q 2544 4750 2975 4387 
Q 3406 4025 3406 3419 
Q 3406 3131 3298 2873 
Q 3191 2616 2906 2266 
Q 2828 2175 2409 1742 
Q 1991 1309 1228 531 
z
" transform="scale(0.015625)"/>
       </defs>
       <use xlink:href="#DejaVuSans-32"/>
       <use xlink:href="#DejaVuSans-2e" x="63.623047"/>
       <use xlink:href="#DejaVuSans-30" x="95.410156"/>
      </g>
     </g>
    </g>
    <g id="xtick_6">
     <g id="line2d_11">
      <path d="M 296.585625 303.64 
L 296.585625 10.8 
" clip-path="url(#p56136a4cbc)" style="fill: none; stroke: #b0b0b0; stroke-width: 0.8; stroke-linecap: square"/>
     </g>
     <g id="line2d_12">
      <g>
       <use xlink:href="#mea3912e548" x="296.585625" y="303.64" style="stroke: #000000; stroke-width: 0.8"/>
      </g>
     </g>
     <g id="text_6">
      <!-- 2.5 -->
      <g transform="translate(288.634062 318.238437) scale(0.1 -0.1)">
       <use xlink:href="#DejaVuSans-32"/>
       <use xlink:href="#DejaVuSans-2e" x="63.623047"/>
       <use xlink:href="#DejaVuSans-35" x="95.410156"/>
      </g>
     </g>
    </g>
    <g id="xtick_7">
     <g id="line2d_13">
      <path d="M 345.09875 303.64 
L 345.09875 10.8 
" clip-path="url(#p56136a4cbc)" style="fill: none; stroke: #b0b0b0; stroke-width: 0.8; stroke-linecap: square"/>
     </g>
     <g id="line2d_14">
      <g>
       <use xlink:href="#mea3912e548" x="345.09875" y="303.64" style="stroke: #000000; stroke-width: 0.8"/>
      </g>
     </g>
     <g id="text_7">
      <!-- 3.0 -->
      <g transform="translate(337.147187 318.238437) scale(0.1 -0.1)">
       <defs>
        <path id="DejaVuSans-33" d="M 2597 2516 
Q 3050 2419 3304 2112 
Q 3559 1806 3559 1356 
Q 3559 666 3084 287 
Q 2609 -91 1734 -91 
Q 1441 -91 1130 -33 
Q 819 25 488 141 
L 488 750 
Q 750 597 1062 519 
Q 1375 441 1716 441 
Q 2309 441 2620 675 
Q 2931 909 2931 1356 
Q 2931 1769 2642 2001 
Q 2353 2234 1838 2234 
L 1294 2234 
L 1294 2753 
L 1863 2753 
Q 2328 2753 2575 2939 
Q 2822 3125 2822 3475 
Q 2822 3834 2567 4026 
Q 2313 4219 1838 4219 
Q 1578 4219 1281 4162 
Q 984 4106 628 3988 
L 628 4550 
Q 988 4650 1302 4700 
Q 1616 4750 1894 4750 
Q 2613 4750 3031 4423 
Q 3450 4097 3450 3541 
Q 3450 3153 3228 2886 
Q 3006 2619 2597 2516 
z
" transform="scale(0.015625)"/>
       </defs>
       <use xlink:href="#DejaVuSans-33"/>
       <use xlink:href="#DejaVuSans-2e" x="63.623047"/>
       <use xlink:href="#DejaVuSans-30" x="95.410156"/>
      </g>
     </g>
    </g>
    <g id="xtick_8">
     <g id="line2d_15">
      <path d="M 393.611875 303.64 
L 393.611875 10.8 
" clip-path="url(#p56136a4cbc)" style="fill: none; stroke: #b0b0b0; stroke-width: 0.8; stroke-linecap: square"/>
     </g>
     <g id="line2d_16">
      <g>
       <use xlink:href="#mea3912e548" x="393.611875" y="303.64" style="stroke: #000000; stroke-width: 0.8"/>
      </g>
     </g>
     <g id="text_8">
      <!-- 3.5 -->
      <g transform="translate(385.660312 318.238437) scale(0.1 -0.1)">
       <use xlink:href="#DejaVuSans-33"/>
       <use xlink:href="#DejaVuSans-2e" x="63.623047"/>
       <use xlink:href="#DejaVuSans-35" x="95.410156"/>
      </g>
     </g>
    </g>
    <g id="xtick_9">
     <g id="line2d_17">
      <path d="M 442.125 303.64 
L 442.125 10.8 
" clip-path="url(#p56136a4cbc)" style="fill: none; stroke: #b0b0b0; stroke-width: 0.8; stroke-linecap: square"/>
     </g>
     <g id="line2d_18">
      <g>
       <use xlink:href="#mea3912e548" x="442.125" y="303.64" style="stroke: #000000; stroke-width: 0.8"/>
      </g>
     </g>
     <g id="text_9">
      <!-- 4.0 -->
      <g transform="translate(434.173437 318.238437) scale(0.1 -0.1)">
       <defs>
        <path id="DejaVuSans-34" d="M 2419 4116 
L 825 1625 
L 2419 1625 
L 2419 4116 
z
M 2253 4666 
L 3047 4666 
L 3047 1625 
L 3713 1625 
L 3713 1100 
L 3047 1100 
L 3047 0 
L 2419 0 
L 2419 1100 
L 313 1100 
L 313 1709 
L 2253 4666 
z
" transform="scale(0.015625)"/>
       </defs>
       <use xlink:href="#DejaVuSans-34"/>
       <use xlink:href="#DejaVuSans-2e" x="63.623047"/>
       <use xlink:href="#DejaVuSans-30" x="95.410156"/>
      </g>
     </g>
    </g>
    <g id="text_10">
     <!-- a -->
     <g transform="translate(245.008438 331.916562) scale(0.1 -0.1)">
      <defs>
       <path id="DejaVuSans-61" d="M 2194 1759 
Q 1497 1759 1228 1600 
Q 959 1441 959 1056 
Q 959 750 1161 570 
Q 1363 391 1709 391 
Q 2188 391 2477 730 
Q 2766 1069 2766 1631 
L 2766 1759 
L 2194 1759 
z
M 3341 1997 
L 3341 0 
L 2766 0 
L 2766 531 
Q 2569 213 2275 61 
Q 1981 -91 1556 -91 
Q 1019 -91 701 211 
Q 384 513 384 1019 
Q 384 1609 779 1909 
Q 1175 2209 1959 2209 
L 2766 2209 
L 2766 2266 
Q 2766 2663 2505 2880 
Q 2244 3097 1772 3097 
Q 1472 3097 1187 3025 
Q 903 2953 641 2809 
L 641 3341 
Q 956 3463 1253 3523 
Q 1550 3584 1831 3584 
Q 2591 3584 2966 3190 
Q 3341 2797 3341 1997 
z
" transform="scale(0.015625)"/>
      </defs>
      <use xlink:href="#DejaVuSans-61"/>
     </g>
    </g>
   </g>
   <g id="matplotlib.axis_2">
    <g id="ytick_1">
     <g id="line2d_19">
      <path d="M 54.02 284.697709 
L 442.125 284.697709 
" clip-path="url(#p56136a4cbc)" style="fill: none; stroke: #b0b0b0; stroke-width: 0.8; stroke-linecap: square"/>
     </g>
     <g id="line2d_20">
      <defs>
       <path id="mcbd9577be8" d="M 0 0 
L -3.5 0 
" style="stroke: #000000; stroke-width: 0.8"/>
      </defs>
      <g>
       <use xlink:href="#mcbd9577be8" x="54.02" y="284.697709" style="stroke: #000000; stroke-width: 0.8"/>
      </g>
     </g>
     <g id="text_11">
      <!-- 0.00 -->
      <g transform="translate(24.754375 288.496928) scale(0.1 -0.1)">
       <use xlink:href="#DejaVuSans-30"/>
       <use xlink:href="#DejaVuSans-2e" x="63.623047"/>
       <use xlink:href="#DejaVuSans-30" x="95.410156"/>
       <use xlink:href="#DejaVuSans-30" x="159.033203"/>
      </g>
     </g>
    </g>
    <g id="ytick_2">
     <g id="line2d_21">
      <path d="M 54.02 246.524351 
L 442.125 246.524351 
" clip-path="url(#p56136a4cbc)" style="fill: none; stroke: #b0b0b0; stroke-width: 0.8; stroke-linecap: square"/>
     </g>
     <g id="line2d_22">
      <g>
       <use xlink:href="#mcbd9577be8" x="54.02" y="246.524351" style="stroke: #000000; stroke-width: 0.8"/>
      </g>
     </g>
     <g id="text_12">
      <!-- 0.25 -->
      <g transform="translate(24.754375 250.32357) scale(0.1 -0.1)">
       <use xlink:href="#DejaVuSans-30"/>
       <use xlink:href="#DejaVuSans-2e" x="63.623047"/>
       <use xlink:href="#DejaVuSans-32" x="95.410156"/>
       <use xlink:href="#DejaVuSans-35" x="159.033203"/>
      </g>
     </g>
    </g>
    <g id="ytick_3">
     <g id="line2d_23">
      <path d="M 54.02 208.350993 
L 442.125 208.350993 
" clip-path="url(#p56136a4cbc)" style="fill: none; stroke: #b0b0b0; stroke-width: 0.8; stroke-linecap: square"/>
     </g>
     <g id="line2d_24">
      <g>
       <use xlink:href="#mcbd9577be8" x="54.02" y="208.350993" style="stroke: #000000; stroke-width: 0.8"/>
      </g>
     </g>
     <g id="text_13">
      <!-- 0.50 -->
      <g transform="translate(24.754375 212.150212) scale(0.1 -0.1)">
       <use xlink:href="#DejaVuSans-30"/>
       <use xlink:href="#DejaVuSans-2e" x="63.623047"/>
       <use xlink:href="#DejaVuSans-35" x="95.410156"/>
       <use xlink:href="#DejaVuSans-30" x="159.033203"/>
      </g>
     </g>
    </g>
    <g id="ytick_4">
     <g id="line2d_25">
      <path d="M 54.02 170.177635 
L 442.125 170.177635 
" clip-path="url(#p56136a4cbc)" style="fill: none; stroke: #b0b0b0; stroke-width: 0.8; stroke-linecap: square"/>
     </g>
     <g id="line2d_26">
      <g>
       <use xlink:href="#mcbd9577be8" x="54.02" y="170.177635" style="stroke: #000000; stroke-width: 0.8"/>
      </g>
     </g>
     <g id="text_14">
      <!-- 0.75 -->
      <g transform="translate(24.754375 173.976854) scale(0.1 -0.1)">
       <defs>
        <path id="DejaVuSans-37" d="M 525 4666 
L 3525 4666 
L 3525 4397 
L 1831 0 
L 1172 0 
L 2766 4134 
L 525 4134 
L 525 4666 
z
" transform="scale(0.015625)"/>
       </defs>
       <use xlink:href="#DejaVuSans-30"/>
       <use xlink:href="#DejaVuSans-2e" x="63.623047"/>
       <use xlink:href="#DejaVuSans-37" x="95.410156"/>
       <use xlink:href="#DejaVuSans-35" x="159.033203"/>
      </g>
     </g>
    </g>
    <g id="ytick_5">
     <g id="line2d_27">
      <path d="M 54.02 132.004278 
L 442.125 132.004278 
" clip-path="url(#p56136a4cbc)" style="fill: none; stroke: #b0b0b0; stroke-width: 0.8; stroke-linecap: square"/>
     </g>
     <g id="line2d_28">
      <g>
       <use xlink:href="#mcbd9577be8" x="54.02" y="132.004278" style="stroke: #000000; stroke-width: 0.8"/>
      </g>
     </g>
     <g id="text_15">
      <!-- 1.00 -->
      <g transform="translate(24.754375 135.803496) scale(0.1 -0.1)">
       <use xlink:href="#DejaVuSans-31"/>
       <use xlink:href="#DejaVuSans-2e" x="63.623047"/>
       <use xlink:href="#DejaVuSans-30" x="95.410156"/>
       <use xlink:href="#DejaVuSans-30" x="159.033203"/>
      </g>
     </g>
    </g>
    <g id="ytick_6">
     <g id="line2d_29">
      <path d="M 54.02 93.83092 
L 442.125 93.83092 
" clip-path="url(#p56136a4cbc)" style="fill: none; stroke: #b0b0b0; stroke-width: 0.8; stroke-linecap: square"/>
     </g>
     <g id="line2d_30">
      <g>
       <use xlink:href="#mcbd9577be8" x="54.02" y="93.83092" style="stroke: #000000; stroke-width: 0.8"/>
      </g>
     </g>
     <g id="text_16">
      <!-- 1.25 -->
      <g transform="translate(24.754375 97.630139) scale(0.1 -0.1)">
       <use xlink:href="#DejaVuSans-31"/>
       <use xlink:href="#DejaVuSans-2e" x="63.623047"/>
       <use xlink:href="#DejaVuSans-32" x="95.410156"/>
       <use xlink:href="#DejaVuSans-35" x="159.033203"/>
      </g>
     </g>
    </g>
    <g id="ytick_7">
     <g id="line2d_31">
      <path d="M 54.02 55.657562 
L 442.125 55.657562 
" clip-path="url(#p56136a4cbc)" style="fill: none; stroke: #b0b0b0; stroke-width: 0.8; stroke-linecap: square"/>
     </g>
     <g id="line2d_32">
      <g>
       <use xlink:href="#mcbd9577be8" x="54.02" y="55.657562" style="stroke: #000000; stroke-width: 0.8"/>
      </g>
     </g>
     <g id="text_17">
      <!-- 1.50 -->
      <g transform="translate(24.754375 59.456781) scale(0.1 -0.1)">
       <use xlink:href="#DejaVuSans-31"/>
       <use xlink:href="#DejaVuSans-2e" x="63.623047"/>
       <use xlink:href="#DejaVuSans-35" x="95.410156"/>
       <use xlink:href="#DejaVuSans-30" x="159.033203"/>
      </g>
     </g>
    </g>
    <g id="ytick_8">
     <g id="line2d_33">
      <path d="M 54.02 17.484204 
L 442.125 17.484204 
" clip-path="url(#p56136a4cbc)" style="fill: none; stroke: #b0b0b0; stroke-width: 0.8; stroke-linecap: square"/>
     </g>
     <g id="line2d_34">
      <g>
       <use xlink:href="#mcbd9577be8" x="54.02" y="17.484204" style="stroke: #000000; stroke-width: 0.8"/>
      </g>
     </g>
     <g id="text_18">
      <!-- 1.75 -->
      <g transform="translate(24.754375 21.283423) scale(0.1 -0.1)">
       <use xlink:href="#DejaVuSans-31"/>
       <use xlink:href="#DejaVuSans-2e" x="63.623047"/>
       <use xlink:href="#DejaVuSans-37" x="95.410156"/>
       <use xlink:href="#DejaVuSans-35" x="159.033203"/>
      </g>
     </g>
    </g>
    <g id="text_19">
     <!-- Objective -->
     <g transform="translate(18.674688 180.930156) rotate(-90) scale(0.1 -0.1)">
      <defs>
       <path id="DejaVuSans-4f" d="M 2522 4238 
Q 1834 4238 1429 3725 
Q 1025 3213 1025 2328 
Q 1025 1447 1429 934 
Q 1834 422 2522 422 
Q 3209 422 3611 934 
Q 4013 1447 4013 2328 
Q 4013 3213 3611 3725 
Q 3209 4238 2522 4238 
z
M 2522 4750 
Q 3503 4750 4090 4092 
Q 4678 3434 4678 2328 
Q 4678 1225 4090 567 
Q 3503 -91 2522 -91 
Q 1538 -91 948 565 
Q 359 1222 359 2328 
Q 359 3434 948 4092 
Q 1538 4750 2522 4750 
z
" transform="scale(0.015625)"/>
       <path id="DejaVuSans-62" d="M 3116 1747 
Q 3116 2381 2855 2742 
Q 2594 3103 2138 3103 
Q 1681 3103 1420 2742 
Q 1159 2381 1159 1747 
Q 1159 1113 1420 752 
Q 1681 391 2138 391 
Q 2594 391 2855 752 
Q 3116 1113 3116 1747 
z
M 1159 2969 
Q 1341 3281 1617 3432 
Q 1894 3584 2278 3584 
Q 2916 3584 3314 3078 
Q 3713 2572 3713 1747 
Q 3713 922 3314 415 
Q 2916 -91 2278 -91 
Q 1894 -91 1617 61 
Q 1341 213 1159 525 
L 1159 0 
L 581 0 
L 581 4863 
L 1159 4863 
L 1159 2969 
z
" transform="scale(0.015625)"/>
       <path id="DejaVuSans-6a" d="M 603 3500 
L 1178 3500 
L 1178 -63 
Q 1178 -731 923 -1031 
Q 669 -1331 103 -1331 
L -116 -1331 
L -116 -844 
L 38 -844 
Q 366 -844 484 -692 
Q 603 -541 603 -63 
L 603 3500 
z
M 603 4863 
L 1178 4863 
L 1178 4134 
L 603 4134 
L 603 4863 
z
" transform="scale(0.015625)"/>
       <path id="DejaVuSans-65" d="M 3597 1894 
L 3597 1613 
L 953 1613 
Q 991 1019 1311 708 
Q 1631 397 2203 397 
Q 2534 397 2845 478 
Q 3156 559 3463 722 
L 3463 178 
Q 3153 47 2828 -22 
Q 2503 -91 2169 -91 
Q 1331 -91 842 396 
Q 353 884 353 1716 
Q 353 2575 817 3079 
Q 1281 3584 2069 3584 
Q 2775 3584 3186 3129 
Q 3597 2675 3597 1894 
z
M 3022 2063 
Q 3016 2534 2758 2815 
Q 2500 3097 2075 3097 
Q 1594 3097 1305 2825 
Q 1016 2553 972 2059 
L 3022 2063 
z
" transform="scale(0.015625)"/>
       <path id="DejaVuSans-63" d="M 3122 3366 
L 3122 2828 
Q 2878 2963 2633 3030 
Q 2388 3097 2138 3097 
Q 1578 3097 1268 2742 
Q 959 2388 959 1747 
Q 959 1106 1268 751 
Q 1578 397 2138 397 
Q 2388 397 2633 464 
Q 2878 531 3122 666 
L 3122 134 
Q 2881 22 2623 -34 
Q 2366 -91 2075 -91 
Q 1284 -91 818 406 
Q 353 903 353 1747 
Q 353 2603 823 3093 
Q 1294 3584 2113 3584 
Q 2378 3584 2631 3529 
Q 2884 3475 3122 3366 
z
" transform="scale(0.015625)"/>
       <path id="DejaVuSans-74" d="M 1172 4494 
L 1172 3500 
L 2356 3500 
L 2356 3053 
L 1172 3053 
L 1172 1153 
Q 1172 725 1289 603 
Q 1406 481 1766 481 
L 2356 481 
L 2356 0 
L 1766 0 
Q 1100 0 847 248 
Q 594 497 594 1153 
L 594 3053 
L 172 3053 
L 172 3500 
L 594 3500 
L 594 4494 
L 1172 4494 
z
" transform="scale(0.015625)"/>
       <path id="DejaVuSans-69" d="M 603 3500 
L 1178 3500 
L 1178 0 
L 603 0 
L 603 3500 
z
M 603 4863 
L 1178 4863 
L 1178 4134 
L 603 4134 
L 603 4863 
z
" transform="scale(0.015625)"/>
       <path id="DejaVuSans-76" d="M 191 3500 
L 800 3500 
L 1894 563 
L 2988 3500 
L 3597 3500 
L 2284 0 
L 1503 0 
L 191 3500 
z
" transform="scale(0.015625)"/>
      </defs>
      <use xlink:href="#DejaVuSans-4f"/>
      <use xlink:href="#DejaVuSans-62" x="78.710938"/>
      <use xlink:href="#DejaVuSans-6a" x="142.1875"/>
      <use xlink:href="#DejaVuSans-65" x="169.970703"/>
      <use xlink:href="#DejaVuSans-63" x="231.494141"/>
      <use xlink:href="#DejaVuSans-74" x="286.474609"/>
      <use xlink:href="#DejaVuSans-69" x="325.683594"/>
      <use xlink:href="#DejaVuSans-76" x="353.466797"/>
      <use xlink:href="#DejaVuSans-65" x="412.646484"/>
     </g>
    </g>
   </g>
   <g id="line2d_35">
    <path d="M 54.02 64.150873 
L 59.458909 71.181587 
L 64.897818 78.58029 
L 70.72522 86.904205 
L 76.552622 95.620655 
L 82.768519 105.322762 
L 89.372907 116.044906 
L 96.754285 128.457428 
L 105.689633 143.931659 
L 129.387739 185.229418 
L 135.603631 195.48139 
L 141.042543 204.048024 
L 146.092955 211.603601 
L 150.75488 218.206325 
L 155.416799 224.443495 
L 160.078718 230.32244 
L 164.740649 235.854552 
L 169.402568 241.051407 
L 174.064487 245.924557 
L 178.726406 250.485282 
L 183.388337 254.744372 
L 188.050256 258.711906 
L 192.712175 262.397113 
L 197.374095 265.808115 
L 202.036014 268.951757 
L 206.697944 271.833417 
L 211.359864 274.456779 
L 216.021783 276.823651 
L 220.683702 278.933757 
L 225.345633 280.784518 
L 229.619058 282.248884 
L 233.892484 283.485073 
L 238.16591 284.485056 
L 242.050843 285.180851 
L 245.935787 285.664695 
L 249.82072 285.927163 
L 253.705652 285.958196 
L 257.590585 285.7473 
L 261.087024 285.34179 
L 264.583487 284.723811 
L 268.079926 283.885665 
L 271.576365 282.819904 
L 275.072805 281.519463 
L 278.569244 279.977799 
L 282.065684 278.189052 
L 285.562123 276.148144 
L 289.058562 273.851001 
L 292.555002 271.294633 
L 296.051441 268.477375 
L 299.936374 265.040923 
L 303.821329 261.284096 
L 307.706262 257.21116 
L 311.591195 252.828357 
L 315.86462 247.659098 
L 320.138046 242.137829 
L 324.799965 235.731144 
L 329.461885 228.946114 
L 334.512297 221.197432 
L 339.951203 212.427853 
L 345.778625 202.593616 
L 351.994517 191.669696 
L 358.987396 178.93669 
L 367.534247 162.892547 
L 379.966032 139.012557 
L 397.836745 104.712099 
L 406.77209 88.068863 
L 414.153462 74.775085 
L 420.757847 63.321074 
L 426.973763 52.98226 
L 432.801162 43.721188 
L 438.240067 35.482867 
L 442.125 29.849351 
L 442.125 29.849351 
" clip-path="url(#p56136a4cbc)" style="fill: none; stroke: #1f77b4; stroke-width: 1.5; stroke-linecap: square"/>
   </g>
   <g id="patch_3">
    <path d="M 54.02 303.64 
L 54.02 10.8 
" style="fill: none; stroke: #000000; stroke-width: 0.8; stroke-linejoin: miter; stroke-linecap: square"/>
   </g>
   <g id="patch_4">
    <path d="M 442.125 303.64 
L 442.125 10.8 
" style="fill: none; stroke: #000000; stroke-width: 0.8; stroke-linejoin: miter; stroke-linecap: square"/>
   </g>
   <g id="patch_5">
    <path d="M 54.02 303.64 
L 442.125 303.64 
" style="fill: none; stroke: #000000; stroke-width: 0.8; stroke-linejoin: miter; stroke-linecap: square"/>
   </g>
   <g id="patch_6">
    <path d="M 54.02 10.8 
L 442.125 10.8 
" style="fill: none; stroke: #000000; stroke-width: 0.8; stroke-linejoin: miter; stroke-linecap: square"/>
   </g>
   <g id="legend_1">
    <g id="patch_7">
     <path d="M 61.02 48.15625 
L 190.784063 48.15625 
Q 192.784063 48.15625 192.784063 46.15625 
L 192.784063 17.8 
Q 192.784063 15.8 190.784063 15.8 
L 61.02 15.8 
Q 59.02 15.8 59.02 17.8 
L 59.02 46.15625 
Q 59.02 48.15625 61.02 48.15625 
z
" style="fill: #ffffff; opacity: 0.8; stroke: #cccccc; stroke-linejoin: miter"/>
    </g>
    <g id="line2d_36">
     <path d="M 63.02 23.898438 
L 73.02 23.898438 
L 83.02 23.898438 
" style="fill: none; stroke: #1f77b4; stroke-width: 1.5; stroke-linecap: square"/>
    </g>
    <g id="text_20">
     <!-- Objective: Mean -->
     <g transform="translate(91.02 27.398438) scale(0.1 -0.1)">
      <defs>
       <path id="DejaVuSans-3a" d="M 750 794 
L 1409 794 
L 1409 0 
L 750 0 
L 750 794 
z
M 750 3309 
L 1409 3309 
L 1409 2516 
L 750 2516 
L 750 3309 
z
" transform="scale(0.015625)"/>
       <path id="DejaVuSans-20" transform="scale(0.015625)"/>
       <path id="DejaVuSans-4d" d="M 628 4666 
L 1569 4666 
L 2759 1491 
L 3956 4666 
L 4897 4666 
L 4897 0 
L 4281 0 
L 4281 4097 
L 3078 897 
L 2444 897 
L 1241 4097 
L 1241 0 
L 628 0 
L 628 4666 
z
" transform="scale(0.015625)"/>
       <path id="DejaVuSans-6e" d="M 3513 2113 
L 3513 0 
L 2938 0 
L 2938 2094 
Q 2938 2591 2744 2837 
Q 2550 3084 2163 3084 
Q 1697 3084 1428 2787 
Q 1159 2491 1159 1978 
L 1159 0 
L 581 0 
L 581 3500 
L 1159 3500 
L 1159 2956 
Q 1366 3272 1645 3428 
Q 1925 3584 2291 3584 
Q 2894 3584 3203 3211 
Q 3513 2838 3513 2113 
z
" transform="scale(0.015625)"/>
      </defs>
      <use xlink:href="#DejaVuSans-4f"/>
      <use xlink:href="#DejaVuSans-62" x="78.710938"/>
      <use xlink:href="#DejaVuSans-6a" x="142.1875"/>
      <use xlink:href="#DejaVuSans-65" x="169.970703"/>
      <use xlink:href="#DejaVuSans-63" x="231.494141"/>
      <use xlink:href="#DejaVuSans-74" x="286.474609"/>
      <use xlink:href="#DejaVuSans-69" x="325.683594"/>
      <use xlink:href="#DejaVuSans-76" x="353.466797"/>
      <use xlink:href="#DejaVuSans-65" x="412.646484"/>
      <use xlink:href="#DejaVuSans-3a" x="474.169922"/>
      <use xlink:href="#DejaVuSans-20" x="507.861328"/>
      <use xlink:href="#DejaVuSans-4d" x="539.648438"/>
      <use xlink:href="#DejaVuSans-65" x="625.927734"/>
      <use xlink:href="#DejaVuSans-61" x="687.451172"/>
      <use xlink:href="#DejaVuSans-6e" x="748.730469"/>
     </g>
    </g>
    <g id="patch_8">
     <path d="M 63.02 42.076563 
L 83.02 42.076563 
L 83.02 35.076563 
L 63.02 35.076563 
z
" style="fill: #1f77b4; fill-opacity: 0.5"/>
    </g>
    <g id="text_21">
     <!-- Objective: Std. dev. -->
     <g transform="translate(91.02 42.076563) scale(0.1 -0.1)">
      <defs>
       <path id="DejaVuSans-53" d="M 3425 4513 
L 3425 3897 
Q 3066 4069 2747 4153 
Q 2428 4238 2131 4238 
Q 1616 4238 1336 4038 
Q 1056 3838 1056 3469 
Q 1056 3159 1242 3001 
Q 1428 2844 1947 2747 
L 2328 2669 
Q 3034 2534 3370 2195 
Q 3706 1856 3706 1288 
Q 3706 609 3251 259 
Q 2797 -91 1919 -91 
Q 1588 -91 1214 -16 
Q 841 59 441 206 
L 441 856 
Q 825 641 1194 531 
Q 1563 422 1919 422 
Q 2459 422 2753 634 
Q 3047 847 3047 1241 
Q 3047 1584 2836 1778 
Q 2625 1972 2144 2069 
L 1759 2144 
Q 1053 2284 737 2584 
Q 422 2884 422 3419 
Q 422 4038 858 4394 
Q 1294 4750 2059 4750 
Q 2388 4750 2728 4690 
Q 3069 4631 3425 4513 
z
" transform="scale(0.015625)"/>
       <path id="DejaVuSans-64" d="M 2906 2969 
L 2906 4863 
L 3481 4863 
L 3481 0 
L 2906 0 
L 2906 525 
Q 2725 213 2448 61 
Q 2172 -91 1784 -91 
Q 1150 -91 751 415 
Q 353 922 353 1747 
Q 353 2572 751 3078 
Q 1150 3584 1784 3584 
Q 2172 3584 2448 3432 
Q 2725 3281 2906 2969 
z
M 947 1747 
Q 947 1113 1208 752 
Q 1469 391 1925 391 
Q 2381 391 2643 752 
Q 2906 1113 2906 1747 
Q 2906 2381 2643 2742 
Q 2381 3103 1925 3103 
Q 1469 3103 1208 2742 
Q 947 2381 947 1747 
z
" transform="scale(0.015625)"/>
      </defs>
      <use xlink:href="#DejaVuSans-4f"/>
      <use xlink:href="#DejaVuSans-62" x="78.710938"/>
      <use xlink:href="#DejaVuSans-6a" x="142.1875"/>
      <use xlink:href="#DejaVuSans-65" x="169.970703"/>
      <use xlink:href="#DejaVuSans-63" x="231.494141"/>
      <use xlink:href="#DejaVuSans-74" x="286.474609"/>
      <use xlink:href="#DejaVuSans-69" x="325.683594"/>
      <use xlink:href="#DejaVuSans-76" x="353.466797"/>
      <use xlink:href="#DejaVuSans-65" x="412.646484"/>
      <use xlink:href="#DejaVuSans-3a" x="474.169922"/>
      <use xlink:href="#DejaVuSans-20" x="507.861328"/>
      <use xlink:href="#DejaVuSans-53" x="539.648438"/>
      <use xlink:href="#DejaVuSans-74" x="603.125"/>
      <use xlink:href="#DejaVuSans-64" x="642.333984"/>
      <use xlink:href="#DejaVuSans-2e" x="705.810547"/>
      <use xlink:href="#DejaVuSans-20" x="737.597656"/>
      <use xlink:href="#DejaVuSans-64" x="769.384766"/>
      <use xlink:href="#DejaVuSans-65" x="832.861328"/>
      <use xlink:href="#DejaVuSans-76" x="894.384766"/>
      <use xlink:href="#DejaVuSans-2e" x="945.814453"/>
     </g>
    </g>
   </g>
  </g>
 </g>
 <defs>
  <clipPath id="p56136a4cbc">
   <rect x="54.02" y="10.8" width="388.105" height="292.84"/>
  </clipPath>
 </defs>
</svg>
