<?xml version="1.0" encoding="utf-8" standalone="no"?>
<!DOCTYPE svg PUBLIC "-//W3C//DTD SVG 1.1//EN"
  "http://www.w3.org/Graphics/SVG/1.1/DTD/svg11.dtd">
<svg xmlns:xlink="http://www.w3.org/1999/xlink" width="460.8pt" height="345.6pt" viewBox="0 0 460.8 345.6" xmlns="http://www.w3.org/2000/svg" version="1.1">
 <metadata>
  <rdf:RDF xmlns:dc="http://purl.org/dc/elements/1.1/" xmlns:cc="http://creativecommons.org/ns#" xmlns:rdf="http://www.w3.org/1999/02/22-rdf-syntax-ns#">
   <cc:Work>
    <dc:type rdf:resource="http://purl.org/dc/dcmitype/StillImage"/>
    <dc:date>2024-02-06T09:24:38.776891</dc:date>
    <dc:format>image/svg+xml</dc:format>
    <dc:creator>
     <cc:Agent>
      <dc:title>Matplotlib v3.8.2, https://matplotlib.org/</dc:title>
     </cc:Agent>
    </dc:creator>
   </cc:Work>
  </rdf:RDF>
 </metadata>
 <defs>
  <style type="text/css">*{stroke-linejoin: round; stroke-linecap: butt}</style>
 </defs>
 <g id="figure_1">
  <g id="patch_1">
   <path d="M 0 345.6 
L 460.8 345.6 
L 460.8 0 
L 0 0 
z
" style="fill: #ffffff"/>
  </g>
  <g id="axes_1">
   <g id="patch_2">
    <path d="M 57.6 307.584 
L 414.72 307.584 
L 414.72 41.472 
L 57.6 41.472 
z
" style="fill: #ffffff"/>
   </g>
   <g id="PolyCollection_1">
    <defs>
     <path id="ma5d7dae596" d="M 73.832727 -292.032 
L 73.832727 -171.065829 
L 77.112066 -166.227676 
L 80.391405 -161.48826 
L 83.670744 -156.847583 
L 86.950083 -152.305643 
L 90.229421 -147.862441 
L 93.50876 -143.517977 
L 96.788099 -139.272251 
L 100.067438 -135.125263 
L 103.346777 -131.077012 
L 106.626116 -127.127499 
L 109.905455 -123.276724 
L 113.184793 -119.524687 
L 116.464132 -115.871388 
L 119.743471 -112.316826 
L 123.02281 -108.861003 
L 126.302149 -105.503917 
L 129.581488 -102.245569 
L 132.860826 -99.085958 
L 136.140165 -96.025086 
L 139.419504 -93.062951 
L 142.698843 -90.199555 
L 145.978182 -87.434896 
L 149.257521 -84.768975 
L 152.53686 -82.201791 
L 155.816198 -79.733346 
L 159.095537 -77.363638 
L 162.374876 -75.092668 
L 165.654215 -72.920436 
L 168.933554 -70.846942 
L 172.212893 -68.872186 
L 175.492231 -66.996167 
L 178.77157 -65.218886 
L 182.050909 -63.540343 
L 185.330248 -61.960538 
L 188.609587 -60.479471 
L 191.888926 -59.097142 
L 195.168264 -57.81355 
L 198.447603 -56.628696 
L 201.726942 -55.54258 
L 205.006281 -54.555202 
L 208.28562 -53.666562 
L 211.564959 -52.876659 
L 214.844298 -52.185494 
L 218.123636 -51.593067 
L 221.402975 -51.099378 
L 224.682314 -50.704427 
L 227.961653 -50.408213 
L 231.240992 -50.210738 
L 234.520331 -50.112 
L 237.799669 -50.112 
L 241.079008 -50.210738 
L 244.358347 -50.408213 
L 247.637686 -50.704427 
L 250.917025 -51.099378 
L 254.196364 -51.593067 
L 257.475702 -52.185494 
L 260.755041 -52.876659 
L 264.03438 -53.666562 
L 267.313719 -54.555202 
L 270.593058 -55.54258 
L 273.872397 -56.628696 
L 277.151736 -57.81355 
L 280.431074 -59.097142 
L 283.710413 -60.479471 
L 286.989752 -61.960538 
L 290.269091 -63.540343 
L 293.54843 -65.218886 
L 296.827769 -66.996167 
L 300.107107 -68.872186 
L 303.386446 -70.846942 
L 306.665785 -72.920436 
L 309.945124 -75.092668 
L 313.224463 -77.363638 
L 316.503802 -79.733346 
L 319.78314 -82.201791 
L 323.062479 -84.768975 
L 326.341818 -87.434896 
L 329.621157 -90.199555 
L 332.900496 -93.062951 
L 336.179835 -96.025086 
L 339.459174 -99.085958 
L 342.738512 -102.245569 
L 346.017851 -105.503917 
L 349.29719 -108.861003 
L 352.576529 -112.316826 
L 355.855868 -115.871388 
L 359.135207 -119.524687 
L 362.414545 -123.276724 
L 365.693884 -127.127499 
L 368.973223 -131.077012 
L 372.252562 -135.125263 
L 375.531901 -139.272251 
L 378.81124 -143.517977 
L 382.090579 -147.862441 
L 385.369917 -152.305643 
L 388.649256 -156.847583 
L 391.928595 -161.48826 
L 395.207934 -166.227676 
L 398.487273 -171.065829 
L 398.487273 -292.032 
L 398.487273 -292.032 
L 395.207934 -282.355694 
L 391.928595 -272.876863 
L 388.649256 -263.595508 
L 385.369917 -254.511629 
L 382.090579 -245.625225 
L 378.81124 -236.936297 
L 375.531901 -228.444844 
L 372.252562 -220.150867 
L 368.973223 -212.054366 
L 365.693884 -204.155341 
L 362.414545 -196.453791 
L 359.135207 -188.949716 
L 355.855868 -181.643118 
L 352.576529 -174.533995 
L 349.29719 -167.622347 
L 346.017851 -160.908176 
L 342.738512 -154.39148 
L 339.459174 -148.072259 
L 336.179835 -141.950514 
L 332.900496 -136.026245 
L 329.621157 -130.299452 
L 326.341818 -124.770134 
L 323.062479 -119.438292 
L 319.78314 -114.303925 
L 316.503802 -109.367034 
L 313.224463 -104.627619 
L 309.945124 -100.085679 
L 306.665785 -95.741215 
L 303.386446 -91.594226 
L 300.107107 -87.644714 
L 296.827769 -83.892676 
L 293.54843 -80.338115 
L 290.269091 -76.981029 
L 286.989752 -73.821419 
L 283.710413 -70.859284 
L 280.431074 -68.094625 
L 277.151736 -65.527442 
L 273.872397 -63.157734 
L 270.593058 -60.985502 
L 267.313719 -59.010746 
L 264.03438 -57.233465 
L 260.755041 -55.65366 
L 257.475702 -54.271331 
L 254.196364 -53.086477 
L 250.917025 -52.099099 
L 247.637686 -51.309196 
L 244.358347 -50.716769 
L 241.079008 -50.321818 
L 237.799669 -50.124342 
L 234.520331 -50.124342 
L 231.240992 -50.321818 
L 227.961653 -50.716769 
L 224.682314 -51.309196 
L 221.402975 -52.099099 
L 218.123636 -53.086477 
L 214.844298 -54.271331 
L 211.564959 -55.65366 
L 208.28562 -57.233465 
L 205.006281 -59.010746 
L 201.726942 -60.985502 
L 198.447603 -63.157734 
L 195.168264 -65.527442 
L 191.888926 -68.094625 
L 188.609587 -70.859284 
L 185.330248 -73.821419 
L 182.050909 -76.981029 
L 178.77157 -80.338115 
L 175.492231 -83.892676 
L 172.212893 -87.644714 
L 168.933554 -91.594226 
L 165.654215 -95.741215 
L 162.374876 -100.085679 
L 159.095537 -104.627619 
L 155.816198 -109.367034 
L 152.53686 -114.303925 
L 149.257521 -119.438292 
L 145.978182 -124.770134 
L 142.698843 -130.299452 
L 139.419504 -136.026245 
L 136.140165 -141.950514 
L 132.860826 -148.072259 
L 129.581488 -154.39148 
L 126.302149 -160.908176 
L 123.02281 -167.622347 
L 119.743471 -174.533995 
L 116.464132 -181.643118 
L 113.184793 -188.949716 
L 109.905455 -196.453791 
L 106.626116 -204.155341 
L 103.346777 -212.054366 
L 100.067438 -220.150867 
L 96.788099 -228.444844 
L 93.50876 -236.936297 
L 90.229421 -245.625225 
L 86.950083 -254.511629 
L 83.670744 -263.595508 
L 80.391405 -272.876863 
L 77.112066 -282.355694 
L 73.832727 -292.032 
z
" style="stroke: #ff0000; stroke-opacity: 0.2"/>
    </defs>
    <g clip-path="url(#p03370cc8c6)">
     <use xlink:href="#ma5d7dae596" x="0" y="345.6" style="fill: #ff0000; fill-opacity: 0.2; stroke: #ff0000; stroke-opacity: 0.2"/>
    </g>
   </g>
   <g id="matplotlib.axis_1">
    <g id="xtick_1">
     <g id="line2d_1">
      <path d="M 106.298182 307.584 
L 106.298182 41.472 
" clip-path="url(#p03370cc8c6)" style="fill: none; stroke: #b0b0b0; stroke-width: 0.8; stroke-linecap: square"/>
     </g>
     <g id="line2d_2">
      <defs>
       <path id="mdb0c0bc289" d="M 0 0 
L 0 3.5 
" style="stroke: #000000; stroke-width: 0.8"/>
      </defs>
      <g>
       <use xlink:href="#mdb0c0bc289" x="106.298182" y="307.584" style="stroke: #000000; stroke-width: 0.8"/>
      </g>
     </g>
     <g id="text_1">
      <!-- −4 -->
      <g transform="translate(98.927088 322.182437) scale(0.1 -0.1)">
       <defs>
        <path id="DejaVuSans-2212" d="M 678 2272 
L 4684 2272 
L 4684 1741 
L 678 1741 
L 678 2272 
z
" transform="scale(0.015625)"/>
        <path id="DejaVuSans-34" d="M 2419 4116 
L 825 1625 
L 2419 1625 
L 2419 4116 
z
M 2253 4666 
L 3047 4666 
L 3047 1625 
L 3713 1625 
L 3713 1100 
L 3047 1100 
L 3047 0 
L 2419 0 
L 2419 1100 
L 313 1100 
L 313 1709 
L 2253 4666 
z
" transform="scale(0.015625)"/>
       </defs>
       <use xlink:href="#DejaVuSans-2212"/>
       <use xlink:href="#DejaVuSans-34" x="83.789062"/>
      </g>
     </g>
    </g>
    <g id="xtick_2">
     <g id="line2d_3">
      <path d="M 171.229091 307.584 
L 171.229091 41.472 
" clip-path="url(#p03370cc8c6)" style="fill: none; stroke: #b0b0b0; stroke-width: 0.8; stroke-linecap: square"/>
     </g>
     <g id="line2d_4">
      <g>
       <use xlink:href="#mdb0c0bc289" x="171.229091" y="307.584" style="stroke: #000000; stroke-width: 0.8"/>
      </g>
     </g>
     <g id="text_2">
      <!-- −2 -->
      <g transform="translate(163.857997 322.182437) scale(0.1 -0.1)">
       <defs>
        <path id="DejaVuSans-32" d="M 1228 531 
L 3431 531 
L 3431 0 
L 469 0 
L 469 531 
Q 828 903 1448 1529 
Q 2069 2156 2228 2338 
Q 2531 2678 2651 2914 
Q 2772 3150 2772 3378 
Q 2772 3750 2511 3984 
Q 2250 4219 1831 4219 
Q 1534 4219 1204 4116 
Q 875 4013 500 3803 
L 500 4441 
Q 881 4594 1212 4672 
Q 1544 4750 1819 4750 
Q 2544 4750 2975 4387 
Q 3406 4025 3406 3419 
Q 3406 3131 3298 2873 
Q 3191 2616 2906 2266 
Q 2828 2175 2409 1742 
Q 1991 1309 1228 531 
z
" transform="scale(0.015625)"/>
       </defs>
       <use xlink:href="#DejaVuSans-2212"/>
       <use xlink:href="#DejaVuSans-32" x="83.789062"/>
      </g>
     </g>
    </g>
    <g id="xtick_3">
     <g id="line2d_5">
      <path d="M 236.16 307.584 
L 236.16 41.472 
" clip-path="url(#p03370cc8c6)" style="fill: none; stroke: #b0b0b0; stroke-width: 0.8; stroke-linecap: square"/>
     </g>
     <g id="line2d_6">
      <g>
       <use xlink:href="#mdb0c0bc289" x="236.16" y="307.584" style="stroke: #000000; stroke-width: 0.8"/>
      </g>
     </g>
     <g id="text_3">
      <!-- 0 -->
      <g transform="translate(232.97875 322.182437) scale(0.1 -0.1)">
       <defs>
        <path id="DejaVuSans-30" d="M 2034 4250 
Q 1547 4250 1301 3770 
Q 1056 3291 1056 2328 
Q 1056 1369 1301 889 
Q 1547 409 2034 409 
Q 2525 409 2770 889 
Q 3016 1369 3016 2328 
Q 3016 3291 2770 3770 
Q 2525 4250 2034 4250 
z
M 2034 4750 
Q 2819 4750 3233 4129 
Q 3647 3509 3647 2328 
Q 3647 1150 3233 529 
Q 2819 -91 2034 -91 
Q 1250 -91 836 529 
Q 422 1150 422 2328 
Q 422 3509 836 4129 
Q 1250 4750 2034 4750 
z
" transform="scale(0.015625)"/>
       </defs>
       <use xlink:href="#DejaVuSans-30"/>
      </g>
     </g>
    </g>
    <g id="xtick_4">
     <g id="line2d_7">
      <path d="M 301.090909 307.584 
L 301.090909 41.472 
" clip-path="url(#p03370cc8c6)" style="fill: none; stroke: #b0b0b0; stroke-width: 0.8; stroke-linecap: square"/>
     </g>
     <g id="line2d_8">
      <g>
       <use xlink:href="#mdb0c0bc289" x="301.090909" y="307.584" style="stroke: #000000; stroke-width: 0.8"/>
      </g>
     </g>
     <g id="text_4">
      <!-- 2 -->
      <g transform="translate(297.909659 322.182437) scale(0.1 -0.1)">
       <use xlink:href="#DejaVuSans-32"/>
      </g>
     </g>
    </g>
    <g id="xtick_5">
     <g id="line2d_9">
      <path d="M 366.021818 307.584 
L 366.021818 41.472 
" clip-path="url(#p03370cc8c6)" style="fill: none; stroke: #b0b0b0; stroke-width: 0.8; stroke-linecap: square"/>
     </g>
     <g id="line2d_10">
      <g>
       <use xlink:href="#mdb0c0bc289" x="366.021818" y="307.584" style="stroke: #000000; stroke-width: 0.8"/>
      </g>
     </g>
     <g id="text_5">
      <!-- 4 -->
      <g transform="translate(362.840568 322.182437) scale(0.1 -0.1)">
       <use xlink:href="#DejaVuSans-34"/>
      </g>
     </g>
    </g>
   </g>
   <g id="matplotlib.axis_2">
    <g id="ytick_1">
     <g id="line2d_11">
      <path d="M 57.6 295.500342 
L 414.72 295.500342 
" clip-path="url(#p03370cc8c6)" style="fill: none; stroke: #b0b0b0; stroke-width: 0.8; stroke-linecap: square"/>
     </g>
     <g id="line2d_12">
      <defs>
       <path id="m10f69fd09e" d="M 0 0 
L -3.5 0 
" style="stroke: #000000; stroke-width: 0.8"/>
      </defs>
      <g>
       <use xlink:href="#m10f69fd09e" x="57.6" y="295.500342" style="stroke: #000000; stroke-width: 0.8"/>
      </g>
     </g>
     <g id="text_6">
      <!-- 0 -->
      <g transform="translate(44.2375 299.299561) scale(0.1 -0.1)">
       <use xlink:href="#DejaVuSans-30"/>
      </g>
     </g>
    </g>
    <g id="ytick_2">
     <g id="line2d_13">
      <path d="M 57.6 259.005586 
L 414.72 259.005586 
" clip-path="url(#p03370cc8c6)" style="fill: none; stroke: #b0b0b0; stroke-width: 0.8; stroke-linecap: square"/>
     </g>
     <g id="line2d_14">
      <g>
       <use xlink:href="#m10f69fd09e" x="57.6" y="259.005586" style="stroke: #000000; stroke-width: 0.8"/>
      </g>
     </g>
     <g id="text_7">
      <!-- 10 -->
      <g transform="translate(37.875 262.804805) scale(0.1 -0.1)">
       <defs>
        <path id="DejaVuSans-31" d="M 794 531 
L 1825 531 
L 1825 4091 
L 703 3866 
L 703 4441 
L 1819 4666 
L 2450 4666 
L 2450 531 
L 3481 531 
L 3481 0 
L 794 0 
L 794 531 
z
" transform="scale(0.015625)"/>
       </defs>
       <use xlink:href="#DejaVuSans-31"/>
       <use xlink:href="#DejaVuSans-30" x="63.623047"/>
      </g>
     </g>
    </g>
    <g id="ytick_3">
     <g id="line2d_15">
      <path d="M 57.6 222.51083 
L 414.72 222.51083 
" clip-path="url(#p03370cc8c6)" style="fill: none; stroke: #b0b0b0; stroke-width: 0.8; stroke-linecap: square"/>
     </g>
     <g id="line2d_16">
      <g>
       <use xlink:href="#m10f69fd09e" x="57.6" y="222.51083" style="stroke: #000000; stroke-width: 0.8"/>
      </g>
     </g>
     <g id="text_8">
      <!-- 20 -->
      <g transform="translate(37.875 226.310049) scale(0.1 -0.1)">
       <use xlink:href="#DejaVuSans-32"/>
       <use xlink:href="#DejaVuSans-30" x="63.623047"/>
      </g>
     </g>
    </g>
    <g id="ytick_4">
     <g id="line2d_17">
      <path d="M 57.6 186.016074 
L 414.72 186.016074 
" clip-path="url(#p03370cc8c6)" style="fill: none; stroke: #b0b0b0; stroke-width: 0.8; stroke-linecap: square"/>
     </g>
     <g id="line2d_18">
      <g>
       <use xlink:href="#m10f69fd09e" x="57.6" y="186.016074" style="stroke: #000000; stroke-width: 0.8"/>
      </g>
     </g>
     <g id="text_9">
      <!-- 30 -->
      <g transform="translate(37.875 189.815293) scale(0.1 -0.1)">
       <defs>
        <path id="DejaVuSans-33" d="M 2597 2516 
Q 3050 2419 3304 2112 
Q 3559 1806 3559 1356 
Q 3559 666 3084 287 
Q 2609 -91 1734 -91 
Q 1441 -91 1130 -33 
Q 819 25 488 141 
L 488 750 
Q 750 597 1062 519 
Q 1375 441 1716 441 
Q 2309 441 2620 675 
Q 2931 909 2931 1356 
Q 2931 1769 2642 2001 
Q 2353 2234 1838 2234 
L 1294 2234 
L 1294 2753 
L 1863 2753 
Q 2328 2753 2575 2939 
Q 2822 3125 2822 3475 
Q 2822 3834 2567 4026 
Q 2313 4219 1838 4219 
Q 1578 4219 1281 4162 
Q 984 4106 628 3988 
L 628 4550 
Q 988 4650 1302 4700 
Q 1616 4750 1894 4750 
Q 2613 4750 3031 4423 
Q 3450 4097 3450 3541 
Q 3450 3153 3228 2886 
Q 3006 2619 2597 2516 
z
" transform="scale(0.015625)"/>
       </defs>
       <use xlink:href="#DejaVuSans-33"/>
       <use xlink:href="#DejaVuSans-30" x="63.623047"/>
      </g>
     </g>
    </g>
    <g id="ytick_5">
     <g id="line2d_19">
      <path d="M 57.6 149.521318 
L 414.72 149.521318 
" clip-path="url(#p03370cc8c6)" style="fill: none; stroke: #b0b0b0; stroke-width: 0.8; stroke-linecap: square"/>
     </g>
     <g id="line2d_20">
      <g>
       <use xlink:href="#m10f69fd09e" x="57.6" y="149.521318" style="stroke: #000000; stroke-width: 0.8"/>
      </g>
     </g>
     <g id="text_10">
      <!-- 40 -->
      <g transform="translate(37.875 153.320536) scale(0.1 -0.1)">
       <use xlink:href="#DejaVuSans-34"/>
       <use xlink:href="#DejaVuSans-30" x="63.623047"/>
      </g>
     </g>
    </g>
    <g id="ytick_6">
     <g id="line2d_21">
      <path d="M 57.6 113.026562 
L 414.72 113.026562 
" clip-path="url(#p03370cc8c6)" style="fill: none; stroke: #b0b0b0; stroke-width: 0.8; stroke-linecap: square"/>
     </g>
     <g id="line2d_22">
      <g>
       <use xlink:href="#m10f69fd09e" x="57.6" y="113.026562" style="stroke: #000000; stroke-width: 0.8"/>
      </g>
     </g>
     <g id="text_11">
      <!-- 50 -->
      <g transform="translate(37.875 116.82578) scale(0.1 -0.1)">
       <defs>
        <path id="DejaVuSans-35" d="M 691 4666 
L 3169 4666 
L 3169 4134 
L 1269 4134 
L 1269 2991 
Q 1406 3038 1543 3061 
Q 1681 3084 1819 3084 
Q 2600 3084 3056 2656 
Q 3513 2228 3513 1497 
Q 3513 744 3044 326 
Q 2575 -91 1722 -91 
Q 1428 -91 1123 -41 
Q 819 9 494 109 
L 494 744 
Q 775 591 1075 516 
Q 1375 441 1709 441 
Q 2250 441 2565 725 
Q 2881 1009 2881 1497 
Q 2881 1984 2565 2268 
Q 2250 2553 1709 2553 
Q 1456 2553 1204 2497 
Q 953 2441 691 2322 
L 691 4666 
z
" transform="scale(0.015625)"/>
       </defs>
       <use xlink:href="#DejaVuSans-35"/>
       <use xlink:href="#DejaVuSans-30" x="63.623047"/>
      </g>
     </g>
    </g>
    <g id="ytick_7">
     <g id="line2d_23">
      <path d="M 57.6 76.531805 
L 414.72 76.531805 
" clip-path="url(#p03370cc8c6)" style="fill: none; stroke: #b0b0b0; stroke-width: 0.8; stroke-linecap: square"/>
     </g>
     <g id="line2d_24">
      <g>
       <use xlink:href="#m10f69fd09e" x="57.6" y="76.531805" style="stroke: #000000; stroke-width: 0.8"/>
      </g>
     </g>
     <g id="text_12">
      <!-- 60 -->
      <g transform="translate(37.875 80.331024) scale(0.1 -0.1)">
       <defs>
        <path id="DejaVuSans-36" d="M 2113 2584 
Q 1688 2584 1439 2293 
Q 1191 2003 1191 1497 
Q 1191 994 1439 701 
Q 1688 409 2113 409 
Q 2538 409 2786 701 
Q 3034 994 3034 1497 
Q 3034 2003 2786 2293 
Q 2538 2584 2113 2584 
z
M 3366 4563 
L 3366 3988 
Q 3128 4100 2886 4159 
Q 2644 4219 2406 4219 
Q 1781 4219 1451 3797 
Q 1122 3375 1075 2522 
Q 1259 2794 1537 2939 
Q 1816 3084 2150 3084 
Q 2853 3084 3261 2657 
Q 3669 2231 3669 1497 
Q 3669 778 3244 343 
Q 2819 -91 2113 -91 
Q 1303 -91 875 529 
Q 447 1150 447 2328 
Q 447 3434 972 4092 
Q 1497 4750 2381 4750 
Q 2619 4750 2861 4703 
Q 3103 4656 3366 4563 
z
" transform="scale(0.015625)"/>
       </defs>
       <use xlink:href="#DejaVuSans-36"/>
       <use xlink:href="#DejaVuSans-30" x="63.623047"/>
      </g>
     </g>
    </g>
   </g>
   <g id="line2d_25">
    <path d="M 106.298182 178.717123 
L 158.242909 253.458383 
L 210.187636 290.829013 
L 262.132364 290.829013 
L 314.077091 253.458383 
L 366.021818 178.717123 
" clip-path="url(#p03370cc8c6)" style="fill: none; stroke-dasharray: 5.55,2.4; stroke-dashoffset: 0; stroke: #000000; stroke-width: 1.5"/>
    <defs>
     <path id="m65cbfa9999" d="M -3 3 
L 3 -3 
M -3 -3 
L 3 3 
" style="stroke: #000000"/>
    </defs>
    <g clip-path="url(#p03370cc8c6)">
     <use xlink:href="#m65cbfa9999" x="106.298182" y="178.717123" style="stroke: #000000"/>
     <use xlink:href="#m65cbfa9999" x="158.242909" y="253.458383" style="stroke: #000000"/>
     <use xlink:href="#m65cbfa9999" x="210.187636" y="290.829013" style="stroke: #000000"/>
     <use xlink:href="#m65cbfa9999" x="262.132364" y="290.829013" style="stroke: #000000"/>
     <use xlink:href="#m65cbfa9999" x="314.077091" y="253.458383" style="stroke: #000000"/>
     <use xlink:href="#m65cbfa9999" x="366.021818" y="178.717123" style="stroke: #000000"/>
    </g>
   </g>
   <g id="line2d_26">
    <path d="M 73.832727 114.051086 
L 77.112066 121.308315 
L 80.391405 128.417438 
L 83.670744 135.378455 
L 86.950083 142.191364 
L 90.229421 148.856167 
L 93.50876 155.372863 
L 96.788099 161.741452 
L 100.067438 167.961935 
L 103.346777 174.034311 
L 106.626116 179.95858 
L 109.905455 185.734743 
L 113.184793 191.362798 
L 116.464132 196.842747 
L 119.743471 202.174589 
L 123.02281 207.358325 
L 126.302149 212.393954 
L 129.581488 217.281476 
L 132.860826 222.020891 
L 136.140165 226.6122 
L 139.419504 231.055402 
L 142.698843 235.350497 
L 145.978182 239.497485 
L 149.257521 243.496367 
L 152.53686 247.347142 
L 155.816198 251.04981 
L 159.095537 254.604372 
L 162.374876 258.010826 
L 165.654215 261.269174 
L 168.933554 264.379416 
L 172.212893 267.34155 
L 175.492231 270.155578 
L 178.77157 272.821499 
L 182.050909 275.339314 
L 185.330248 277.709021 
L 188.609587 279.930622 
L 191.888926 282.004117 
L 195.168264 283.929504 
L 198.447603 285.706785 
L 201.726942 287.335959 
L 205.006281 288.817026 
L 208.28562 290.149987 
L 211.564959 291.33484 
L 214.844298 292.371588 
L 218.123636 293.260228 
L 221.402975 294.000762 
L 224.682314 294.593189 
L 227.961653 295.037509 
L 231.240992 295.333722 
L 234.520331 295.481829 
L 237.799669 295.481829 
L 241.079008 295.333722 
L 244.358347 295.037509 
L 247.637686 294.593189 
L 250.917025 294.000762 
L 254.196364 293.260228 
L 257.475702 292.371588 
L 260.755041 291.33484 
L 264.03438 290.149987 
L 267.313719 288.817026 
L 270.593058 287.335959 
L 273.872397 285.706785 
L 277.151736 283.929504 
L 280.431074 282.004117 
L 283.710413 279.930622 
L 286.989752 277.709021 
L 290.269091 275.339314 
L 293.54843 272.821499 
L 296.827769 270.155578 
L 300.107107 267.34155 
L 303.386446 264.379416 
L 306.665785 261.269174 
L 309.945124 258.010826 
L 313.224463 254.604372 
L 316.503802 251.04981 
L 319.78314 247.347142 
L 323.062479 243.496367 
L 326.341818 239.497485 
L 329.621157 235.350497 
L 332.900496 231.055402 
L 336.179835 226.6122 
L 339.459174 222.020891 
L 342.738512 217.281476 
L 346.017851 212.393954 
L 349.29719 207.358325 
L 352.576529 202.174589 
L 355.855868 196.842747 
L 359.135207 191.362798 
L 362.414545 185.734743 
L 365.693884 179.95858 
L 368.973223 174.034311 
L 372.252562 167.961935 
L 375.531901 161.741452 
L 378.81124 155.372863 
L 382.090579 148.856167 
L 385.369917 142.191364 
L 388.649256 135.378455 
L 391.928595 128.417438 
L 395.207934 121.308315 
L 398.487273 114.051086 
" clip-path="url(#p03370cc8c6)" style="fill: none; stroke: #ff0000; stroke-width: 1.5; stroke-linecap: square"/>
   </g>
   <g id="line2d_27">
    <path d="M 73.832727 114.051086 
L 77.112066 121.308315 
L 80.391405 128.417438 
L 83.670744 135.378455 
L 86.950083 142.191364 
L 90.229421 148.856167 
L 93.50876 155.372863 
L 96.788099 161.741452 
L 100.067438 167.961935 
L 103.346777 174.034311 
L 106.626116 179.95858 
L 109.905455 185.734743 
L 113.184793 191.362798 
L 116.464132 196.842747 
L 119.743471 202.174589 
L 123.02281 207.358325 
L 126.302149 212.393954 
L 129.581488 217.281476 
L 132.860826 222.020891 
L 136.140165 226.6122 
L 139.419504 231.055402 
L 142.698843 235.350497 
L 145.978182 239.497485 
L 149.257521 243.496367 
L 152.53686 247.347142 
L 155.816198 251.04981 
L 159.095537 254.604372 
L 162.374876 258.010826 
L 165.654215 261.269174 
L 168.933554 264.379416 
L 172.212893 267.34155 
L 175.492231 270.155578 
L 178.77157 272.821499 
L 182.050909 275.339314 
L 185.330248 277.709021 
L 188.609587 279.930622 
L 191.888926 282.004117 
L 195.168264 283.929504 
L 198.447603 285.706785 
L 201.726942 287.335959 
L 205.006281 288.817026 
L 208.28562 290.149987 
L 211.564959 291.33484 
L 214.844298 292.371588 
L 218.123636 293.260228 
L 221.402975 294.000762 
L 224.682314 294.593189 
L 227.961653 295.037509 
L 231.240992 295.333722 
L 234.520331 295.481829 
L 237.799669 295.481829 
L 241.079008 295.333722 
L 244.358347 295.037509 
L 247.637686 294.593189 
L 250.917025 294.000762 
L 254.196364 293.260228 
L 257.475702 292.371588 
L 260.755041 291.33484 
L 264.03438 290.149987 
L 267.313719 288.817026 
L 270.593058 287.335959 
L 273.872397 285.706785 
L 277.151736 283.929504 
L 280.431074 282.004117 
L 283.710413 279.930622 
L 286.989752 277.709021 
L 290.269091 275.339314 
L 293.54843 272.821499 
L 296.827769 270.155578 
L 300.107107 267.34155 
L 303.386446 264.379416 
L 306.665785 261.269174 
L 309.945124 258.010826 
L 313.224463 254.604372 
L 316.503802 251.04981 
L 319.78314 247.347142 
L 323.062479 243.496367 
L 326.341818 239.497485 
L 329.621157 235.350497 
L 332.900496 231.055402 
L 336.179835 226.6122 
L 339.459174 222.020891 
L 342.738512 217.281476 
L 346.017851 212.393954 
L 349.29719 207.358325 
L 352.576529 202.174589 
L 355.855868 196.842747 
L 359.135207 191.362798 
L 362.414545 185.734743 
L 365.693884 179.95858 
L 368.973223 174.034311 
L 372.252562 167.961935 
L 375.531901 161.741452 
L 378.81124 155.372863 
L 382.090579 148.856167 
L 385.369917 142.191364 
L 388.649256 135.378455 
L 391.928595 128.417438 
L 395.207934 121.308315 
L 398.487273 114.051086 
" clip-path="url(#p03370cc8c6)" style="fill: none; stroke-dasharray: 5.55,2.4; stroke-dashoffset: 0; stroke: #ff0000; stroke-width: 1.5"/>
   </g>
   <g id="patch_3">
    <path d="M 57.6 307.584 
L 57.6 41.472 
" style="fill: none; stroke: #000000; stroke-width: 0.8; stroke-linejoin: miter; stroke-linecap: square"/>
   </g>
   <g id="patch_4">
    <path d="M 414.72 307.584 
L 414.72 41.472 
" style="fill: none; stroke: #000000; stroke-width: 0.8; stroke-linejoin: miter; stroke-linecap: square"/>
   </g>
   <g id="patch_5">
    <path d="M 57.6 307.584 
L 414.72 307.584 
" style="fill: none; stroke: #000000; stroke-width: 0.8; stroke-linejoin: miter; stroke-linecap: square"/>
   </g>
   <g id="patch_6">
    <path d="M 57.6 41.472 
L 414.72 41.472 
" style="fill: none; stroke: #000000; stroke-width: 0.8; stroke-linejoin: miter; stroke-linecap: square"/>
   </g>
   <g id="text_13">
    <!-- reference_curve.txt (Mean, median and standard deviation) -->
    <g transform="translate(56.788125 35.472) scale(0.12 -0.12)">
     <defs>
      <path id="DejaVuSans-72" d="M 2631 2963 
Q 2534 3019 2420 3045 
Q 2306 3072 2169 3072 
Q 1681 3072 1420 2755 
Q 1159 2438 1159 1844 
L 1159 0 
L 581 0 
L 581 3500 
L 1159 3500 
L 1159 2956 
Q 1341 3275 1631 3429 
Q 1922 3584 2338 3584 
Q 2397 3584 2469 3576 
Q 2541 3569 2628 3553 
L 2631 2963 
z
" transform="scale(0.015625)"/>
      <path id="DejaVuSans-65" d="M 3597 1894 
L 3597 1613 
L 953 1613 
Q 991 1019 1311 708 
Q 1631 397 2203 397 
Q 2534 397 2845 478 
Q 3156 559 3463 722 
L 3463 178 
Q 3153 47 2828 -22 
Q 2503 -91 2169 -91 
Q 1331 -91 842 396 
Q 353 884 353 1716 
Q 353 2575 817 3079 
Q 1281 3584 2069 3584 
Q 2775 3584 3186 3129 
Q 3597 2675 3597 1894 
z
M 3022 2063 
Q 3016 2534 2758 2815 
Q 2500 3097 2075 3097 
Q 1594 3097 1305 2825 
Q 1016 2553 972 2059 
L 3022 2063 
z
" transform="scale(0.015625)"/>
      <path id="DejaVuSans-66" d="M 2375 4863 
L 2375 4384 
L 1825 4384 
Q 1516 4384 1395 4259 
Q 1275 4134 1275 3809 
L 1275 3500 
L 2222 3500 
L 2222 3053 
L 1275 3053 
L 1275 0 
L 697 0 
L 697 3053 
L 147 3053 
L 147 3500 
L 697 3500 
L 697 3744 
Q 697 4328 969 4595 
Q 1241 4863 1831 4863 
L 2375 4863 
z
" transform="scale(0.015625)"/>
      <path id="DejaVuSans-6e" d="M 3513 2113 
L 3513 0 
L 2938 0 
L 2938 2094 
Q 2938 2591 2744 2837 
Q 2550 3084 2163 3084 
Q 1697 3084 1428 2787 
Q 1159 2491 1159 1978 
L 1159 0 
L 581 0 
L 581 3500 
L 1159 3500 
L 1159 2956 
Q 1366 3272 1645 3428 
Q 1925 3584 2291 3584 
Q 2894 3584 3203 3211 
Q 3513 2838 3513 2113 
z
" transform="scale(0.015625)"/>
      <path id="DejaVuSans-63" d="M 3122 3366 
L 3122 2828 
Q 2878 2963 2633 3030 
Q 2388 3097 2138 3097 
Q 1578 3097 1268 2742 
Q 959 2388 959 1747 
Q 959 1106 1268 751 
Q 1578 397 2138 397 
Q 2388 397 2633 464 
Q 2878 531 3122 666 
L 3122 134 
Q 2881 22 2623 -34 
Q 2366 -91 2075 -91 
Q 1284 -91 818 406 
Q 353 903 353 1747 
Q 353 2603 823 3093 
Q 1294 3584 2113 3584 
Q 2378 3584 2631 3529 
Q 2884 3475 3122 3366 
z
" transform="scale(0.015625)"/>
      <path id="DejaVuSans-5f" d="M 3263 -1063 
L 3263 -1509 
L -63 -1509 
L -63 -1063 
L 3263 -1063 
z
" transform="scale(0.015625)"/>
      <path id="DejaVuSans-75" d="M 544 1381 
L 544 3500 
L 1119 3500 
L 1119 1403 
Q 1119 906 1312 657 
Q 1506 409 1894 409 
Q 2359 409 2629 706 
Q 2900 1003 2900 1516 
L 2900 3500 
L 3475 3500 
L 3475 0 
L 2900 0 
L 2900 538 
Q 2691 219 2414 64 
Q 2138 -91 1772 -91 
Q 1169 -91 856 284 
Q 544 659 544 1381 
z
M 1991 3584 
L 1991 3584 
z
" transform="scale(0.015625)"/>
      <path id="DejaVuSans-76" d="M 191 3500 
L 800 3500 
L 1894 563 
L 2988 3500 
L 3597 3500 
L 2284 0 
L 1503 0 
L 191 3500 
z
" transform="scale(0.015625)"/>
      <path id="DejaVuSans-2e" d="M 684 794 
L 1344 794 
L 1344 0 
L 684 0 
L 684 794 
z
" transform="scale(0.015625)"/>
      <path id="DejaVuSans-74" d="M 1172 4494 
L 1172 3500 
L 2356 3500 
L 2356 3053 
L 1172 3053 
L 1172 1153 
Q 1172 725 1289 603 
Q 1406 481 1766 481 
L 2356 481 
L 2356 0 
L 1766 0 
Q 1100 0 847 248 
Q 594 497 594 1153 
L 594 3053 
L 172 3053 
L 172 3500 
L 594 3500 
L 594 4494 
L 1172 4494 
z
" transform="scale(0.015625)"/>
      <path id="DejaVuSans-78" d="M 3513 3500 
L 2247 1797 
L 3578 0 
L 2900 0 
L 1881 1375 
L 863 0 
L 184 0 
L 1544 1831 
L 300 3500 
L 978 3500 
L 1906 2253 
L 2834 3500 
L 3513 3500 
z
" transform="scale(0.015625)"/>
      <path id="DejaVuSans-20" transform="scale(0.015625)"/>
      <path id="DejaVuSans-28" d="M 1984 4856 
Q 1566 4138 1362 3434 
Q 1159 2731 1159 2009 
Q 1159 1288 1364 580 
Q 1569 -128 1984 -844 
L 1484 -844 
Q 1016 -109 783 600 
Q 550 1309 550 2009 
Q 550 2706 781 3412 
Q 1013 4119 1484 4856 
L 1984 4856 
z
" transform="scale(0.015625)"/>
      <path id="DejaVuSans-4d" d="M 628 4666 
L 1569 4666 
L 2759 1491 
L 3956 4666 
L 4897 4666 
L 4897 0 
L 4281 0 
L 4281 4097 
L 3078 897 
L 2444 897 
L 1241 4097 
L 1241 0 
L 628 0 
L 628 4666 
z
" transform="scale(0.015625)"/>
      <path id="DejaVuSans-61" d="M 2194 1759 
Q 1497 1759 1228 1600 
Q 959 1441 959 1056 
Q 959 750 1161 570 
Q 1363 391 1709 391 
Q 2188 391 2477 730 
Q 2766 1069 2766 1631 
L 2766 1759 
L 2194 1759 
z
M 3341 1997 
L 3341 0 
L 2766 0 
L 2766 531 
Q 2569 213 2275 61 
Q 1981 -91 1556 -91 
Q 1019 -91 701 211 
Q 384 513 384 1019 
Q 384 1609 779 1909 
Q 1175 2209 1959 2209 
L 2766 2209 
L 2766 2266 
Q 2766 2663 2505 2880 
Q 2244 3097 1772 3097 
Q 1472 3097 1187 3025 
Q 903 2953 641 2809 
L 641 3341 
Q 956 3463 1253 3523 
Q 1550 3584 1831 3584 
Q 2591 3584 2966 3190 
Q 3341 2797 3341 1997 
z
" transform="scale(0.015625)"/>
      <path id="DejaVuSans-2c" d="M 750 794 
L 1409 794 
L 1409 256 
L 897 -744 
L 494 -744 
L 750 256 
L 750 794 
z
" transform="scale(0.015625)"/>
      <path id="DejaVuSans-6d" d="M 3328 2828 
Q 3544 3216 3844 3400 
Q 4144 3584 4550 3584 
Q 5097 3584 5394 3201 
Q 5691 2819 5691 2113 
L 5691 0 
L 5113 0 
L 5113 2094 
Q 5113 2597 4934 2840 
Q 4756 3084 4391 3084 
Q 3944 3084 3684 2787 
Q 3425 2491 3425 1978 
L 3425 0 
L 2847 0 
L 2847 2094 
Q 2847 2600 2669 2842 
Q 2491 3084 2119 3084 
Q 1678 3084 1418 2786 
Q 1159 2488 1159 1978 
L 1159 0 
L 581 0 
L 581 3500 
L 1159 3500 
L 1159 2956 
Q 1356 3278 1631 3431 
Q 1906 3584 2284 3584 
Q 2666 3584 2933 3390 
Q 3200 3197 3328 2828 
z
" transform="scale(0.015625)"/>
      <path id="DejaVuSans-64" d="M 2906 2969 
L 2906 4863 
L 3481 4863 
L 3481 0 
L 2906 0 
L 2906 525 
Q 2725 213 2448 61 
Q 2172 -91 1784 -91 
Q 1150 -91 751 415 
Q 353 922 353 1747 
Q 353 2572 751 3078 
Q 1150 3584 1784 3584 
Q 2172 3584 2448 3432 
Q 2725 3281 2906 2969 
z
M 947 1747 
Q 947 1113 1208 752 
Q 1469 391 1925 391 
Q 2381 391 2643 752 
Q 2906 1113 2906 1747 
Q 2906 2381 2643 2742 
Q 2381 3103 1925 3103 
Q 1469 3103 1208 2742 
Q 947 2381 947 1747 
z
" transform="scale(0.015625)"/>
      <path id="DejaVuSans-69" d="M 603 3500 
L 1178 3500 
L 1178 0 
L 603 0 
L 603 3500 
z
M 603 4863 
L 1178 4863 
L 1178 4134 
L 603 4134 
L 603 4863 
z
" transform="scale(0.015625)"/>
      <path id="DejaVuSans-73" d="M 2834 3397 
L 2834 2853 
Q 2591 2978 2328 3040 
Q 2066 3103 1784 3103 
Q 1356 3103 1142 2972 
Q 928 2841 928 2578 
Q 928 2378 1081 2264 
Q 1234 2150 1697 2047 
L 1894 2003 
Q 2506 1872 2764 1633 
Q 3022 1394 3022 966 
Q 3022 478 2636 193 
Q 2250 -91 1575 -91 
Q 1294 -91 989 -36 
Q 684 19 347 128 
L 347 722 
Q 666 556 975 473 
Q 1284 391 1588 391 
Q 1994 391 2212 530 
Q 2431 669 2431 922 
Q 2431 1156 2273 1281 
Q 2116 1406 1581 1522 
L 1381 1569 
Q 847 1681 609 1914 
Q 372 2147 372 2553 
Q 372 3047 722 3315 
Q 1072 3584 1716 3584 
Q 2034 3584 2315 3537 
Q 2597 3491 2834 3397 
z
" transform="scale(0.015625)"/>
      <path id="DejaVuSans-6f" d="M 1959 3097 
Q 1497 3097 1228 2736 
Q 959 2375 959 1747 
Q 959 1119 1226 758 
Q 1494 397 1959 397 
Q 2419 397 2687 759 
Q 2956 1122 2956 1747 
Q 2956 2369 2687 2733 
Q 2419 3097 1959 3097 
z
M 1959 3584 
Q 2709 3584 3137 3096 
Q 3566 2609 3566 1747 
Q 3566 888 3137 398 
Q 2709 -91 1959 -91 
Q 1206 -91 779 398 
Q 353 888 353 1747 
Q 353 2609 779 3096 
Q 1206 3584 1959 3584 
z
" transform="scale(0.015625)"/>
      <path id="DejaVuSans-29" d="M 513 4856 
L 1013 4856 
Q 1481 4119 1714 3412 
Q 1947 2706 1947 2009 
Q 1947 1309 1714 600 
Q 1481 -109 1013 -844 
L 513 -844 
Q 928 -128 1133 580 
Q 1338 1288 1338 2009 
Q 1338 2731 1133 3434 
Q 928 4138 513 4856 
z
" transform="scale(0.015625)"/>
     </defs>
     <use xlink:href="#DejaVuSans-72"/>
     <use xlink:href="#DejaVuSans-65" x="38.863281"/>
     <use xlink:href="#DejaVuSans-66" x="100.386719"/>
     <use xlink:href="#DejaVuSans-65" x="135.591797"/>
     <use xlink:href="#DejaVuSans-72" x="197.115234"/>
     <use xlink:href="#DejaVuSans-65" x="235.978516"/>
     <use xlink:href="#DejaVuSans-6e" x="297.501953"/>
     <use xlink:href="#DejaVuSans-63" x="360.880859"/>
     <use xlink:href="#DejaVuSans-65" x="415.861328"/>
     <use xlink:href="#DejaVuSans-5f" x="477.384766"/>
     <use xlink:href="#DejaVuSans-63" x="527.384766"/>
     <use xlink:href="#DejaVuSans-75" x="582.365234"/>
     <use xlink:href="#DejaVuSans-72" x="645.744141"/>
     <use xlink:href="#DejaVuSans-76" x="686.857422"/>
     <use xlink:href="#DejaVuSans-65" x="746.037109"/>
     <use xlink:href="#DejaVuSans-2e" x="807.560547"/>
     <use xlink:href="#DejaVuSans-74" x="839.347656"/>
     <use xlink:href="#DejaVuSans-78" x="878.556641"/>
     <use xlink:href="#DejaVuSans-74" x="937.736328"/>
     <use xlink:href="#DejaVuSans-20" x="976.945312"/>
     <use xlink:href="#DejaVuSans-28" x="1008.732422"/>
     <use xlink:href="#DejaVuSans-4d" x="1047.746094"/>
     <use xlink:href="#DejaVuSans-65" x="1134.025391"/>
     <use xlink:href="#DejaVuSans-61" x="1195.548828"/>
     <use xlink:href="#DejaVuSans-6e" x="1256.828125"/>
     <use xlink:href="#DejaVuSans-2c" x="1320.207031"/>
     <use xlink:href="#DejaVuSans-20" x="1351.994141"/>
     <use xlink:href="#DejaVuSans-6d" x="1383.78125"/>
     <use xlink:href="#DejaVuSans-65" x="1481.193359"/>
     <use xlink:href="#DejaVuSans-64" x="1542.716797"/>
     <use xlink:href="#DejaVuSans-69" x="1606.193359"/>
     <use xlink:href="#DejaVuSans-61" x="1633.976562"/>
     <use xlink:href="#DejaVuSans-6e" x="1695.255859"/>
     <use xlink:href="#DejaVuSans-20" x="1758.634766"/>
     <use xlink:href="#DejaVuSans-61" x="1790.421875"/>
     <use xlink:href="#DejaVuSans-6e" x="1851.701172"/>
     <use xlink:href="#DejaVuSans-64" x="1915.080078"/>
     <use xlink:href="#DejaVuSans-20" x="1978.556641"/>
     <use xlink:href="#DejaVuSans-73" x="2010.34375"/>
     <use xlink:href="#DejaVuSans-74" x="2062.443359"/>
     <use xlink:href="#DejaVuSans-61" x="2101.652344"/>
     <use xlink:href="#DejaVuSans-6e" x="2162.931641"/>
     <use xlink:href="#DejaVuSans-64" x="2226.310547"/>
     <use xlink:href="#DejaVuSans-61" x="2289.787109"/>
     <use xlink:href="#DejaVuSans-72" x="2351.066406"/>
     <use xlink:href="#DejaVuSans-64" x="2390.429688"/>
     <use xlink:href="#DejaVuSans-20" x="2453.90625"/>
     <use xlink:href="#DejaVuSans-64" x="2485.693359"/>
     <use xlink:href="#DejaVuSans-65" x="2549.169922"/>
     <use xlink:href="#DejaVuSans-76" x="2610.693359"/>
     <use xlink:href="#DejaVuSans-69" x="2669.873047"/>
     <use xlink:href="#DejaVuSans-61" x="2697.65625"/>
     <use xlink:href="#DejaVuSans-74" x="2758.935547"/>
     <use xlink:href="#DejaVuSans-69" x="2798.144531"/>
     <use xlink:href="#DejaVuSans-6f" x="2825.927734"/>
     <use xlink:href="#DejaVuSans-6e" x="2887.109375"/>
     <use xlink:href="#DejaVuSans-29" x="2950.488281"/>
    </g>
   </g>
   <g id="legend_1">
    <g id="patch_7">
     <path d="M 280.565313 108.1845 
L 407.72 108.1845 
Q 409.72 108.1845 409.72 106.1845 
L 409.72 48.472 
Q 409.72 46.472 407.72 46.472 
L 280.565313 46.472 
Q 278.565313 46.472 278.565313 48.472 
L 278.565313 106.1845 
Q 278.565313 108.1845 280.565313 108.1845 
z
" style="fill: #ffffff; opacity: 0.8; stroke: #cccccc; stroke-linejoin: miter"/>
    </g>
    <g id="line2d_28">
     <path d="M 282.565313 54.570438 
L 292.565313 54.570438 
L 302.565313 54.570438 
" style="fill: none; stroke-dasharray: 5.55,2.4; stroke-dashoffset: 0; stroke: #000000; stroke-width: 1.5"/>
     <g>
      <use xlink:href="#m65cbfa9999" x="292.565313" y="54.570438" style="stroke: #000000"/>
     </g>
    </g>
    <g id="text_14">
     <!-- Reference -->
     <g transform="translate(310.565313 58.070438) scale(0.1 -0.1)">
      <defs>
       <path id="DejaVuSans-52" d="M 2841 2188 
Q 3044 2119 3236 1894 
Q 3428 1669 3622 1275 
L 4263 0 
L 3584 0 
L 2988 1197 
Q 2756 1666 2539 1819 
Q 2322 1972 1947 1972 
L 1259 1972 
L 1259 0 
L 628 0 
L 628 4666 
L 2053 4666 
Q 2853 4666 3247 4331 
Q 3641 3997 3641 3322 
Q 3641 2881 3436 2590 
Q 3231 2300 2841 2188 
z
M 1259 4147 
L 1259 2491 
L 2053 2491 
Q 2509 2491 2742 2702 
Q 2975 2913 2975 3322 
Q 2975 3731 2742 3939 
Q 2509 4147 2053 4147 
L 1259 4147 
z
" transform="scale(0.015625)"/>
      </defs>
      <use xlink:href="#DejaVuSans-52"/>
      <use xlink:href="#DejaVuSans-65" x="64.982422"/>
      <use xlink:href="#DejaVuSans-66" x="126.505859"/>
      <use xlink:href="#DejaVuSans-65" x="161.710938"/>
      <use xlink:href="#DejaVuSans-72" x="223.234375"/>
      <use xlink:href="#DejaVuSans-65" x="262.097656"/>
      <use xlink:href="#DejaVuSans-6e" x="323.621094"/>
      <use xlink:href="#DejaVuSans-63" x="387"/>
      <use xlink:href="#DejaVuSans-65" x="441.980469"/>
     </g>
    </g>
    <g id="line2d_29">
     <path d="M 282.565313 69.248563 
L 292.565313 69.248563 
L 302.565313 69.248563 
" style="fill: none; stroke: #ff0000; stroke-width: 1.5; stroke-linecap: square"/>
    </g>
    <g id="text_15">
     <!-- Average -->
     <g transform="translate(310.565313 72.748563) scale(0.1 -0.1)">
      <defs>
       <path id="DejaVuSans-41" d="M 2188 4044 
L 1331 1722 
L 3047 1722 
L 2188 4044 
z
M 1831 4666 
L 2547 4666 
L 4325 0 
L 3669 0 
L 3244 1197 
L 1141 1197 
L 716 0 
L 50 0 
L 1831 4666 
z
" transform="scale(0.015625)"/>
       <path id="DejaVuSans-67" d="M 2906 1791 
Q 2906 2416 2648 2759 
Q 2391 3103 1925 3103 
Q 1463 3103 1205 2759 
Q 947 2416 947 1791 
Q 947 1169 1205 825 
Q 1463 481 1925 481 
Q 2391 481 2648 825 
Q 2906 1169 2906 1791 
z
M 3481 434 
Q 3481 -459 3084 -895 
Q 2688 -1331 1869 -1331 
Q 1566 -1331 1297 -1286 
Q 1028 -1241 775 -1147 
L 775 -588 
Q 1028 -725 1275 -790 
Q 1522 -856 1778 -856 
Q 2344 -856 2625 -561 
Q 2906 -266 2906 331 
L 2906 616 
Q 2728 306 2450 153 
Q 2172 0 1784 0 
Q 1141 0 747 490 
Q 353 981 353 1791 
Q 353 2603 747 3093 
Q 1141 3584 1784 3584 
Q 2172 3584 2450 3431 
Q 2728 3278 2906 2969 
L 2906 3500 
L 3481 3500 
L 3481 434 
z
" transform="scale(0.015625)"/>
      </defs>
      <use xlink:href="#DejaVuSans-41"/>
      <use xlink:href="#DejaVuSans-76" x="62.533203"/>
      <use xlink:href="#DejaVuSans-65" x="121.712891"/>
      <use xlink:href="#DejaVuSans-72" x="183.236328"/>
      <use xlink:href="#DejaVuSans-61" x="224.349609"/>
      <use xlink:href="#DejaVuSans-67" x="285.628906"/>
      <use xlink:href="#DejaVuSans-65" x="349.105469"/>
     </g>
    </g>
    <g id="line2d_30">
     <path d="M 282.565313 83.926688 
L 292.565313 83.926688 
L 302.565313 83.926688 
" style="fill: none; stroke-dasharray: 5.55,2.4; stroke-dashoffset: 0; stroke: #ff0000; stroke-width: 1.5"/>
    </g>
    <g id="text_16">
     <!-- Median -->
     <g transform="translate(310.565313 87.426688) scale(0.1 -0.1)">
      <use xlink:href="#DejaVuSans-4d"/>
      <use xlink:href="#DejaVuSans-65" x="86.279297"/>
      <use xlink:href="#DejaVuSans-64" x="147.802734"/>
      <use xlink:href="#DejaVuSans-69" x="211.279297"/>
      <use xlink:href="#DejaVuSans-61" x="239.0625"/>
      <use xlink:href="#DejaVuSans-6e" x="300.341797"/>
     </g>
    </g>
    <g id="patch_8">
     <path d="M 282.565313 102.104813 
L 302.565313 102.104813 
L 302.565313 95.104813 
L 282.565313 95.104813 
z
" style="fill: #ff0000; fill-opacity: 0.2; stroke: #ff0000; stroke-opacity: 0.2; stroke-linejoin: miter"/>
    </g>
    <g id="text_17">
     <!-- Standard deviation -->
     <g transform="translate(310.565313 102.104813) scale(0.1 -0.1)">
      <defs>
       <path id="DejaVuSans-53" d="M 3425 4513 
L 3425 3897 
Q 3066 4069 2747 4153 
Q 2428 4238 2131 4238 
Q 1616 4238 1336 4038 
Q 1056 3838 1056 3469 
Q 1056 3159 1242 3001 
Q 1428 2844 1947 2747 
L 2328 2669 
Q 3034 2534 3370 2195 
Q 3706 1856 3706 1288 
Q 3706 609 3251 259 
Q 2797 -91 1919 -91 
Q 1588 -91 1214 -16 
Q 841 59 441 206 
L 441 856 
Q 825 641 1194 531 
Q 1563 422 1919 422 
Q 2459 422 2753 634 
Q 3047 847 3047 1241 
Q 3047 1584 2836 1778 
Q 2625 1972 2144 2069 
L 1759 2144 
Q 1053 2284 737 2584 
Q 422 2884 422 3419 
Q 422 4038 858 4394 
Q 1294 4750 2059 4750 
Q 2388 4750 2728 4690 
Q 3069 4631 3425 4513 
z
" transform="scale(0.015625)"/>
      </defs>
      <use xlink:href="#DejaVuSans-53"/>
      <use xlink:href="#DejaVuSans-74" x="63.476562"/>
      <use xlink:href="#DejaVuSans-61" x="102.685547"/>
      <use xlink:href="#DejaVuSans-6e" x="163.964844"/>
      <use xlink:href="#DejaVuSans-64" x="227.34375"/>
      <use xlink:href="#DejaVuSans-61" x="290.820312"/>
      <use xlink:href="#DejaVuSans-72" x="352.099609"/>
      <use xlink:href="#DejaVuSans-64" x="391.462891"/>
      <use xlink:href="#DejaVuSans-20" x="454.939453"/>
      <use xlink:href="#DejaVuSans-64" x="486.726562"/>
      <use xlink:href="#DejaVuSans-65" x="550.203125"/>
      <use xlink:href="#DejaVuSans-76" x="611.726562"/>
      <use xlink:href="#DejaVuSans-69" x="670.90625"/>
      <use xlink:href="#DejaVuSans-61" x="698.689453"/>
      <use xlink:href="#DejaVuSans-74" x="759.96875"/>
      <use xlink:href="#DejaVuSans-69" x="799.177734"/>
      <use xlink:href="#DejaVuSans-6f" x="826.960938"/>
      <use xlink:href="#DejaVuSans-6e" x="888.142578"/>
     </g>
    </g>
   </g>
  </g>
 </g>
 <defs>
  <clipPath id="p03370cc8c6">
   <rect x="57.6" y="41.472" width="357.12" height="266.112"/>
  </clipPath>
 </defs>
</svg>
