<?xml version="1.0" encoding="utf-8" standalone="no"?>
<!DOCTYPE svg PUBLIC "-//W3C//DTD SVG 1.1//EN"
  "http://www.w3.org/Graphics/SVG/1.1/DTD/svg11.dtd">
<svg xmlns:xlink="http://www.w3.org/1999/xlink" width="460.8pt" height="345.6pt" viewBox="0 0 460.8 345.6" xmlns="http://www.w3.org/2000/svg" version="1.1">
 <metadata>
  <rdf:RDF xmlns:dc="http://purl.org/dc/elements/1.1/" xmlns:cc="http://creativecommons.org/ns#" xmlns:rdf="http://www.w3.org/1999/02/22-rdf-syntax-ns#">
   <cc:Work>
    <dc:type rdf:resource="http://purl.org/dc/dcmitype/StillImage"/>
    <dc:date>2024-02-05T11:50:32.749371</dc:date>
    <dc:format>image/svg+xml</dc:format>
    <dc:creator>
     <cc:Agent>
      <dc:title>Matplotlib v3.8.2, https://matplotlib.org/</dc:title>
     </cc:Agent>
    </dc:creator>
   </cc:Work>
  </rdf:RDF>
 </metadata>
 <defs>
  <style type="text/css">*{stroke-linejoin: round; stroke-linecap: butt}</style>
 </defs>
 <g id="figure_1">
  <g id="patch_1">
   <path d="M 0 345.6 
L 460.8 345.6 
L 460.8 0 
L 0 0 
z
" style="fill: #ffffff"/>
  </g>
  <g id="axes_1">
   <g id="patch_2">
    <path d="M 57.6 307.584 
L 414.72 307.584 
L 414.72 41.472 
L 57.6 41.472 
z
" style="fill: #ffffff"/>
   </g>
   <g id="PolyCollection_1">
    <defs>
     <path id="m0a164d4fa7" d="M 73.832727 -292.032 
L 73.832727 -50.112 
L 77.112066 -53.334515 
L 80.391405 -56.491264 
L 83.670744 -59.582247 
L 86.950083 -62.607465 
L 90.229421 -65.566917 
L 93.50876 -68.460603 
L 96.788099 -71.288524 
L 100.067438 -74.05068 
L 103.346777 -76.74707 
L 106.626116 -79.377694 
L 109.905455 -81.942552 
L 113.184793 -84.441645 
L 116.464132 -86.874973 
L 119.743471 -89.242534 
L 123.02281 -91.54433 
L 126.302149 -93.780361 
L 129.581488 -95.950626 
L 132.860826 -98.055125 
L 136.140165 -100.093859 
L 139.419504 -102.066827 
L 142.698843 -103.97403 
L 145.978182 -105.815466 
L 149.257521 -107.591138 
L 152.53686 -109.301043 
L 155.816198 -110.945184 
L 159.095537 -112.523558 
L 162.374876 -114.036167 
L 165.654215 -115.48301 
L 168.933554 -116.864088 
L 172.212893 -118.1794 
L 175.492231 -119.428946 
L 178.77157 -120.612727 
L 182.050909 -121.730743 
L 185.330248 -122.782992 
L 188.609587 -123.769476 
L 191.888926 -124.690195 
L 195.168264 -125.545148 
L 198.447603 -126.334335 
L 201.726942 -127.057757 
L 205.006281 -127.715413 
L 208.28562 -128.307303 
L 211.564959 -128.833428 
L 214.844298 -129.293787 
L 218.123636 -129.688381 
L 221.402975 -130.017209 
L 224.682314 -130.280271 
L 227.961653 -130.477568 
L 231.240992 -130.609099 
L 234.520331 -130.674865 
L 237.799669 -130.674865 
L 241.079008 -130.609099 
L 244.358347 -130.477568 
L 247.637686 -130.280271 
L 250.917025 -130.017209 
L 254.196364 -129.688381 
L 257.475702 -129.293787 
L 260.755041 -128.833428 
L 264.03438 -128.307303 
L 267.313719 -127.715413 
L 270.593058 -127.057757 
L 273.872397 -126.334335 
L 277.151736 -125.545148 
L 280.431074 -124.690195 
L 283.710413 -123.769476 
L 286.989752 -122.782992 
L 290.269091 -121.730743 
L 293.54843 -120.612727 
L 296.827769 -119.428946 
L 300.107107 -118.1794 
L 303.386446 -116.864088 
L 306.665785 -115.48301 
L 309.945124 -114.036167 
L 313.224463 -112.523558 
L 316.503802 -110.945184 
L 319.78314 -109.301043 
L 323.062479 -107.591138 
L 326.341818 -105.815466 
L 329.621157 -103.97403 
L 332.900496 -102.066827 
L 336.179835 -100.093859 
L 339.459174 -98.055125 
L 342.738512 -95.950626 
L 346.017851 -93.780361 
L 349.29719 -91.54433 
L 352.576529 -89.242534 
L 355.855868 -86.874973 
L 359.135207 -84.441645 
L 362.414545 -81.942552 
L 365.693884 -79.377694 
L 368.973223 -76.74707 
L 372.252562 -74.05068 
L 375.531901 -71.288524 
L 378.81124 -68.460603 
L 382.090579 -65.566917 
L 385.369917 -62.607465 
L 388.649256 -59.582247 
L 391.928595 -56.491264 
L 395.207934 -53.334515 
L 398.487273 -50.112 
L 398.487273 -292.032 
L 398.487273 -292.032 
L 395.207934 -285.578702 
L 391.928595 -279.257104 
L 388.649256 -273.067206 
L 385.369917 -267.009007 
L 382.090579 -261.082509 
L 378.81124 -255.287711 
L 375.531901 -249.624613 
L 372.252562 -244.093214 
L 368.973223 -238.693516 
L 365.693884 -233.425517 
L 362.414545 -228.289219 
L 359.135207 -223.28462 
L 355.855868 -218.411722 
L 352.576529 -213.670523 
L 349.29719 -209.061025 
L 346.017851 -204.583226 
L 342.738512 -200.237127 
L 339.459174 -196.022729 
L 336.179835 -191.94003 
L 332.900496 -187.989031 
L 329.621157 -184.169732 
L 326.341818 -180.482133 
L 323.062479 -176.926234 
L 319.78314 -173.502035 
L 316.503802 -170.209536 
L 313.224463 -167.048737 
L 309.945124 -164.019638 
L 306.665785 -161.122239 
L 303.386446 -158.35654 
L 300.107107 -155.72254 
L 296.827769 -153.220241 
L 293.54843 -150.849642 
L 290.269091 -148.610743 
L 286.989752 -146.503543 
L 283.710413 -144.528044 
L 280.431074 -142.684244 
L 277.151736 -140.972145 
L 273.872397 -139.391745 
L 270.593058 -137.943046 
L 267.313719 -136.626046 
L 264.03438 -135.440747 
L 260.755041 -134.387147 
L 257.475702 -133.465247 
L 254.196364 -132.675047 
L 250.917025 -132.016548 
L 247.637686 -131.489748 
L 244.358347 -131.094648 
L 241.079008 -130.831248 
L 237.799669 -130.699548 
L 234.520331 -130.699548 
L 231.240992 -130.831248 
L 227.961653 -131.094648 
L 224.682314 -131.489748 
L 221.402975 -132.016548 
L 218.123636 -132.675047 
L 214.844298 -133.465247 
L 211.564959 -134.387147 
L 208.28562 -135.440747 
L 205.006281 -136.626046 
L 201.726942 -137.943046 
L 198.447603 -139.391745 
L 195.168264 -140.972145 
L 191.888926 -142.684244 
L 188.609587 -144.528044 
L 185.330248 -146.503543 
L 182.050909 -148.610743 
L 178.77157 -150.849642 
L 175.492231 -153.220241 
L 172.212893 -155.72254 
L 168.933554 -158.35654 
L 165.654215 -161.122239 
L 162.374876 -164.019638 
L 159.095537 -167.048737 
L 155.816198 -170.209536 
L 152.53686 -173.502035 
L 149.257521 -176.926234 
L 145.978182 -180.482133 
L 142.698843 -184.169732 
L 139.419504 -187.989031 
L 136.140165 -191.94003 
L 132.860826 -196.022729 
L 129.581488 -200.237127 
L 126.302149 -204.583226 
L 123.02281 -209.061025 
L 119.743471 -213.670523 
L 116.464132 -218.411722 
L 113.184793 -223.28462 
L 109.905455 -228.289219 
L 106.626116 -233.425517 
L 103.346777 -238.693516 
L 100.067438 -244.093214 
L 96.788099 -249.624613 
L 93.50876 -255.287711 
L 90.229421 -261.082509 
L 86.950083 -267.009007 
L 83.670744 -273.067206 
L 80.391405 -279.257104 
L 77.112066 -285.578702 
L 73.832727 -292.032 
z
" style="stroke: #ff0000; stroke-opacity: 0.2"/>
    </defs>
    <g clip-path="url(#pb58236b9ad)">
     <use xlink:href="#m0a164d4fa7" x="0" y="345.6" style="fill: #ff0000; fill-opacity: 0.2; stroke: #ff0000; stroke-opacity: 0.2"/>
    </g>
   </g>
   <g id="matplotlib.axis_1">
    <g id="xtick_1">
     <g id="line2d_1">
      <path d="M 106.298182 307.584 
L 106.298182 41.472 
" clip-path="url(#pb58236b9ad)" style="fill: none; stroke: #b0b0b0; stroke-width: 0.8; stroke-linecap: square"/>
     </g>
     <g id="line2d_2">
      <defs>
       <path id="mc48307fa9b" d="M 0 0 
L 0 3.5 
" style="stroke: #000000; stroke-width: 0.8"/>
      </defs>
      <g>
       <use xlink:href="#mc48307fa9b" x="106.298182" y="307.584" style="stroke: #000000; stroke-width: 0.8"/>
      </g>
     </g>
     <g id="text_1">
      <!-- −4 -->
      <g transform="translate(98.927088 322.182437) scale(0.1 -0.1)">
       <defs>
        <path id="DejaVuSans-2212" d="M 678 2272 
L 4684 2272 
L 4684 1741 
L 678 1741 
L 678 2272 
z
" transform="scale(0.015625)"/>
        <path id="DejaVuSans-34" d="M 2419 4116 
L 825 1625 
L 2419 1625 
L 2419 4116 
z
M 2253 4666 
L 3047 4666 
L 3047 1625 
L 3713 1625 
L 3713 1100 
L 3047 1100 
L 3047 0 
L 2419 0 
L 2419 1100 
L 313 1100 
L 313 1709 
L 2253 4666 
z
" transform="scale(0.015625)"/>
       </defs>
       <use xlink:href="#DejaVuSans-2212"/>
       <use xlink:href="#DejaVuSans-34" x="83.789062"/>
      </g>
     </g>
    </g>
    <g id="xtick_2">
     <g id="line2d_3">
      <path d="M 171.229091 307.584 
L 171.229091 41.472 
" clip-path="url(#pb58236b9ad)" style="fill: none; stroke: #b0b0b0; stroke-width: 0.8; stroke-linecap: square"/>
     </g>
     <g id="line2d_4">
      <g>
       <use xlink:href="#mc48307fa9b" x="171.229091" y="307.584" style="stroke: #000000; stroke-width: 0.8"/>
      </g>
     </g>
     <g id="text_2">
      <!-- −2 -->
      <g transform="translate(163.857997 322.182437) scale(0.1 -0.1)">
       <defs>
        <path id="DejaVuSans-32" d="M 1228 531 
L 3431 531 
L 3431 0 
L 469 0 
L 469 531 
Q 828 903 1448 1529 
Q 2069 2156 2228 2338 
Q 2531 2678 2651 2914 
Q 2772 3150 2772 3378 
Q 2772 3750 2511 3984 
Q 2250 4219 1831 4219 
Q 1534 4219 1204 4116 
Q 875 4013 500 3803 
L 500 4441 
Q 881 4594 1212 4672 
Q 1544 4750 1819 4750 
Q 2544 4750 2975 4387 
Q 3406 4025 3406 3419 
Q 3406 3131 3298 2873 
Q 3191 2616 2906 2266 
Q 2828 2175 2409 1742 
Q 1991 1309 1228 531 
z
" transform="scale(0.015625)"/>
       </defs>
       <use xlink:href="#DejaVuSans-2212"/>
       <use xlink:href="#DejaVuSans-32" x="83.789062"/>
      </g>
     </g>
    </g>
    <g id="xtick_3">
     <g id="line2d_5">
      <path d="M 236.16 307.584 
L 236.16 41.472 
" clip-path="url(#pb58236b9ad)" style="fill: none; stroke: #b0b0b0; stroke-width: 0.8; stroke-linecap: square"/>
     </g>
     <g id="line2d_6">
      <g>
       <use xlink:href="#mc48307fa9b" x="236.16" y="307.584" style="stroke: #000000; stroke-width: 0.8"/>
      </g>
     </g>
     <g id="text_3">
      <!-- 0 -->
      <g transform="translate(232.97875 322.182437) scale(0.1 -0.1)">
       <defs>
        <path id="DejaVuSans-30" d="M 2034 4250 
Q 1547 4250 1301 3770 
Q 1056 3291 1056 2328 
Q 1056 1369 1301 889 
Q 1547 409 2034 409 
Q 2525 409 2770 889 
Q 3016 1369 3016 2328 
Q 3016 3291 2770 3770 
Q 2525 4250 2034 4250 
z
M 2034 4750 
Q 2819 4750 3233 4129 
Q 3647 3509 3647 2328 
Q 3647 1150 3233 529 
Q 2819 -91 2034 -91 
Q 1250 -91 836 529 
Q 422 1150 422 2328 
Q 422 3509 836 4129 
Q 1250 4750 2034 4750 
z
" transform="scale(0.015625)"/>
       </defs>
       <use xlink:href="#DejaVuSans-30"/>
      </g>
     </g>
    </g>
    <g id="xtick_4">
     <g id="line2d_7">
      <path d="M 301.090909 307.584 
L 301.090909 41.472 
" clip-path="url(#pb58236b9ad)" style="fill: none; stroke: #b0b0b0; stroke-width: 0.8; stroke-linecap: square"/>
     </g>
     <g id="line2d_8">
      <g>
       <use xlink:href="#mc48307fa9b" x="301.090909" y="307.584" style="stroke: #000000; stroke-width: 0.8"/>
      </g>
     </g>
     <g id="text_4">
      <!-- 2 -->
      <g transform="translate(297.909659 322.182437) scale(0.1 -0.1)">
       <use xlink:href="#DejaVuSans-32"/>
      </g>
     </g>
    </g>
    <g id="xtick_5">
     <g id="line2d_9">
      <path d="M 366.021818 307.584 
L 366.021818 41.472 
" clip-path="url(#pb58236b9ad)" style="fill: none; stroke: #b0b0b0; stroke-width: 0.8; stroke-linecap: square"/>
     </g>
     <g id="line2d_10">
      <g>
       <use xlink:href="#mc48307fa9b" x="366.021818" y="307.584" style="stroke: #000000; stroke-width: 0.8"/>
      </g>
     </g>
     <g id="text_5">
      <!-- 4 -->
      <g transform="translate(362.840568 322.182437) scale(0.1 -0.1)">
       <use xlink:href="#DejaVuSans-34"/>
      </g>
     </g>
    </g>
   </g>
   <g id="matplotlib.axis_2">
    <g id="ytick_1">
     <g id="line2d_11">
      <path d="M 57.6 304.805546 
L 414.72 304.805546 
" clip-path="url(#pb58236b9ad)" style="fill: none; stroke: #b0b0b0; stroke-width: 0.8; stroke-linecap: square"/>
     </g>
     <g id="line2d_12">
      <defs>
       <path id="m93d0a074ab" d="M 0 0 
L -3.5 0 
" style="stroke: #000000; stroke-width: 0.8"/>
      </defs>
      <g>
       <use xlink:href="#m93d0a074ab" x="57.6" y="304.805546" style="stroke: #000000; stroke-width: 0.8"/>
      </g>
     </g>
     <g id="text_6">
      <!-- −100 -->
      <g transform="translate(23.132812 308.604764) scale(0.1 -0.1)">
       <defs>
        <path id="DejaVuSans-31" d="M 794 531 
L 1825 531 
L 1825 4091 
L 703 3866 
L 703 4441 
L 1819 4666 
L 2450 4666 
L 2450 531 
L 3481 531 
L 3481 0 
L 794 0 
L 794 531 
z
" transform="scale(0.015625)"/>
       </defs>
       <use xlink:href="#DejaVuSans-2212"/>
       <use xlink:href="#DejaVuSans-31" x="83.789062"/>
       <use xlink:href="#DejaVuSans-30" x="147.412109"/>
       <use xlink:href="#DejaVuSans-30" x="211.035156"/>
      </g>
     </g>
    </g>
    <g id="ytick_2">
     <g id="line2d_13">
      <path d="M 57.6 259.86123 
L 414.72 259.86123 
" clip-path="url(#pb58236b9ad)" style="fill: none; stroke: #b0b0b0; stroke-width: 0.8; stroke-linecap: square"/>
     </g>
     <g id="line2d_14">
      <g>
       <use xlink:href="#m93d0a074ab" x="57.6" y="259.86123" style="stroke: #000000; stroke-width: 0.8"/>
      </g>
     </g>
     <g id="text_7">
      <!-- −50 -->
      <g transform="translate(29.495313 263.660449) scale(0.1 -0.1)">
       <defs>
        <path id="DejaVuSans-35" d="M 691 4666 
L 3169 4666 
L 3169 4134 
L 1269 4134 
L 1269 2991 
Q 1406 3038 1543 3061 
Q 1681 3084 1819 3084 
Q 2600 3084 3056 2656 
Q 3513 2228 3513 1497 
Q 3513 744 3044 326 
Q 2575 -91 1722 -91 
Q 1428 -91 1123 -41 
Q 819 9 494 109 
L 494 744 
Q 775 591 1075 516 
Q 1375 441 1709 441 
Q 2250 441 2565 725 
Q 2881 1009 2881 1497 
Q 2881 1984 2565 2268 
Q 2250 2553 1709 2553 
Q 1456 2553 1204 2497 
Q 953 2441 691 2322 
L 691 4666 
z
" transform="scale(0.015625)"/>
       </defs>
       <use xlink:href="#DejaVuSans-2212"/>
       <use xlink:href="#DejaVuSans-35" x="83.789062"/>
       <use xlink:href="#DejaVuSans-30" x="147.412109"/>
      </g>
     </g>
    </g>
    <g id="ytick_3">
     <g id="line2d_15">
      <path d="M 57.6 214.916915 
L 414.72 214.916915 
" clip-path="url(#pb58236b9ad)" style="fill: none; stroke: #b0b0b0; stroke-width: 0.8; stroke-linecap: square"/>
     </g>
     <g id="line2d_16">
      <g>
       <use xlink:href="#m93d0a074ab" x="57.6" y="214.916915" style="stroke: #000000; stroke-width: 0.8"/>
      </g>
     </g>
     <g id="text_8">
      <!-- 0 -->
      <g transform="translate(44.2375 218.716133) scale(0.1 -0.1)">
       <use xlink:href="#DejaVuSans-30"/>
      </g>
     </g>
    </g>
    <g id="ytick_4">
     <g id="line2d_17">
      <path d="M 57.6 169.972599 
L 414.72 169.972599 
" clip-path="url(#pb58236b9ad)" style="fill: none; stroke: #b0b0b0; stroke-width: 0.8; stroke-linecap: square"/>
     </g>
     <g id="line2d_18">
      <g>
       <use xlink:href="#m93d0a074ab" x="57.6" y="169.972599" style="stroke: #000000; stroke-width: 0.8"/>
      </g>
     </g>
     <g id="text_9">
      <!-- 50 -->
      <g transform="translate(37.875 173.771818) scale(0.1 -0.1)">
       <use xlink:href="#DejaVuSans-35"/>
       <use xlink:href="#DejaVuSans-30" x="63.623047"/>
      </g>
     </g>
    </g>
    <g id="ytick_5">
     <g id="line2d_19">
      <path d="M 57.6 125.028284 
L 414.72 125.028284 
" clip-path="url(#pb58236b9ad)" style="fill: none; stroke: #b0b0b0; stroke-width: 0.8; stroke-linecap: square"/>
     </g>
     <g id="line2d_20">
      <g>
       <use xlink:href="#m93d0a074ab" x="57.6" y="125.028284" style="stroke: #000000; stroke-width: 0.8"/>
      </g>
     </g>
     <g id="text_10">
      <!-- 100 -->
      <g transform="translate(31.5125 128.827502) scale(0.1 -0.1)">
       <use xlink:href="#DejaVuSans-31"/>
       <use xlink:href="#DejaVuSans-30" x="63.623047"/>
       <use xlink:href="#DejaVuSans-30" x="127.246094"/>
      </g>
     </g>
    </g>
    <g id="ytick_6">
     <g id="line2d_21">
      <path d="M 57.6 80.083968 
L 414.72 80.083968 
" clip-path="url(#pb58236b9ad)" style="fill: none; stroke: #b0b0b0; stroke-width: 0.8; stroke-linecap: square"/>
     </g>
     <g id="line2d_22">
      <g>
       <use xlink:href="#m93d0a074ab" x="57.6" y="80.083968" style="stroke: #000000; stroke-width: 0.8"/>
      </g>
     </g>
     <g id="text_11">
      <!-- 150 -->
      <g transform="translate(31.5125 83.883187) scale(0.1 -0.1)">
       <use xlink:href="#DejaVuSans-31"/>
       <use xlink:href="#DejaVuSans-35" x="63.623047"/>
       <use xlink:href="#DejaVuSans-30" x="127.246094"/>
      </g>
     </g>
    </g>
   </g>
   <g id="line2d_23">
    <path d="M 106.298182 186.152553 
L 158.242909 204.561744 
L 210.187636 213.76634 
L 262.132364 213.76634 
L 314.077091 204.561744 
L 366.021818 186.152553 
" clip-path="url(#pb58236b9ad)" style="fill: none; stroke-dasharray: 5.55,2.4; stroke-dashoffset: 0; stroke: #000000; stroke-width: 1.5"/>
    <defs>
     <path id="mce5b2e5237" d="M -3 3 
L 3 -3 
M -3 -3 
L 3 3 
" style="stroke: #000000"/>
    </defs>
    <g clip-path="url(#pb58236b9ad)">
     <use xlink:href="#mce5b2e5237" x="106.298182" y="186.152553" style="stroke: #000000"/>
     <use xlink:href="#mce5b2e5237" x="158.242909" y="204.561744" style="stroke: #000000"/>
     <use xlink:href="#mce5b2e5237" x="210.187636" y="213.76634" style="stroke: #000000"/>
     <use xlink:href="#mce5b2e5237" x="262.132364" y="213.76634" style="stroke: #000000"/>
     <use xlink:href="#mce5b2e5237" x="314.077091" y="204.561744" style="stroke: #000000"/>
     <use xlink:href="#mce5b2e5237" x="366.021818" y="186.152553" style="stroke: #000000"/>
    </g>
   </g>
   <g id="line2d_24">
    <path d="M 73.832727 174.528 
L 77.112066 176.143392 
L 80.391405 177.725816 
L 83.670744 179.275274 
L 86.950083 180.791764 
L 90.229421 182.275287 
L 93.50876 183.725843 
L 96.788099 185.143431 
L 100.067438 186.528053 
L 103.346777 187.879707 
L 106.626116 189.198394 
L 109.905455 190.484114 
L 113.184793 191.736867 
L 116.464132 192.956653 
L 119.743471 194.143471 
L 123.02281 195.297322 
L 126.302149 196.418207 
L 129.581488 197.506123 
L 132.860826 198.561073 
L 136.140165 199.583056 
L 139.419504 200.572071 
L 142.698843 201.528119 
L 145.978182 202.4512 
L 149.257521 203.341314 
L 152.53686 204.198461 
L 155.816198 205.02264 
L 159.095537 205.813852 
L 162.374876 206.572098 
L 165.654215 207.297375 
L 168.933554 207.989686 
L 172.212893 208.64903 
L 175.492231 209.275406 
L 178.77157 209.868815 
L 182.050909 210.429257 
L 185.330248 210.956732 
L 188.609587 211.45124 
L 191.888926 211.91278 
L 195.168264 212.341354 
L 198.447603 212.73696 
L 201.726942 213.099599 
L 205.006281 213.429271 
L 208.28562 213.725975 
L 211.564959 213.989713 
L 214.844298 214.220483 
L 218.123636 214.418286 
L 221.402975 214.583122 
L 224.682314 214.714991 
L 227.961653 214.813892 
L 231.240992 214.879826 
L 234.520331 214.912794 
L 237.799669 214.912794 
L 241.079008 214.879826 
L 244.358347 214.813892 
L 247.637686 214.714991 
L 250.917025 214.583122 
L 254.196364 214.418286 
L 257.475702 214.220483 
L 260.755041 213.989713 
L 264.03438 213.725975 
L 267.313719 213.429271 
L 270.593058 213.099599 
L 273.872397 212.73696 
L 277.151736 212.341354 
L 280.431074 211.91278 
L 283.710413 211.45124 
L 286.989752 210.956732 
L 290.269091 210.429257 
L 293.54843 209.868815 
L 296.827769 209.275406 
L 300.107107 208.64903 
L 303.386446 207.989686 
L 306.665785 207.297375 
L 309.945124 206.572098 
L 313.224463 205.813852 
L 316.503802 205.02264 
L 319.78314 204.198461 
L 323.062479 203.341314 
L 326.341818 202.4512 
L 329.621157 201.528119 
L 332.900496 200.572071 
L 336.179835 199.583056 
L 339.459174 198.561073 
L 342.738512 197.506123 
L 346.017851 196.418207 
L 349.29719 195.297322 
L 352.576529 194.143471 
L 355.855868 192.956653 
L 359.135207 191.736867 
L 362.414545 190.484114 
L 365.693884 189.198394 
L 368.973223 187.879707 
L 372.252562 186.528053 
L 375.531901 185.143431 
L 378.81124 183.725843 
L 382.090579 182.275287 
L 385.369917 180.791764 
L 388.649256 179.275274 
L 391.928595 177.725816 
L 395.207934 176.143392 
L 398.487273 174.528 
" clip-path="url(#pb58236b9ad)" style="fill: none; stroke: #ff0000; stroke-width: 1.5; stroke-linecap: square"/>
   </g>
   <g id="patch_3">
    <path d="M 57.6 307.584 
L 57.6 41.472 
" style="fill: none; stroke: #000000; stroke-width: 0.8; stroke-linejoin: miter; stroke-linecap: square"/>
   </g>
   <g id="patch_4">
    <path d="M 414.72 307.584 
L 414.72 41.472 
" style="fill: none; stroke: #000000; stroke-width: 0.8; stroke-linejoin: miter; stroke-linecap: square"/>
   </g>
   <g id="patch_5">
    <path d="M 57.6 307.584 
L 414.72 307.584 
" style="fill: none; stroke: #000000; stroke-width: 0.8; stroke-linejoin: miter; stroke-linecap: square"/>
   </g>
   <g id="patch_6">
    <path d="M 57.6 41.472 
L 414.72 41.472 
" style="fill: none; stroke: #000000; stroke-width: 0.8; stroke-linejoin: miter; stroke-linecap: square"/>
   </g>
   <g id="text_12">
    <!-- reference_curve.txt (Mean confidence interval 95%) -->
    <g transform="translate(79.827188 35.472) scale(0.12 -0.12)">
     <defs>
      <path id="DejaVuSans-72" d="M 2631 2963 
Q 2534 3019 2420 3045 
Q 2306 3072 2169 3072 
Q 1681 3072 1420 2755 
Q 1159 2438 1159 1844 
L 1159 0 
L 581 0 
L 581 3500 
L 1159 3500 
L 1159 2956 
Q 1341 3275 1631 3429 
Q 1922 3584 2338 3584 
Q 2397 3584 2469 3576 
Q 2541 3569 2628 3553 
L 2631 2963 
z
" transform="scale(0.015625)"/>
      <path id="DejaVuSans-65" d="M 3597 1894 
L 3597 1613 
L 953 1613 
Q 991 1019 1311 708 
Q 1631 397 2203 397 
Q 2534 397 2845 478 
Q 3156 559 3463 722 
L 3463 178 
Q 3153 47 2828 -22 
Q 2503 -91 2169 -91 
Q 1331 -91 842 396 
Q 353 884 353 1716 
Q 353 2575 817 3079 
Q 1281 3584 2069 3584 
Q 2775 3584 3186 3129 
Q 3597 2675 3597 1894 
z
M 3022 2063 
Q 3016 2534 2758 2815 
Q 2500 3097 2075 3097 
Q 1594 3097 1305 2825 
Q 1016 2553 972 2059 
L 3022 2063 
z
" transform="scale(0.015625)"/>
      <path id="DejaVuSans-66" d="M 2375 4863 
L 2375 4384 
L 1825 4384 
Q 1516 4384 1395 4259 
Q 1275 4134 1275 3809 
L 1275 3500 
L 2222 3500 
L 2222 3053 
L 1275 3053 
L 1275 0 
L 697 0 
L 697 3053 
L 147 3053 
L 147 3500 
L 697 3500 
L 697 3744 
Q 697 4328 969 4595 
Q 1241 4863 1831 4863 
L 2375 4863 
z
" transform="scale(0.015625)"/>
      <path id="DejaVuSans-6e" d="M 3513 2113 
L 3513 0 
L 2938 0 
L 2938 2094 
Q 2938 2591 2744 2837 
Q 2550 3084 2163 3084 
Q 1697 3084 1428 2787 
Q 1159 2491 1159 1978 
L 1159 0 
L 581 0 
L 581 3500 
L 1159 3500 
L 1159 2956 
Q 1366 3272 1645 3428 
Q 1925 3584 2291 3584 
Q 2894 3584 3203 3211 
Q 3513 2838 3513 2113 
z
" transform="scale(0.015625)"/>
      <path id="DejaVuSans-63" d="M 3122 3366 
L 3122 2828 
Q 2878 2963 2633 3030 
Q 2388 3097 2138 3097 
Q 1578 3097 1268 2742 
Q 959 2388 959 1747 
Q 959 1106 1268 751 
Q 1578 397 2138 397 
Q 2388 397 2633 464 
Q 2878 531 3122 666 
L 3122 134 
Q 2881 22 2623 -34 
Q 2366 -91 2075 -91 
Q 1284 -91 818 406 
Q 353 903 353 1747 
Q 353 2603 823 3093 
Q 1294 3584 2113 3584 
Q 2378 3584 2631 3529 
Q 2884 3475 3122 3366 
z
" transform="scale(0.015625)"/>
      <path id="DejaVuSans-5f" d="M 3263 -1063 
L 3263 -1509 
L -63 -1509 
L -63 -1063 
L 3263 -1063 
z
" transform="scale(0.015625)"/>
      <path id="DejaVuSans-75" d="M 544 1381 
L 544 3500 
L 1119 3500 
L 1119 1403 
Q 1119 906 1312 657 
Q 1506 409 1894 409 
Q 2359 409 2629 706 
Q 2900 1003 2900 1516 
L 2900 3500 
L 3475 3500 
L 3475 0 
L 2900 0 
L 2900 538 
Q 2691 219 2414 64 
Q 2138 -91 1772 -91 
Q 1169 -91 856 284 
Q 544 659 544 1381 
z
M 1991 3584 
L 1991 3584 
z
" transform="scale(0.015625)"/>
      <path id="DejaVuSans-76" d="M 191 3500 
L 800 3500 
L 1894 563 
L 2988 3500 
L 3597 3500 
L 2284 0 
L 1503 0 
L 191 3500 
z
" transform="scale(0.015625)"/>
      <path id="DejaVuSans-2e" d="M 684 794 
L 1344 794 
L 1344 0 
L 684 0 
L 684 794 
z
" transform="scale(0.015625)"/>
      <path id="DejaVuSans-74" d="M 1172 4494 
L 1172 3500 
L 2356 3500 
L 2356 3053 
L 1172 3053 
L 1172 1153 
Q 1172 725 1289 603 
Q 1406 481 1766 481 
L 2356 481 
L 2356 0 
L 1766 0 
Q 1100 0 847 248 
Q 594 497 594 1153 
L 594 3053 
L 172 3053 
L 172 3500 
L 594 3500 
L 594 4494 
L 1172 4494 
z
" transform="scale(0.015625)"/>
      <path id="DejaVuSans-78" d="M 3513 3500 
L 2247 1797 
L 3578 0 
L 2900 0 
L 1881 1375 
L 863 0 
L 184 0 
L 1544 1831 
L 300 3500 
L 978 3500 
L 1906 2253 
L 2834 3500 
L 3513 3500 
z
" transform="scale(0.015625)"/>
      <path id="DejaVuSans-20" transform="scale(0.015625)"/>
      <path id="DejaVuSans-28" d="M 1984 4856 
Q 1566 4138 1362 3434 
Q 1159 2731 1159 2009 
Q 1159 1288 1364 580 
Q 1569 -128 1984 -844 
L 1484 -844 
Q 1016 -109 783 600 
Q 550 1309 550 2009 
Q 550 2706 781 3412 
Q 1013 4119 1484 4856 
L 1984 4856 
z
" transform="scale(0.015625)"/>
      <path id="DejaVuSans-4d" d="M 628 4666 
L 1569 4666 
L 2759 1491 
L 3956 4666 
L 4897 4666 
L 4897 0 
L 4281 0 
L 4281 4097 
L 3078 897 
L 2444 897 
L 1241 4097 
L 1241 0 
L 628 0 
L 628 4666 
z
" transform="scale(0.015625)"/>
      <path id="DejaVuSans-61" d="M 2194 1759 
Q 1497 1759 1228 1600 
Q 959 1441 959 1056 
Q 959 750 1161 570 
Q 1363 391 1709 391 
Q 2188 391 2477 730 
Q 2766 1069 2766 1631 
L 2766 1759 
L 2194 1759 
z
M 3341 1997 
L 3341 0 
L 2766 0 
L 2766 531 
Q 2569 213 2275 61 
Q 1981 -91 1556 -91 
Q 1019 -91 701 211 
Q 384 513 384 1019 
Q 384 1609 779 1909 
Q 1175 2209 1959 2209 
L 2766 2209 
L 2766 2266 
Q 2766 2663 2505 2880 
Q 2244 3097 1772 3097 
Q 1472 3097 1187 3025 
Q 903 2953 641 2809 
L 641 3341 
Q 956 3463 1253 3523 
Q 1550 3584 1831 3584 
Q 2591 3584 2966 3190 
Q 3341 2797 3341 1997 
z
" transform="scale(0.015625)"/>
      <path id="DejaVuSans-6f" d="M 1959 3097 
Q 1497 3097 1228 2736 
Q 959 2375 959 1747 
Q 959 1119 1226 758 
Q 1494 397 1959 397 
Q 2419 397 2687 759 
Q 2956 1122 2956 1747 
Q 2956 2369 2687 2733 
Q 2419 3097 1959 3097 
z
M 1959 3584 
Q 2709 3584 3137 3096 
Q 3566 2609 3566 1747 
Q 3566 888 3137 398 
Q 2709 -91 1959 -91 
Q 1206 -91 779 398 
Q 353 888 353 1747 
Q 353 2609 779 3096 
Q 1206 3584 1959 3584 
z
" transform="scale(0.015625)"/>
      <path id="DejaVuSans-69" d="M 603 3500 
L 1178 3500 
L 1178 0 
L 603 0 
L 603 3500 
z
M 603 4863 
L 1178 4863 
L 1178 4134 
L 603 4134 
L 603 4863 
z
" transform="scale(0.015625)"/>
      <path id="DejaVuSans-64" d="M 2906 2969 
L 2906 4863 
L 3481 4863 
L 3481 0 
L 2906 0 
L 2906 525 
Q 2725 213 2448 61 
Q 2172 -91 1784 -91 
Q 1150 -91 751 415 
Q 353 922 353 1747 
Q 353 2572 751 3078 
Q 1150 3584 1784 3584 
Q 2172 3584 2448 3432 
Q 2725 3281 2906 2969 
z
M 947 1747 
Q 947 1113 1208 752 
Q 1469 391 1925 391 
Q 2381 391 2643 752 
Q 2906 1113 2906 1747 
Q 2906 2381 2643 2742 
Q 2381 3103 1925 3103 
Q 1469 3103 1208 2742 
Q 947 2381 947 1747 
z
" transform="scale(0.015625)"/>
      <path id="DejaVuSans-6c" d="M 603 4863 
L 1178 4863 
L 1178 0 
L 603 0 
L 603 4863 
z
" transform="scale(0.015625)"/>
      <path id="DejaVuSans-39" d="M 703 97 
L 703 672 
Q 941 559 1184 500 
Q 1428 441 1663 441 
Q 2288 441 2617 861 
Q 2947 1281 2994 2138 
Q 2813 1869 2534 1725 
Q 2256 1581 1919 1581 
Q 1219 1581 811 2004 
Q 403 2428 403 3163 
Q 403 3881 828 4315 
Q 1253 4750 1959 4750 
Q 2769 4750 3195 4129 
Q 3622 3509 3622 2328 
Q 3622 1225 3098 567 
Q 2575 -91 1691 -91 
Q 1453 -91 1209 -44 
Q 966 3 703 97 
z
M 1959 2075 
Q 2384 2075 2632 2365 
Q 2881 2656 2881 3163 
Q 2881 3666 2632 3958 
Q 2384 4250 1959 4250 
Q 1534 4250 1286 3958 
Q 1038 3666 1038 3163 
Q 1038 2656 1286 2365 
Q 1534 2075 1959 2075 
z
" transform="scale(0.015625)"/>
      <path id="DejaVuSans-25" d="M 4653 2053 
Q 4381 2053 4226 1822 
Q 4072 1591 4072 1178 
Q 4072 772 4226 539 
Q 4381 306 4653 306 
Q 4919 306 5073 539 
Q 5228 772 5228 1178 
Q 5228 1588 5073 1820 
Q 4919 2053 4653 2053 
z
M 4653 2450 
Q 5147 2450 5437 2106 
Q 5728 1763 5728 1178 
Q 5728 594 5436 251 
Q 5144 -91 4653 -91 
Q 4153 -91 3862 251 
Q 3572 594 3572 1178 
Q 3572 1766 3864 2108 
Q 4156 2450 4653 2450 
z
M 1428 4353 
Q 1159 4353 1004 4120 
Q 850 3888 850 3481 
Q 850 3069 1003 2837 
Q 1156 2606 1428 2606 
Q 1700 2606 1854 2837 
Q 2009 3069 2009 3481 
Q 2009 3884 1853 4118 
Q 1697 4353 1428 4353 
z
M 4250 4750 
L 4750 4750 
L 1831 -91 
L 1331 -91 
L 4250 4750 
z
M 1428 4750 
Q 1922 4750 2215 4408 
Q 2509 4066 2509 3481 
Q 2509 2891 2217 2550 
Q 1925 2209 1428 2209 
Q 931 2209 642 2551 
Q 353 2894 353 3481 
Q 353 4063 643 4406 
Q 934 4750 1428 4750 
z
" transform="scale(0.015625)"/>
      <path id="DejaVuSans-29" d="M 513 4856 
L 1013 4856 
Q 1481 4119 1714 3412 
Q 1947 2706 1947 2009 
Q 1947 1309 1714 600 
Q 1481 -109 1013 -844 
L 513 -844 
Q 928 -128 1133 580 
Q 1338 1288 1338 2009 
Q 1338 2731 1133 3434 
Q 928 4138 513 4856 
z
" transform="scale(0.015625)"/>
     </defs>
     <use xlink:href="#DejaVuSans-72"/>
     <use xlink:href="#DejaVuSans-65" x="38.863281"/>
     <use xlink:href="#DejaVuSans-66" x="100.386719"/>
     <use xlink:href="#DejaVuSans-65" x="135.591797"/>
     <use xlink:href="#DejaVuSans-72" x="197.115234"/>
     <use xlink:href="#DejaVuSans-65" x="235.978516"/>
     <use xlink:href="#DejaVuSans-6e" x="297.501953"/>
     <use xlink:href="#DejaVuSans-63" x="360.880859"/>
     <use xlink:href="#DejaVuSans-65" x="415.861328"/>
     <use xlink:href="#DejaVuSans-5f" x="477.384766"/>
     <use xlink:href="#DejaVuSans-63" x="527.384766"/>
     <use xlink:href="#DejaVuSans-75" x="582.365234"/>
     <use xlink:href="#DejaVuSans-72" x="645.744141"/>
     <use xlink:href="#DejaVuSans-76" x="686.857422"/>
     <use xlink:href="#DejaVuSans-65" x="746.037109"/>
     <use xlink:href="#DejaVuSans-2e" x="807.560547"/>
     <use xlink:href="#DejaVuSans-74" x="839.347656"/>
     <use xlink:href="#DejaVuSans-78" x="878.556641"/>
     <use xlink:href="#DejaVuSans-74" x="937.736328"/>
     <use xlink:href="#DejaVuSans-20" x="976.945312"/>
     <use xlink:href="#DejaVuSans-28" x="1008.732422"/>
     <use xlink:href="#DejaVuSans-4d" x="1047.746094"/>
     <use xlink:href="#DejaVuSans-65" x="1134.025391"/>
     <use xlink:href="#DejaVuSans-61" x="1195.548828"/>
     <use xlink:href="#DejaVuSans-6e" x="1256.828125"/>
     <use xlink:href="#DejaVuSans-20" x="1320.207031"/>
     <use xlink:href="#DejaVuSans-63" x="1351.994141"/>
     <use xlink:href="#DejaVuSans-6f" x="1406.974609"/>
     <use xlink:href="#DejaVuSans-6e" x="1468.15625"/>
     <use xlink:href="#DejaVuSans-66" x="1531.535156"/>
     <use xlink:href="#DejaVuSans-69" x="1566.740234"/>
     <use xlink:href="#DejaVuSans-64" x="1594.523438"/>
     <use xlink:href="#DejaVuSans-65" x="1658"/>
     <use xlink:href="#DejaVuSans-6e" x="1719.523438"/>
     <use xlink:href="#DejaVuSans-63" x="1782.902344"/>
     <use xlink:href="#DejaVuSans-65" x="1837.882812"/>
     <use xlink:href="#DejaVuSans-20" x="1899.40625"/>
     <use xlink:href="#DejaVuSans-69" x="1931.193359"/>
     <use xlink:href="#DejaVuSans-6e" x="1958.976562"/>
     <use xlink:href="#DejaVuSans-74" x="2022.355469"/>
     <use xlink:href="#DejaVuSans-65" x="2061.564453"/>
     <use xlink:href="#DejaVuSans-72" x="2123.087891"/>
     <use xlink:href="#DejaVuSans-76" x="2164.201172"/>
     <use xlink:href="#DejaVuSans-61" x="2223.380859"/>
     <use xlink:href="#DejaVuSans-6c" x="2284.660156"/>
     <use xlink:href="#DejaVuSans-20" x="2312.443359"/>
     <use xlink:href="#DejaVuSans-39" x="2344.230469"/>
     <use xlink:href="#DejaVuSans-35" x="2407.853516"/>
     <use xlink:href="#DejaVuSans-25" x="2471.476562"/>
     <use xlink:href="#DejaVuSans-29" x="2566.496094"/>
    </g>
   </g>
   <g id="legend_1">
    <g id="patch_7">
     <path d="M 278.18875 93.506375 
L 407.72 93.506375 
Q 409.72 93.506375 409.72 91.506375 
L 409.72 48.472 
Q 409.72 46.472 407.72 46.472 
L 278.18875 46.472 
Q 276.18875 46.472 276.18875 48.472 
L 276.18875 91.506375 
Q 276.18875 93.506375 278.18875 93.506375 
z
" style="fill: #ffffff; opacity: 0.8; stroke: #cccccc; stroke-linejoin: miter"/>
    </g>
    <g id="line2d_25">
     <path d="M 280.18875 54.570438 
L 290.18875 54.570438 
L 300.18875 54.570438 
" style="fill: none; stroke-dasharray: 5.55,2.4; stroke-dashoffset: 0; stroke: #000000; stroke-width: 1.5"/>
     <g>
      <use xlink:href="#mce5b2e5237" x="290.18875" y="54.570438" style="stroke: #000000"/>
     </g>
    </g>
    <g id="text_13">
     <!-- Reference -->
     <g transform="translate(308.18875 58.070438) scale(0.1 -0.1)">
      <defs>
       <path id="DejaVuSans-52" d="M 2841 2188 
Q 3044 2119 3236 1894 
Q 3428 1669 3622 1275 
L 4263 0 
L 3584 0 
L 2988 1197 
Q 2756 1666 2539 1819 
Q 2322 1972 1947 1972 
L 1259 1972 
L 1259 0 
L 628 0 
L 628 4666 
L 2053 4666 
Q 2853 4666 3247 4331 
Q 3641 3997 3641 3322 
Q 3641 2881 3436 2590 
Q 3231 2300 2841 2188 
z
M 1259 4147 
L 1259 2491 
L 2053 2491 
Q 2509 2491 2742 2702 
Q 2975 2913 2975 3322 
Q 2975 3731 2742 3939 
Q 2509 4147 2053 4147 
L 1259 4147 
z
" transform="scale(0.015625)"/>
      </defs>
      <use xlink:href="#DejaVuSans-52"/>
      <use xlink:href="#DejaVuSans-65" x="64.982422"/>
      <use xlink:href="#DejaVuSans-66" x="126.505859"/>
      <use xlink:href="#DejaVuSans-65" x="161.710938"/>
      <use xlink:href="#DejaVuSans-72" x="223.234375"/>
      <use xlink:href="#DejaVuSans-65" x="262.097656"/>
      <use xlink:href="#DejaVuSans-6e" x="323.621094"/>
      <use xlink:href="#DejaVuSans-63" x="387"/>
      <use xlink:href="#DejaVuSans-65" x="441.980469"/>
     </g>
    </g>
    <g id="line2d_26">
     <path d="M 280.18875 69.248563 
L 290.18875 69.248563 
L 300.18875 69.248563 
" style="fill: none; stroke: #ff0000; stroke-width: 1.5; stroke-linecap: square"/>
    </g>
    <g id="text_14">
     <!-- Average -->
     <g transform="translate(308.18875 72.748563) scale(0.1 -0.1)">
      <defs>
       <path id="DejaVuSans-41" d="M 2188 4044 
L 1331 1722 
L 3047 1722 
L 2188 4044 
z
M 1831 4666 
L 2547 4666 
L 4325 0 
L 3669 0 
L 3244 1197 
L 1141 1197 
L 716 0 
L 50 0 
L 1831 4666 
z
" transform="scale(0.015625)"/>
       <path id="DejaVuSans-67" d="M 2906 1791 
Q 2906 2416 2648 2759 
Q 2391 3103 1925 3103 
Q 1463 3103 1205 2759 
Q 947 2416 947 1791 
Q 947 1169 1205 825 
Q 1463 481 1925 481 
Q 2391 481 2648 825 
Q 2906 1169 2906 1791 
z
M 3481 434 
Q 3481 -459 3084 -895 
Q 2688 -1331 1869 -1331 
Q 1566 -1331 1297 -1286 
Q 1028 -1241 775 -1147 
L 775 -588 
Q 1028 -725 1275 -790 
Q 1522 -856 1778 -856 
Q 2344 -856 2625 -561 
Q 2906 -266 2906 331 
L 2906 616 
Q 2728 306 2450 153 
Q 2172 0 1784 0 
Q 1141 0 747 490 
Q 353 981 353 1791 
Q 353 2603 747 3093 
Q 1141 3584 1784 3584 
Q 2172 3584 2450 3431 
Q 2728 3278 2906 2969 
L 2906 3500 
L 3481 3500 
L 3481 434 
z
" transform="scale(0.015625)"/>
      </defs>
      <use xlink:href="#DejaVuSans-41"/>
      <use xlink:href="#DejaVuSans-76" x="62.533203"/>
      <use xlink:href="#DejaVuSans-65" x="121.712891"/>
      <use xlink:href="#DejaVuSans-72" x="183.236328"/>
      <use xlink:href="#DejaVuSans-61" x="224.349609"/>
      <use xlink:href="#DejaVuSans-67" x="285.628906"/>
      <use xlink:href="#DejaVuSans-65" x="349.105469"/>
     </g>
    </g>
    <g id="patch_8">
     <path d="M 280.18875 87.426688 
L 300.18875 87.426688 
L 300.18875 80.426688 
L 280.18875 80.426688 
z
" style="fill: #ff0000; fill-opacity: 0.2; stroke: #ff0000; stroke-opacity: 0.2; stroke-linejoin: miter"/>
    </g>
    <g id="text_15">
     <!-- Confidence interval -->
     <g transform="translate(308.18875 87.426688) scale(0.1 -0.1)">
      <defs>
       <path id="DejaVuSans-43" d="M 4122 4306 
L 4122 3641 
Q 3803 3938 3442 4084 
Q 3081 4231 2675 4231 
Q 1875 4231 1450 3742 
Q 1025 3253 1025 2328 
Q 1025 1406 1450 917 
Q 1875 428 2675 428 
Q 3081 428 3442 575 
Q 3803 722 4122 1019 
L 4122 359 
Q 3791 134 3420 21 
Q 3050 -91 2638 -91 
Q 1578 -91 968 557 
Q 359 1206 359 2328 
Q 359 3453 968 4101 
Q 1578 4750 2638 4750 
Q 3056 4750 3426 4639 
Q 3797 4528 4122 4306 
z
" transform="scale(0.015625)"/>
      </defs>
      <use xlink:href="#DejaVuSans-43"/>
      <use xlink:href="#DejaVuSans-6f" x="69.824219"/>
      <use xlink:href="#DejaVuSans-6e" x="131.005859"/>
      <use xlink:href="#DejaVuSans-66" x="194.384766"/>
      <use xlink:href="#DejaVuSans-69" x="229.589844"/>
      <use xlink:href="#DejaVuSans-64" x="257.373047"/>
      <use xlink:href="#DejaVuSans-65" x="320.849609"/>
      <use xlink:href="#DejaVuSans-6e" x="382.373047"/>
      <use xlink:href="#DejaVuSans-63" x="445.751953"/>
      <use xlink:href="#DejaVuSans-65" x="500.732422"/>
      <use xlink:href="#DejaVuSans-20" x="562.255859"/>
      <use xlink:href="#DejaVuSans-69" x="594.042969"/>
      <use xlink:href="#DejaVuSans-6e" x="621.826172"/>
      <use xlink:href="#DejaVuSans-74" x="685.205078"/>
      <use xlink:href="#DejaVuSans-65" x="724.414062"/>
      <use xlink:href="#DejaVuSans-72" x="785.9375"/>
      <use xlink:href="#DejaVuSans-76" x="827.050781"/>
      <use xlink:href="#DejaVuSans-61" x="886.230469"/>
      <use xlink:href="#DejaVuSans-6c" x="947.509766"/>
     </g>
    </g>
   </g>
  </g>
 </g>
 <defs>
  <clipPath id="pb58236b9ad">
   <rect x="57.6" y="41.472" width="357.12" height="266.112"/>
  </clipPath>
 </defs>
</svg>
